<mxfile host="Electron" agent="Mozilla/5.0 (X11; Linux x86_64) AppleWebKit/537.36 (KHTML, like Gecko) draw.io/28.2.5 Chrome/138.0.7204.251 Electron/37.6.1 Safari/537.36" version="28.2.5" pages="8">
  <diagram name="arreglo" id="qa0XRp8u9jiqYAByVobd">
    <mxGraphModel dx="1370" dy="843" grid="1" gridSize="10" guides="1" tooltips="1" connect="1" arrows="1" fold="1" page="1" pageScale="1" pageWidth="850" pageHeight="1100" math="0" shadow="0">
      <root>
        <mxCell id="0" />
        <mxCell id="1" parent="0" />
        <mxCell id="UeapOaT1SXueZL3Cfcxj-1" value="&lt;font style=&quot;font-size: 36px;&quot; face=&quot;Cascadia Code&quot; color=&quot;#4d4d4d&quot;&gt;21&lt;/font&gt;" style="rounded=0;whiteSpace=wrap;html=1;strokeWidth=1;fillColor=#DFEAF2;" parent="1" vertex="1">
          <mxGeometry x="280" y="440" width="80" height="80" as="geometry" />
        </mxCell>
        <mxCell id="UeapOaT1SXueZL3Cfcxj-2" value="&lt;span style=&quot;color: rgb(77, 77, 77); font-family: &amp;quot;Cascadia Code&amp;quot;; font-size: 40px;&quot;&gt;38&lt;/span&gt;" style="rounded=0;whiteSpace=wrap;html=1;strokeWidth=1;fillColor=#DFEAF2;" parent="1" vertex="1">
          <mxGeometry x="360" y="440" width="80" height="80" as="geometry" />
        </mxCell>
        <mxCell id="UeapOaT1SXueZL3Cfcxj-3" value="&lt;font face=&quot;Cascadia Code&quot; color=&quot;#4d4d4d&quot;&gt;&lt;span style=&quot;font-size: 40px;&quot;&gt;95&lt;/span&gt;&lt;/font&gt;" style="rounded=0;whiteSpace=wrap;html=1;strokeWidth=1;fillColor=#DFEAF2;" parent="1" vertex="1">
          <mxGeometry x="440" y="440" width="80" height="80" as="geometry" />
        </mxCell>
        <mxCell id="UeapOaT1SXueZL3Cfcxj-4" value="&lt;span style=&quot;color: rgb(77, 77, 77); font-family: &amp;quot;Cascadia Code&amp;quot;;&quot;&gt;&lt;font style=&quot;font-size: 36px;&quot;&gt;6&lt;/font&gt;&lt;/span&gt;" style="rounded=0;whiteSpace=wrap;html=1;strokeWidth=1;fillColor=#DFEAF2;" parent="1" vertex="1">
          <mxGeometry x="200" y="440" width="80" height="80" as="geometry" />
        </mxCell>
      </root>
    </mxGraphModel>
  </diagram>
  <diagram name="intento_insercion" id="fOUgEbmy4uQI2E4Htowf">
    <mxGraphModel dx="1370" dy="843" grid="1" gridSize="10" guides="1" tooltips="1" connect="1" arrows="1" fold="1" page="1" pageScale="1" pageWidth="850" pageHeight="1100" math="0" shadow="0">
      <root>
        <mxCell id="dacfzLH6R79Z_cDnp3CM-0" />
        <mxCell id="dacfzLH6R79Z_cDnp3CM-1" parent="dacfzLH6R79Z_cDnp3CM-0" />
        <mxCell id="qQ3b3urBRibSeY-LLJ9u-0" value="&lt;font style=&quot;font-size: 36px;&quot; face=&quot;Cascadia Code&quot; color=&quot;#4d4d4d&quot;&gt;21&lt;/font&gt;" style="rounded=0;whiteSpace=wrap;html=1;strokeWidth=1;fillColor=#DFEAF2;" parent="dacfzLH6R79Z_cDnp3CM-1" vertex="1">
          <mxGeometry x="320" y="480" width="80" height="80" as="geometry" />
        </mxCell>
        <mxCell id="qQ3b3urBRibSeY-LLJ9u-1" value="&lt;span style=&quot;color: rgb(77, 77, 77); font-family: &amp;quot;Cascadia Code&amp;quot;; font-size: 40px;&quot;&gt;38&lt;/span&gt;" style="rounded=0;whiteSpace=wrap;html=1;strokeWidth=1;fillColor=#DFEAF2;" parent="dacfzLH6R79Z_cDnp3CM-1" vertex="1">
          <mxGeometry x="400" y="480" width="80" height="80" as="geometry" />
        </mxCell>
        <mxCell id="qQ3b3urBRibSeY-LLJ9u-2" value="&lt;font face=&quot;Cascadia Code&quot; color=&quot;#4d4d4d&quot;&gt;&lt;span style=&quot;font-size: 40px;&quot;&gt;95&lt;/span&gt;&lt;/font&gt;" style="rounded=0;whiteSpace=wrap;html=1;strokeWidth=1;fillColor=#DFEAF2;" parent="dacfzLH6R79Z_cDnp3CM-1" vertex="1">
          <mxGeometry x="480" y="480" width="80" height="80" as="geometry" />
        </mxCell>
        <mxCell id="qQ3b3urBRibSeY-LLJ9u-3" value="&lt;span style=&quot;color: rgb(77, 77, 77); font-family: &amp;quot;Cascadia Code&amp;quot;;&quot;&gt;&lt;font style=&quot;font-size: 36px;&quot;&gt;6&lt;/font&gt;&lt;/span&gt;" style="rounded=0;whiteSpace=wrap;html=1;strokeWidth=1;fillColor=#DFEAF2;" parent="dacfzLH6R79Z_cDnp3CM-1" vertex="1">
          <mxGeometry x="240" y="480" width="80" height="80" as="geometry" />
        </mxCell>
        <mxCell id="qQ3b3urBRibSeY-LLJ9u-4" value="&lt;font face=&quot;Cascadia Code&quot; color=&quot;#4d4d4d&quot;&gt;&lt;span style=&quot;font-size: 40px;&quot;&gt;30&lt;/span&gt;&lt;/font&gt;" style="rounded=0;whiteSpace=wrap;html=1;strokeWidth=1;dashed=1;dashPattern=8 8;" parent="dacfzLH6R79Z_cDnp3CM-1" vertex="1">
          <mxGeometry x="560" y="480" width="80" height="80" as="geometry" />
        </mxCell>
        <mxCell id="qQ3b3urBRibSeY-LLJ9u-5" value="&lt;font style=&quot;font-size: 24px;&quot;&gt;❌&lt;/font&gt;" style="text;html=1;align=center;verticalAlign=middle;whiteSpace=wrap;rounded=0;" parent="dacfzLH6R79Z_cDnp3CM-1" vertex="1">
          <mxGeometry x="570" y="570" width="60" height="30" as="geometry" />
        </mxCell>
      </root>
    </mxGraphModel>
  </diagram>
  <diagram name="insercion_correcta" id="laxQIvN6K97VwtE6e5se">
    <mxGraphModel dx="1370" dy="843" grid="1" gridSize="10" guides="1" tooltips="1" connect="1" arrows="1" fold="1" page="1" pageScale="1" pageWidth="850" pageHeight="1100" math="0" shadow="0">
      <root>
        <mxCell id="tOYxvGSOlAkKyNLqM6g_-0" />
        <mxCell id="tOYxvGSOlAkKyNLqM6g_-1" parent="tOYxvGSOlAkKyNLqM6g_-0" />
        <mxCell id="tOYxvGSOlAkKyNLqM6g_-2" value="&lt;font style=&quot;font-size: 36px;&quot; face=&quot;Cascadia Code&quot; color=&quot;#4d4d4d&quot;&gt;21&lt;/font&gt;" style="rounded=0;whiteSpace=wrap;html=1;strokeWidth=1;fillColor=#DFEAF2;" parent="tOYxvGSOlAkKyNLqM6g_-1" vertex="1">
          <mxGeometry x="280" y="320" width="80" height="80" as="geometry" />
        </mxCell>
        <mxCell id="tOYxvGSOlAkKyNLqM6g_-3" value="&lt;span style=&quot;color: rgb(77, 77, 77); font-family: &amp;quot;Cascadia Code&amp;quot;; font-size: 40px;&quot;&gt;38&lt;/span&gt;" style="rounded=0;whiteSpace=wrap;html=1;strokeWidth=1;fillColor=#DFEAF2;" parent="tOYxvGSOlAkKyNLqM6g_-1" vertex="1">
          <mxGeometry x="440" y="320" width="80" height="80" as="geometry" />
        </mxCell>
        <mxCell id="tOYxvGSOlAkKyNLqM6g_-4" value="&lt;font face=&quot;Cascadia Code&quot; color=&quot;#4d4d4d&quot;&gt;&lt;span style=&quot;font-size: 40px;&quot;&gt;95&lt;/span&gt;&lt;/font&gt;" style="rounded=0;whiteSpace=wrap;html=1;strokeWidth=1;fillColor=#DFEAF2;" parent="tOYxvGSOlAkKyNLqM6g_-1" vertex="1">
          <mxGeometry x="520" y="320" width="80" height="80" as="geometry" />
        </mxCell>
        <mxCell id="tOYxvGSOlAkKyNLqM6g_-5" value="&lt;span style=&quot;color: rgb(77, 77, 77); font-family: &amp;quot;Cascadia Code&amp;quot;;&quot;&gt;&lt;font style=&quot;font-size: 36px;&quot;&gt;6&lt;/font&gt;&lt;/span&gt;" style="rounded=0;whiteSpace=wrap;html=1;strokeWidth=1;fillColor=#DFEAF2;" parent="tOYxvGSOlAkKyNLqM6g_-1" vertex="1">
          <mxGeometry x="200" y="320" width="80" height="80" as="geometry" />
        </mxCell>
        <mxCell id="fBSKmltZArLR9nBO3Wp8-0" value="&lt;font face=&quot;Cascadia Code&quot; color=&quot;#4d4d4d&quot;&gt;&lt;span style=&quot;font-size: 40px;&quot;&gt;75&lt;/span&gt;&lt;/font&gt;" style="rounded=0;whiteSpace=wrap;html=1;strokeWidth=1;dashed=1;dashPattern=8 8;" parent="tOYxvGSOlAkKyNLqM6g_-1" vertex="1">
          <mxGeometry x="360" y="320" width="80" height="80" as="geometry" />
        </mxCell>
        <mxCell id="KuW30wzeDGKqWz-ygHan-0" value="&lt;font style=&quot;font-size: 22px;&quot;&gt;✅&lt;/font&gt;" style="text;html=1;align=center;verticalAlign=middle;whiteSpace=wrap;rounded=0;" parent="tOYxvGSOlAkKyNLqM6g_-1" vertex="1">
          <mxGeometry x="370" y="410" width="60" height="30" as="geometry" />
        </mxCell>
      </root>
    </mxGraphModel>
  </diagram>
  <diagram name="paso_0" id="BBeO1honfF0398ZzI6B0">
    <mxGraphModel dx="1370" dy="843" grid="1" gridSize="10" guides="1" tooltips="1" connect="1" arrows="1" fold="1" page="1" pageScale="1" pageWidth="850" pageHeight="1100" math="0" shadow="0">
      <root>
        <mxCell id="3fs580b3CrrC4Qnri4vf-0" />
        <mxCell id="3fs580b3CrrC4Qnri4vf-1" parent="3fs580b3CrrC4Qnri4vf-0" />
        <mxCell id="3fs580b3CrrC4Qnri4vf-2" value="&lt;font style=&quot;font-size: 36px;&quot; face=&quot;Cascadia Code&quot; color=&quot;#4d4d4d&quot;&gt;21&lt;/font&gt;" style="rounded=0;whiteSpace=wrap;html=1;strokeWidth=1;fillColor=#DFEAF2;" parent="3fs580b3CrrC4Qnri4vf-1" vertex="1">
          <mxGeometry x="280" y="320" width="80" height="80" as="geometry" />
        </mxCell>
        <mxCell id="3fs580b3CrrC4Qnri4vf-3" value="&lt;span style=&quot;color: rgb(77, 77, 77); font-family: &amp;quot;Cascadia Code&amp;quot;; font-size: 40px;&quot;&gt;38&lt;/span&gt;" style="rounded=0;whiteSpace=wrap;html=1;strokeWidth=1;fillColor=#DFEAF2;" parent="3fs580b3CrrC4Qnri4vf-1" vertex="1">
          <mxGeometry x="360" y="320" width="80" height="80" as="geometry" />
        </mxCell>
        <mxCell id="3fs580b3CrrC4Qnri4vf-4" value="&lt;font face=&quot;Cascadia Code&quot; color=&quot;#4d4d4d&quot;&gt;&lt;span style=&quot;font-size: 40px;&quot;&gt;95&lt;/span&gt;&lt;/font&gt;" style="rounded=0;whiteSpace=wrap;html=1;strokeWidth=1;fillColor=#DFEAF2;" parent="3fs580b3CrrC4Qnri4vf-1" vertex="1">
          <mxGeometry x="440" y="320" width="80" height="80" as="geometry" />
        </mxCell>
        <mxCell id="3fs580b3CrrC4Qnri4vf-5" value="&lt;span style=&quot;color: rgb(77, 77, 77); font-family: &amp;quot;Cascadia Code&amp;quot;;&quot;&gt;&lt;font style=&quot;font-size: 36px;&quot;&gt;6&lt;/font&gt;&lt;/span&gt;" style="rounded=0;whiteSpace=wrap;html=1;strokeWidth=1;fillColor=#DFEAF2;" parent="3fs580b3CrrC4Qnri4vf-1" vertex="1">
          <mxGeometry x="200" y="320" width="80" height="80" as="geometry" />
        </mxCell>
        <mxCell id="bOXFmDI852QG7yzm-WWW-0" value="" style="group" parent="3fs580b3CrrC4Qnri4vf-1" vertex="1" connectable="0">
          <mxGeometry x="210" y="220" width="200" height="100" as="geometry" />
        </mxCell>
        <mxCell id="bOXFmDI852QG7yzm-WWW-1" value="&lt;font style=&quot;font-size: 32px;&quot;&gt;🕵🏻&lt;/font&gt;" style="text;html=1;align=center;verticalAlign=middle;whiteSpace=wrap;rounded=0;" parent="bOXFmDI852QG7yzm-WWW-0" vertex="1">
          <mxGeometry y="40" width="70" height="60" as="geometry" />
        </mxCell>
        <mxCell id="bOXFmDI852QG7yzm-WWW-2" value="&lt;font style=&quot;color: rgb(77, 77, 77);&quot;&gt;&lt;span style=&quot;font-family: &amp;quot;Cascadia Code&amp;quot;; font-size: 18px;&quot;&gt;¿&lt;/span&gt;&lt;font style=&quot;font-family: &amp;quot;Cascadia Code&amp;quot;; font-size: 18px; color: rgb(77, 77, 77);&quot;&gt;mayor a 30&lt;/font&gt;&lt;span style=&quot;font-family: &amp;quot;Cascadia Code&amp;quot;; font-size: 18px;&quot;&gt;?&lt;/span&gt;&lt;/font&gt;" style="whiteSpace=wrap;html=1;shape=mxgraph.basic.roundRectCallout;dx=30;dy=15;size=5;boundedLbl=1;" parent="bOXFmDI852QG7yzm-WWW-0" vertex="1">
          <mxGeometry x="40" width="160" height="60" as="geometry" />
        </mxCell>
        <mxCell id="lTLI_8g5D1MzhVOpKQfB-0" value="" style="shape=image;verticalLabelPosition=bottom;labelBackgroundColor=default;verticalAlign=top;aspect=fixed;imageAspect=0;image=data:image/png,iVBORw0KGgoAAAANSUhEUgAAAQAAAAEACAYAAABccqhmAAAQAElEQVR4AeydCXxU1b3H/wkgVq01M6OtZkZZEgJBBYyCGKqxtvb1+epziwVFQFBxacEFBApCWFQQN3BBwY1FoY1Ln319tbbWuEQFCYtKICQCOhPcZu5Y68qSvP9/Mlcmk7nn3Mls997zz+ec3HvP/9zl/P73/73nLnNvPvAfK8AKKKsAA0BZ13PDWQEABgDvBayAwgowABR2PjddbQWo9QwAUoEzK6CoAgwARR3PzWYFSAEGAKnAmRVQVAEGgKKO52arrYDeegaArgQPWQEFFWAAKOh0bjIroCvAANCV4CEroKACDAAFnc5NVluB2NYzAGLV4HFWQDEFGACKOZybywrEKsAAiFWDx1kBxRRgACjmcG6u2grEt54BEK8IT7MCCinAAFDI2dxUViBeAQZAvCI8zQoopAADQCFnc1PVViBR6xkAiVThMlZAEQUYAIo4mpvJCiRSgAGQSBUuYwUUUYABoIijuZlqK2DUegaAkTJczgoooAADQAEncxNZASMFGABGynA5K6CAAgwABZzMTVRbAVHrGQAiddjGCjhcAQaAwx3MzWMFRAowAETqsI0VcLgCDACHO5ibp7YCstYzAGQKsZ0VcLACDAAHO5ebxgrIFGAAyBRiOyvgYAUYAA52LjdNbQXMtJ4BYEYlrsMKOFQBBoBDHcvNYgXMKMAAMKMS12EFHKoAA8ChjuVmqa2A2dYzAMwqxfVYAQcqwABwoFO5SayAWQUYAGaV4nqsgAMVYAA40KncJLUVSKb1DIBk1OK6rIDDFGAAJOHQioqKrsVDiy/BWe7DPKekvKQEh5xyrEDR0KJBuAnzMS8qOrXkXBzmYeZkQgEGgAmRqEppZcVhNTU1/2h8s/FJnP4t5lsaahs2F3g9BASc5JQLBVxe18SmN5vW47qnYJ7Q9FbD/+BwTdlVZd1wyEmiAANAIhCZKfjrq2v+iuNnYI5N3cOB4Ep3ofuy2EIez44CLp/rRi2g3Ytri9+PL65bWvck9djQplRKtrHxwiU7v+Prl59b/sNo8A8zaGx+qDn0RIHXc6mBnYszoIDL57lJ82t3CRZdiT22xysrK7sI6ihvYgAIdgE68tc+X/t/WMUo+NEUSfnhQHAF9wQiWmT8Hwb/JM0fvNPEikZWV1cvhSrg/RwS/7EwiXUBCn7JkT9+zkhPgCEQL0t6pwu87qkY/AuTWOpYqAK6aMsXBqHjHwOgoyZ68L+AJtmRH6u0SwSBx3EnHdmulCfSogDqOjUcCN3eiYVdi/OIThfQbP/UmRYwAOJUiznyl8eZzE52wZ10OfcEzMplrh7qOQ117Uzw6yu4ocDnvk2f4GGbAgyANh0i/01c8IvUM/GPegJ8YdCEUGaquH3u6XihNeXgDftD03BZM8ysU5U6DICop+nIb+aCX/cu+bDyjEHwK+9R0TkNB3xh0FAa8wYM2Okhf2iebI4xxT6Ye1JfWTXAZc3FUwl6ZkBaV4UKDAD0MgW/mQt+FPwrTh8Evyw8Ch4ZNtAUBPDI9QR2X/k5AdQ52ZRM8C84pRTG9z0OZgwslq4GTyXmu7yuidKKNqrQ2U1VHgDJBv+ZR3siWnfLz2MIRJTIzD+zwT+2jw8o+PVL/BNKe8FNx/eWbpQW0O4pKPSMl1Z0eAWlAdDZ4Nf3CYaArkR6hy6vpwq76tJuPwX/7SeXgh78+lZMObEIJpT21CeNhnnh5uAS7J2NNqqgQrmyAEg1+PWdgyGgK5GeIQb/bC0QnCVb2rg+x0Ki4NfnmzGwD1xVcpw+aTTMw1O0xwp8nhFGFZxeriQA0hX8+s7BENCVSG0YDf6ZsqVcWULB36/DkT9+vnllfWF0kS++OH46P+wPrnB73RfEG+wyncp2KgeAdAe/Lj5DQFeic0OzwT8ej+q3lvUzvZI7BpfC8F6FsvpdQ4HQarwmcI6sotPsSgEgU8Gv7xQMAV2J5IauQvdc7PZLj/wU/HPxqJ7M0un6wL1D+kNlj6Nlsx2E1wSecflcZ8sqOsmuDAAyHfz6TsEQ0JUwN4wEf3NI+nDONX17QLLBr29Bfl4e3Df0BDjH92O9yGjYXfNrf/J4PRVGFZxWrgQAshX8+s7BENCVkA7nayaDf/ZJqb18iSCwtHwAnF14pGyjfhAMBP/sKnQNlVW0gj3VbXA8ALId/LpDGAK6EoZDeoWX9Im8a/r1gFSDX98C8smjwwbCGT9x60VGw8O0Zu0Fj89zslEFp5Q7GgC5Cn5956Adjp8Y1NVoN1yAU9Lgv5aCf1BqR35cT7tET3OuPOMkOO2ognblCSYOD/qDLx5ReNSABDbHFDkWALkOfn0PYQjoSnw/pN/y3/z9lMHIxP49oSrNwa+v6uAu+fBURRmc4jlCLzIaFnze/Ok/XMe6So0q2L3ckQAoraw4LJln+/XHezPlTIbA98pS8E/6fspghIJ/+oA+Btb0FB/StQv84cwyGOT+kWyBHu1D7aXeQ3sXySpm256O9TkOAFYLft1JDAGwTPDrPjmsW9cIBE50Ha4XGQ1/8v6b77986vBTexhVsGu5owBg1eDXdw6FIWC54Nd9csRB3SIQ6HfED/Uio6H3rTVv/bOssvxYowp2LHcMAKwe/PrOoRgE8rDd9Npuabf/huN7Qaa7/bgtCZO7+0Hw9M9OhuLDD01ojynsWVdd+/dBw8uPiSmz9agjAGCX4Nf3FEUgoAf/RL3dRkMK/mknyn/HbzR/OsqPPPggqEYI9PzhIbLF9dm4pvbvp51/mvSNMLIFpWJP17y2B4Ddgl93nMMhoAf/BL29RkMrBL++bccccnCkJ1B46MF6kdGw9I3n3vjb4PMHSx8oMFqAVcptDQC7Br/ufIdCwHTwTz6hN+T6yK/7Qh/6Dv0BPHfWKfCTH3TXi4yGA9c9t+6vA8+rOMKogh3KbQuAcvkXeyL6H9ylC6w8fRBk+lZfZGWd+KdD4D9MvGMwZP0vEFHwL0YZpEf+KScWweQTrHlnrcdhh8CzCAEPnhZgW0TplE1/qnmBDkSiSla22RYAtc/XPo7CDsNsmCj4V50xCCqir/EyrJhjA0Hg0WEDwAwEwoHg8gKvBT9I2vb1nftRSvpwKg6M01QMfjOv7TJeQuYtRXhBkC4MFnSXfmN0SH11zROZ36IDa0jnmC0BUHRaEb307UKREHrwny5/7lu0mKzZuuXng0kIdEEIrLAUBCj4q+BBFIs+wIED40TBf6OJd/YZLyF7llK8NfjHM8vgR3irULLWC4tPLu4lqWNJsy0BkNeSJ33h26giL9gl+PU9Q4eAiVeORyHgHqnPm7PhgeCXvmDz9wOKwS7Br+s5wPUjuLxY+lYhaOmSf5w+j52GtgRAa2vrNhS5FbNhemT7h7CqKWBot6qBIPCIudMBhEDkq8SX5KwtSQT/jIHFcH1/+x0k1+xohsX1O2USt3TtCg2ySla02xIATWsjkb1MJGhLaytMerseVjT6RdUsaSMIWP50oC34H0IBpUd+Cn56XTfWtVWi4L9+7RagfUmy4Q831DbsltRJizndC7ElAEiEsqvK6GJTNY0bZXLczeu3wuPYGzCqY9VyHQKWPB04EPxXyvRTIPifwX1R+rCTTKdc2W0LgLqldXsrKiqo+/tHkXgEgakIgUcaPhRVs6SNIGDyfQJ0OrDcXei+LOMNSSL4Zw3qAw4/8lPwj6B9MeO6Z2gFtgUA6VFTU7MPIXApjq/BbJjoYsH0uq2wzJYQsNAXiJIM/uv6Sa/VGvosV4Ykuv22D37S2NYAoAZEIUBHvidp2igTBGYgBB7atsuoimXL6TkBkz2ByFeJM9ETqKys7AJVQNddpN1+OvJz8EPa/zKxQNsDgEQhCOAOSp94WknTRpkgMHNDAzywVXpV12gROSvPJQRQ2y7V1dWPYuPHYhYmDn6hPJYzOgIApCruoPtxR70cx1dgFqbZG7czBIQKHTCipnrwE2APGBKMcfAnEMXiRY4BAOkchQAdpZbTtCgTBBbX7xBVsaQtmz2BaPDTI9fC4KcfANDXerjbb8ldRrhRjgIAtZQgAFVAEKDzVRD9zdvUCHe/976oiiVt2YBATPDT9RVDHSj455X1A/pen2ElixrsdMEvUxI6DgARoaqgBargaoDIRSscGKf57zTBXQyBdgJx8LeTwxFX+9u1KGbCmQCgBh6AwMM0KcoLEAIL320SVbGkLRM9gWSCn7r9fOS35K5heqOcCwCSoA0C9Au1JTQpygvffR9uf6dRVMWStnRCoKKioiueQtH1E2m3/7aT+8EVJcdaUhPRRnG3v706zgYAtZUgAHAdjtJv1XFgnO55b4eyEKDgx9updBuVHqwyFInO+Sn4x/Xh4DcUKc2GTC7O+QBoU68VBxMw09tqcGCcCAK3bt5uXMGillR6AjHBP1zUPA5+kTr2tKkCAPIOQeB6HJFCYNGWnaAKBKLBvwp1EQZ/fl4eLDylFPjIj0o5KKkEAHKbDoG7aUKUCQJzNtm1JzAATPyKkB4bfhy7/a+iDr/BbJgo+O/E4B9l4sUYhgvJkeGPO3eDyZ/0Ovpqv5H8qgGAdGjFfzdhvhOzMN1fvxNmbbDfex6S+RUhCjAUs2HSg39kkdewjlUNT+/6CCa+9Z6Z3/NbNvgzra2KANA1nYwjd2AWpiXbdsHMDduEdaxoTOKagOHm2z34f/fmu7C/lXhv2EQyKBv81HiVAUDtn4L/FmAWpoe2fQD0c2JhJQsaU4EAB78FHZqBTVIdACTpVFehex6NiDK9S2Dq+nqQHk9EC8mBrTMQ4ODPgaNytEoGAAqvNYduMQOBx7b7YdrbdoWAqQuDQMF/9+D+YMdzfrrg91sHdftx18x4YgBEJY5AwOuZE500HDzW6IcptoRAPsheKkLBf++Q/nBJ70LD9lvV8DRf8OuUaxgAMbJpgeAst889I6Yo4egTCIHJ67Y46nSgC97nX3Tq8TC8lz2Dny/4Qaf+GABxsoX8oVtdXtesuOIOkyuaAnDTWntC4NFhA2FCaU84vFvXSLuKDz8Ulp8+CH7T85jItJ3+0bP9Jrv9T5ddVWbrF3hmwi8MgASqagFtjpmewKr37QmBrvl5MGNgH2isPAt2YK79r2FwduGRCZSwdhGd8yfxkM8ldnp7b7aUZwAYKE09gQKve5qB+ftigsDEt94187DJ9/NYZYSe7T8s2guwyjaZ3Q4+5zerlLgeA0CgTzgQmu/yeeiBIUEtgDU7dsMEc0+cCZfDRnMKUPDzOb85rWS1GAAShTR/8E6Xz0WPDgtrUnf0OrwFRR8iEVZkY0oKcPCnJF+HmRkAHSTpWKD5tbtdha4bO1ralzyDt6IYAu01SeeUKsGfTs1ky2IAyBSK2rVm7R68O0A/JxY+DEgQuOaNd2Bfi7BadKk8MKsAB79ZpZKrxwBIQi8toC0q8Lnpo6TC6H7ug49hfO1mhkAS2oqqcvCL1EnNxgBIUr+wP/SgGQj82f8JQyBJbRNV5+BPpEr6BAOZ9wAAEABJREFUyhgAndAyCgF6z6CwJ8AQ6IS4MbOoGPwxzc/KKAOgkzIjBJYUFHquwdmlELgSTwf2trRgVU5mFeDgN6tUavUYACnoF24OPoy3CK/ARQgh8Bc8HRj72ibYwxBAqeSJg1+uUbpqMABSVFLza4+ZgcDfmj+DcQwBqdoc/FKJ0lqBAZAGOaMQGIeLEvbzCQLcE0CVDJLqwW8gS0aLGQBpkhch8HiB1z0aF7cfs2F6EXsCo17ZCN/uF7LCcH6nGjj4c+NZBkAadQ8HQqsKvB4pBP75URBGv7qBIRDVnoM/KkQOBgyANIseDgSfRAiMwsUKewIvfxSCUQwB4ODHPSWHiQGQAfERAk/hhcFLcdH7MBumGoTAZa9sgK/3CVlhOL/dDRz8BzyYqzEGQIaUx2sCf3AVui7BxQsh8MrHIRipIAQ4+HHPsEBiAGTQCVqzVo0QGIGr2IvZML3+iaYUBDj4DXeFrBsYABmWHCHwtMvrMgWBS2rqHH86wMGf4R0uycUzAJIUrDPVtYD2jNvrpg9w7hHN/8anYRiBEPjSodcEOPgTez+XpQyALKkfCoSe8/g8lbg6IQTeJAi8XAdf7hVeOsDF2Ctx8FvTXwyALPol6A8+bwYCaz+jnoBznhOgl6Twq7uzuKMlsSoGQBJipaNqDAS+Ey2PIPDg1p2iKrawad/tgZvWbTHz1mR6bz+/ujvLXmUAZFlwWh1BoMB75AU4LoQAPTaMdWydXsM7HCaec1A2+HPtXAZArj3A6ycFeD8kFXKQWfgciI7XAc4NBz57FlfdHbNhsuPXeuIb89Mfu+CQrl3ii+OnL6hbWre67KqybvEGns6sAgyAzOrbYekU/HgKUI0GYfAPObIAru3XE6vZO7m6HwR3De4P+Xn0HSJhWy5kCAj1yYiRAZARWRMv1OPznBsN/oMS12grpeBfXXESHNzFGe65sMfRcP/QE4C+QNzWQsP/FyIE1qjSEzBUIYsGZ+xhWRSss6tye93nmwn+oUcVwOozy8Cu3+wz0ucihMB95iBApwMMASMh01zOAEizoIkW5/K6LgwFQn9Am/DIPwzPl1dXYPDLz5lxUfZLDAHr+YwBkGGfuApdlVpAW42rEV7gouBfdcZJZi6Y4aLsmxgC1vIdAyCD/ogEf7P2FK6Cgx9F0BNDAEDXItdDBkCGPFDg84zQ2oK/q2gVFUe74Sns9pu4VSZajO1sDAFruIwBkAE/FHg9l4T9wZW4aGHwn4nBv+J051ztx/YmlRgCScmVkcoMgDTLWuB1jwwHgitwscKnXyj4lysc/KhPJDEEIjLk7B8DII3Suwvdl4UDoSdwkcLg/9nRHlD5yI/6tEuqQaBd43M8wQBIkwNcPtfYULM8+Onx3hVnDILuDnnIJ03yAUMgXUomtxwGQHJ6JaxNwa/5tUfQKNTzl4VHwmM/HQgH5Qur4WLUTAyB7Pud98QUNXd5XeOiwS982J2C/1EOfqnaDAGpRGmtwABIQc6CQs94LaAtw0UIg/8c34/5yI8imU0XOfixYbMaZKseA6CTShf43NeGm4NLcHZh8P8ag39Z+QDoxt1+lMp8YgiY1yqVmgyATqgXCX5/6H6cVRr8D2Pwd80XVsPFcEqkAEMgkSrpLWMAJKknB3+SgqVYnSGQooCS2RkAEoFiza5C1w1hf+gBLBMe0un378uGDQA+8qNSaUhOgUAapEj7IhgAJiWl4Neatbtl1Sn4Hxh6gpk34MgWxfYYBRgCMWKkcZQBYEJMvM9/Iwe/CaEyXIUhkH6BGQASTV0+zyTNr90lqQYX9zwG+MgvUyl1O0MgdQ1jl8AAiFUjbrzA656q+YML44o7TA7vVQiLTz2eu/0dlMlMQZIQsMTbhjOjROpLZQAYaOj2uaeHA6HbDczfF4/s7YVFNg3+VmyFXb9BSBAwqTu9aJQhgL5OlBgACVRxeV0zQ/7QvASmdkUU/HcN6Q/CWwLt5rDGxL6WVpi3aTsUV78EvTCX/+/rYMevENFp172of765V44/xW8b7rj/MQDiNKHg1wLa7LjiDpOjirxgx+Dfi8E/7vVNsLh+J3wR/QJx4xdfwahXN8KaHc0d2mn1guF4+mXyleMX1fHHRzq4kwEQI4nL65ltJvjHFPtg4WD7Hfkp+K/A4P9r4NOYVreNtrS2wvVrt8CqpkBbgY3+X2T+twM5OR2wspQMgKh3XIWeOVogODM6aTgY28cHC04ptV23XxT8emMJApPermcI6IIoMGQAoJMLfO5btebgLTgqTBT8t5/szODXG84Q0JVQY8gAAJgf9od+L3P3+JLjYL7Dg1/XgCGgK+H8oeoAWIAunoJZmK7uexzMLesrrGNFo5luv9F2MwSMlEmu3Oq1VQYAPeBzs8xB1/TrAXNOUiv4dU10CKzkC4O6JI4bqggAum1/L3pyEmZhug6Df/agEmEdKxqTOPK34PbXYjZMBIHJeGHQrhCgh4W6mHtOQMmHhVQDgB78Ew33+KhhYv+eMMvhwe8udI+pwD9s8hrMhokgMGndFnh0+4eGdaxqoIeFTH6VWMlbhCoBQA/+CbKdlYJ/+oA+smqWsydz5KfgDzWHVtbU1OxDBlyGjRFCgB4b/v36rbaEQK6eE0BNLZ9UAQAF/2L0hjT4bzi+F6gS/KhHJMVA4MlIgcE/hoCBMDYudj4AqoDaSC/v/K3MTzcd3xumnVgsq2Y5e2eO/PGNIAhUVlaOxnL6piEOEicdAo802O90gHsCHX1KwdGx1CklFPxV8CA2ZzxmYZp8Qm+YcmKRsI4VjekIfr1d1dXV+xECl+O0FALT67bCMoYASmXv5FwAtAX/Q+geafBT4E8+Qe3gR50iKRkIzGAIRDRL9M8uZc4EwIHgv1LmiKl41Keuv6ye1ezpPPLHty1ZCDy0bVf8Iiw/zacDbS5yHACwC9sFquAxAJAG/4yBxXAjnvdjXVulTAa/LkQMBJbrZYmGdE1g5oYGeGDrzkRmS5cxBCBygczSTkpm4yj4ccd9HOehi1k4ME6zBvWBCaW9jCtY1JKN4NebjlrSNYFxOC2EANph9sbtDAESwmbZMT2AmOCne9pCN1DwX9evp7COFY3ZDH69/QQBqIKxALAMszAxBNrksdN/RwCgoqKiK+6odJQSBn8eembOSSXAwY9CJJOqoAWq4GpgCKAE4KgnBm0PAAp+vIdNt60uJe8YZQr+eWX94Oq+PYyqWLY8F0f+DmIwBGIlcQwEbA2AaPDT02vDY70TP07BfysG/5Ulx8abLD9tieDXVUoSAovrd+hz2mZ4kWKvF7MtAOgNr3jkfwr3rIsxGyZ6Y+z8k/vBFbYM/hYweodfXIP3F3jdo+nZ/rjy9E8egMBS2cLnbWoEu0KAfkVI+46kjR16ApL6ljPbFgB1S+vuRzUrMRsmcuAdGPyX97HjkZ+CfzMkeoFnXIMx+D2jwoHQqrjyzE22QeAaXIFjIUC/IkzileOLUAtbJlsCoGhIkRfVFt7np+C/85RSGFXsw6r2Sntbkg3+IPWEstvIAxB4WLZiu/YE6JXjJiEwvqS85BiZDla02xIAeXl5fVFMOrXHQeI0ro8PRkY4kdhu1dLkgt89JhzIQfDr4hEEAKgnQI9c66UJhwSBu997P6HNyoUEgev7S28Z5+/bC7RPWrkpCbfNlgBozW+VPna2sqkZaj4KJmy0VQuTC/4sd/uNRWuFKrgOAOgXlzgwTvPfaQK7QWCz9i94dLvfuFFRS35Ly67oqK0GtgRA0xtNdCh5RqT0t/v3w6hXN9kGAskHfw6P/PHCt/UECAL0y8t4a7tpgsBdNukJ1H/+b7j45Tr415697dqQYOKZxvWN9rvlgQ2xJQBwu6H83HL62errNG6UdQi8bPGewN6WVrzab+qCX0uB1zM6p91+I7EBWtFE71ygi7M4apwWYE9g4btNxhUsYGn64iu46J/rIfydNPjXlVZWjLHAJndqE2wLgNrna/+Nwv8KW/0aZsPUBoGNYFUItAX/JjNX+1voNV4Y/PTcg2F7c2wgCEzAbViMWZgWvvs+3P5Oo7BOrowffPkNXPDS2xD8do9sEzYMPK/il/XVNV/KKlrVblsAkKAkPELgP3FcCIHv9rfg6YD1IJBs8GflPj+KmWIiCFyPy5DeGrvnvR2Wg4D/q2/gvJfWwcfffIdNEKb3Bp8/+OxNf6r5nGrZNdsaACS6XSHg0OAnl1AmCNyAI6YgcNtma/QEdn/9baTb3/zVt7jpwrRtyIghP1/33LqQsJYNjLYHAGlsNwg4PPjJJZQJAtQTuJMmRPneLTvg1s3bRVUybvsMu/uVeM6/899fy9a1fdDw8rPWrl77iayiHeyOAAAJbRcIKBL85BI9T8YRKQQWbdmZMwiEvtsTOfI34oU/3FZR2llWWf6LjWtqd4sq2cnmGACQ6FaHgILBT26hbFkIfI63+H6Dt/q24i0/2lBBDgyuHHxWXXVth9chC+axvMlRACC1rQoBhYOf3ELZNATmbsrO6cCXe/cBBf872he0faL8ca/Bfc9aV71up6iSHW2OAwA5wWoQ4OAnr0QyQWBBZEzw7776nTBrY4OgRuqmr/fthxE1G2Bj6F+yhQVdx7rO2rFuW3aoJNuaNNsdCQDSyCoQ4OAnb7TLU3FKCoElW3dlDALf4m3hka9sgLWfhXFThCl8ROFRP9c+1OqFtWxsdCwAyCe5hgAHP3khYZ5a4HPfltASUxiBwIb09gTomZDLX9sIr3+ixawp4egXHp/n7M+bP92c0BottPvA0QAg5+QKAhz8pL5xDvtD012F7nnGNdosS7btgpkbtrVNpPiffHJl7WZ4abf0R2Jfuo5x/SroD65PcZWWn93xACAPZBsCtKOZfJNP5PFemzzhR1KmNWvNoVvMQOChbR/ALXWpQaCltRWuwuB/IfCprA3feLyeX2u7tTdkFZ1gVwIA5KhsQYCDn9Q2nyMQ8HrmyOZ4uKHzEKDg/92b78Jf/NJnd75z+VznBQPBGtn2OMWuDADIYZmGAAc/qZx81gLBWS6TEKCPkiazhsjjiGu3QPWuj2Sz7Sko9Fyo+bUXZRV1uxOGSgGAHJYpCHDwk7qdz2YhsKzhQ5i6vj7y22Mza7t5XT2s2dEsq7rP7XWPCDcH/yKr6DS7cgAgByYLgZd2f0azGWYOfkNpkjJEITBbNtNj2/0wzQQEZuB1g+VN0rf5tBT4PKNCgdCzsvU60a4kAMiRyUBgzGub8MpxYghw8JOa6csIgSq3zz1DtkQZBOZt2g5L8bqBZDmt7kL32LA/uFpSz7FmZQFAHk0VAhz8pGL6c8gfutUsBKa83fF0gN44tLh+p2zDWvGc/xq8A0OflJPV7WB3SoHSACAndhYCHPykXuZyBAKF7umyNTzR6IdYCNBjxGbeOejyum7Ac37pK81l67e7XXkAkANjICB8xyA9RUanAy82fwYm7/PvL8jWF3uoIQ7LeHS+zUxPQHUEFwIAAAPSSURBVIfAw9s+gLnY9ZfJgD6ZogU06ctKZMtxgp0BEPUiQaD83HJTrxej58hNfLGnpSDyAs8sfrEn2hYnDZLpCdxi4olBl881MxwI3eEkjVJpCwMgRr3oi0alEIiZxWg08oRfOBC08gs8jbbdcuXUE8Cj9rRUNwxv9S3Q/NrcVJfjpPkZAHHepJ5A9EWjwtOBuNliJ7nbH6tGmsbDgdD8FCFwL97qo18ipmmLnLEYBkACP0YhIH3leIJZ6ch/Oe6s2ftQZ4KNcGoR6jrf5fPQOwWSbeISnOFGzJziFGAAxAmiT0YhkMzpAAX/GOyurtSXwcP0K6D5g3fiefxNSSx5OVQBfbCEngoG/muvAAOgvR7tpggCeGHwHCx8DbMo0QW/URz8IonSZ8Pz+LuxJzDJxBKfrKysHAdV0AJp+nPaYhgAEo+auDAYOfKH+YKfRMn0mrEncJer0CXq1j9TUVExprq6en961+yspTEATPiTegLRC4PxPxPdgxemRvOR34SIGaiiNWv3uLyu63HR8Uf4Z8uuKhtRU1OzD22cBAowAATixJoIAnhE+UXx0OJLsZw+gDm3pLzkxHCA7/OjHjlLWkBbVHxacRluwALMi4tOLflvHF5Ut7RO+lVPrKd8YgAksQvQEaXxzcancJbfYZ7ZUNvQgENOOVag8Y3GTbgJdItvYtNbDc/jeCvmtCcnLpAB4ESvcptYAZMKMABMCsXVWAEnKsAAcKJXuU2sgEkFGAAmheJqaivg1NYzAJzqWW4XK2BCAQaACZG4CivgVAUYAE71LLeLFTChAAPAhEhcRW0FnNx6BoCTvcttYwUkCjAAJAKxmRVwsgIMACd7l9vGCkgUYABIBGKz2go4vfUMAKd7mNvHCggUYAAIxGETK+B0BRgATvcwt48VECjAABCIwya1FVCh9QwAFbzMbWQFDBRgABgIw8WsgAoKMABU8DK3kRUwUIABYCAMF6utgCqtZwCo4mluJyuQQAEGQAJRuIgVUEUBBoAqnuZ2sgIJFGAAJBCFi9RWQKXWMwBU8ja3lRWIU4ABECcIT7ICKinAAFDJ29xWViBOAQZAnCA8qbYCqrWeAaCax7m9rECMAgyAGDF4lBVQTQEGgGoe5/ayAjEKMABixOBRtRVQsfUMABW9zm1mBaIKMACiQvCAFVBRAQaAil7nNrMCUQUYAFEheKC2Aqq2ngGgque53awAKsAAQBE4sQKqKsAAUNXz3G5WABVgAKAInNRWQOXWMwBU9j63XXkFGADK7wIsgMoKMABU9j63XXkFGADK7wJqC6B66/8fAAD//+oZd/wAAAAGSURBVAMAPNcb8efVBtIAAAAASUVORK5CYII=;" parent="bOXFmDI852QG7yzm-WWW-0" vertex="1">
          <mxGeometry x="150" y="50" width="30" height="30" as="geometry" />
        </mxCell>
      </root>
    </mxGraphModel>
  </diagram>
  <diagram name="paso_1" id="1Tx46-YqlsGTZNP7RcGp">
    <mxGraphModel dx="1370" dy="843" grid="1" gridSize="10" guides="1" tooltips="1" connect="1" arrows="1" fold="1" page="1" pageScale="1" pageWidth="850" pageHeight="1100" math="0" shadow="0">
      <root>
        <mxCell id="IB4esPS00hX3cUYo2efJ-0" />
        <mxCell id="IB4esPS00hX3cUYo2efJ-1" parent="IB4esPS00hX3cUYo2efJ-0" />
        <mxCell id="IB4esPS00hX3cUYo2efJ-2" value="&lt;font style=&quot;font-size: 36px;&quot; face=&quot;Cascadia Code&quot; color=&quot;#4d4d4d&quot;&gt;21&lt;/font&gt;" style="rounded=0;whiteSpace=wrap;html=1;strokeWidth=1;fillColor=#DFEAF2;" parent="IB4esPS00hX3cUYo2efJ-1" vertex="1">
          <mxGeometry x="280" y="320" width="80" height="80" as="geometry" />
        </mxCell>
        <mxCell id="IB4esPS00hX3cUYo2efJ-3" value="&lt;span style=&quot;color: rgb(77, 77, 77); font-family: &amp;quot;Cascadia Code&amp;quot;; font-size: 40px;&quot;&gt;38&lt;/span&gt;" style="rounded=0;whiteSpace=wrap;html=1;strokeWidth=1;fillColor=#DFEAF2;" parent="IB4esPS00hX3cUYo2efJ-1" vertex="1">
          <mxGeometry x="360" y="320" width="80" height="80" as="geometry" />
        </mxCell>
        <mxCell id="IB4esPS00hX3cUYo2efJ-4" value="&lt;font face=&quot;Cascadia Code&quot; color=&quot;#4d4d4d&quot;&gt;&lt;span style=&quot;font-size: 40px;&quot;&gt;95&lt;/span&gt;&lt;/font&gt;" style="rounded=0;whiteSpace=wrap;html=1;strokeWidth=1;fillColor=#DFEAF2;" parent="IB4esPS00hX3cUYo2efJ-1" vertex="1">
          <mxGeometry x="440" y="320" width="80" height="80" as="geometry" />
        </mxCell>
        <mxCell id="IB4esPS00hX3cUYo2efJ-5" value="&lt;span style=&quot;color: rgb(77, 77, 77); font-family: &amp;quot;Cascadia Code&amp;quot;;&quot;&gt;&lt;font style=&quot;font-size: 36px;&quot;&gt;6&lt;/font&gt;&lt;/span&gt;" style="rounded=0;whiteSpace=wrap;html=1;strokeWidth=1;fillColor=#DFEAF2;" parent="IB4esPS00hX3cUYo2efJ-1" vertex="1">
          <mxGeometry x="200" y="320" width="80" height="80" as="geometry" />
        </mxCell>
        <mxCell id="IB4esPS00hX3cUYo2efJ-6" value="" style="group" parent="IB4esPS00hX3cUYo2efJ-1" vertex="1" connectable="0">
          <mxGeometry x="290" y="220" width="200" height="100" as="geometry" />
        </mxCell>
        <mxCell id="IB4esPS00hX3cUYo2efJ-7" value="&lt;font style=&quot;font-size: 32px;&quot;&gt;🕵🏻&lt;/font&gt;" style="text;html=1;align=center;verticalAlign=middle;whiteSpace=wrap;rounded=0;" parent="IB4esPS00hX3cUYo2efJ-6" vertex="1">
          <mxGeometry y="40" width="70" height="60" as="geometry" />
        </mxCell>
        <mxCell id="IB4esPS00hX3cUYo2efJ-8" value="&lt;font style=&quot;color: rgb(77, 77, 77);&quot;&gt;&lt;span style=&quot;font-family: &amp;quot;Cascadia Code&amp;quot;; font-size: 18px;&quot;&gt;¿&lt;/span&gt;&lt;font style=&quot;font-family: &amp;quot;Cascadia Code&amp;quot;; font-size: 18px; color: rgb(77, 77, 77);&quot;&gt;mayor a 30&lt;/font&gt;&lt;span style=&quot;font-family: &amp;quot;Cascadia Code&amp;quot;; font-size: 18px;&quot;&gt;?&lt;/span&gt;&lt;/font&gt;" style="whiteSpace=wrap;html=1;shape=mxgraph.basic.roundRectCallout;dx=30;dy=15;size=5;boundedLbl=1;" parent="IB4esPS00hX3cUYo2efJ-6" vertex="1">
          <mxGeometry x="40" width="160" height="60" as="geometry" />
        </mxCell>
        <mxCell id="9fC6t7e7x_qQM9HgcU0P-0" value="" style="shape=image;verticalLabelPosition=bottom;labelBackgroundColor=default;verticalAlign=top;aspect=fixed;imageAspect=0;image=data:image/png,iVBORw0KGgoAAAANSUhEUgAAAQAAAAEACAYAAABccqhmAAAQAElEQVR4AeydCXxU1b3H/wkgVq01M6OtZkZZEgJBBYyCGKqxtvb1+epziwVFQFBxacEFBApCWFQQN3BBwY1FoY1Ln319tbbWuEQFCYtKICQCOhPcZu5Y68qSvP9/Mlcmk7nn3Mls997zz+ec3HvP/9zl/P73/73nLnNvPvAfK8AKKKsAA0BZ13PDWQEABgDvBayAwgowABR2PjddbQWo9QwAUoEzK6CoAgwARR3PzWYFSAEGAKnAmRVQVAEGgKKO52arrYDeegaArgQPWQEFFWAAKOh0bjIroCvAANCV4CEroKACDAAFnc5NVluB2NYzAGLV4HFWQDEFGACKOZybywrEKsAAiFWDx1kBxRRgACjmcG6u2grEt54BEK8IT7MCCinAAFDI2dxUViBeAQZAvCI8zQoopAADQCFnc1PVViBR6xkAiVThMlZAEQUYAIo4mpvJCiRSgAGQSBUuYwUUUYABoIijuZlqK2DUegaAkTJczgoooAADQAEncxNZASMFGABGynA5K6CAAgwABZzMTVRbAVHrGQAiddjGCjhcAQaAwx3MzWMFRAowAETqsI0VcLgCDACHO5ibp7YCstYzAGQKsZ0VcLACDAAHO5ebxgrIFGAAyBRiOyvgYAUYAA52LjdNbQXMtJ4BYEYlrsMKOFQBBoBDHcvNYgXMKMAAMKMS12EFHKoAA8ChjuVmqa2A2dYzAMwqxfVYAQcqwABwoFO5SayAWQUYAGaV4nqsgAMVYAA40KncJLUVSKb1DIBk1OK6rIDDFGAAJOHQioqKrsVDiy/BWe7DPKekvKQEh5xyrEDR0KJBuAnzMS8qOrXkXBzmYeZkQgEGgAmRqEppZcVhNTU1/2h8s/FJnP4t5lsaahs2F3g9BASc5JQLBVxe18SmN5vW47qnYJ7Q9FbD/+BwTdlVZd1wyEmiAANAIhCZKfjrq2v+iuNnYI5N3cOB4Ep3ofuy2EIez44CLp/rRi2g3Ytri9+PL65bWvck9djQplRKtrHxwiU7v+Prl59b/sNo8A8zaGx+qDn0RIHXc6mBnYszoIDL57lJ82t3CRZdiT22xysrK7sI6ihvYgAIdgE68tc+X/t/WMUo+NEUSfnhQHAF9wQiWmT8Hwb/JM0fvNPEikZWV1cvhSrg/RwS/7EwiXUBCn7JkT9+zkhPgCEQL0t6pwu87qkY/AuTWOpYqAK6aMsXBqHjHwOgoyZ68L+AJtmRH6u0SwSBx3EnHdmulCfSogDqOjUcCN3eiYVdi/OIThfQbP/UmRYwAOJUiznyl8eZzE52wZ10OfcEzMplrh7qOQ117Uzw6yu4ocDnvk2f4GGbAgyANh0i/01c8IvUM/GPegJ8YdCEUGaquH3u6XihNeXgDftD03BZM8ysU5U6DICop+nIb+aCX/cu+bDyjEHwK+9R0TkNB3xh0FAa8wYM2Okhf2iebI4xxT6Ye1JfWTXAZc3FUwl6ZkBaV4UKDAD0MgW/mQt+FPwrTh8Evyw8Ch4ZNtAUBPDI9QR2X/k5AdQ52ZRM8C84pRTG9z0OZgwslq4GTyXmu7yuidKKNqrQ2U1VHgDJBv+ZR3siWnfLz2MIRJTIzD+zwT+2jw8o+PVL/BNKe8FNx/eWbpQW0O4pKPSMl1Z0eAWlAdDZ4Nf3CYaArkR6hy6vpwq76tJuPwX/7SeXgh78+lZMObEIJpT21CeNhnnh5uAS7J2NNqqgQrmyAEg1+PWdgyGgK5GeIQb/bC0QnCVb2rg+x0Ki4NfnmzGwD1xVcpw+aTTMw1O0xwp8nhFGFZxeriQA0hX8+s7BENCVSG0YDf6ZsqVcWULB36/DkT9+vnllfWF0kS++OH46P+wPrnB73RfEG+wyncp2KgeAdAe/Lj5DQFeic0OzwT8ej+q3lvUzvZI7BpfC8F6FsvpdQ4HQarwmcI6sotPsSgEgU8Gv7xQMAV2J5IauQvdc7PZLj/wU/HPxqJ7M0un6wL1D+kNlj6Nlsx2E1wSecflcZ8sqOsmuDAAyHfz6TsEQ0JUwN4wEf3NI+nDONX17QLLBr29Bfl4e3Df0BDjH92O9yGjYXfNrf/J4PRVGFZxWrgQAshX8+s7BENCVkA7nayaDf/ZJqb18iSCwtHwAnF14pGyjfhAMBP/sKnQNlVW0gj3VbXA8ALId/LpDGAK6EoZDeoWX9Im8a/r1gFSDX98C8smjwwbCGT9x60VGw8O0Zu0Fj89zslEFp5Q7GgC5Cn5956Adjp8Y1NVoN1yAU9Lgv5aCf1BqR35cT7tET3OuPOMkOO2ognblCSYOD/qDLx5ReNSABDbHFDkWALkOfn0PYQjoSnw/pN/y3/z9lMHIxP49oSrNwa+v6uAu+fBURRmc4jlCLzIaFnze/Ok/XMe6So0q2L3ckQAoraw4LJln+/XHezPlTIbA98pS8E/6fspghIJ/+oA+Btb0FB/StQv84cwyGOT+kWyBHu1D7aXeQ3sXySpm256O9TkOAFYLft1JDAGwTPDrPjmsW9cIBE50Ha4XGQ1/8v6b77986vBTexhVsGu5owBg1eDXdw6FIWC54Nd9csRB3SIQ6HfED/Uio6H3rTVv/bOssvxYowp2LHcMAKwe/PrOoRgE8rDd9Npuabf/huN7Qaa7/bgtCZO7+0Hw9M9OhuLDD01ojynsWVdd+/dBw8uPiSmz9agjAGCX4Nf3FEUgoAf/RL3dRkMK/mknyn/HbzR/OsqPPPggqEYI9PzhIbLF9dm4pvbvp51/mvSNMLIFpWJP17y2B4Ddgl93nMMhoAf/BL29RkMrBL++bccccnCkJ1B46MF6kdGw9I3n3vjb4PMHSx8oMFqAVcptDQC7Br/ufIdCwHTwTz6hN+T6yK/7Qh/6Dv0BPHfWKfCTH3TXi4yGA9c9t+6vA8+rOMKogh3KbQuAcvkXeyL6H9ylC6w8fRBk+lZfZGWd+KdD4D9MvGMwZP0vEFHwL0YZpEf+KScWweQTrHlnrcdhh8CzCAEPnhZgW0TplE1/qnmBDkSiSla22RYAtc/XPo7CDsNsmCj4V50xCCqir/EyrJhjA0Hg0WEDwAwEwoHg8gKvBT9I2vb1nftRSvpwKg6M01QMfjOv7TJeQuYtRXhBkC4MFnSXfmN0SH11zROZ36IDa0jnmC0BUHRaEb307UKREHrwny5/7lu0mKzZuuXng0kIdEEIrLAUBCj4q+BBFIs+wIED40TBf6OJd/YZLyF7llK8NfjHM8vgR3irULLWC4tPLu4lqWNJsy0BkNeSJ33h26giL9gl+PU9Q4eAiVeORyHgHqnPm7PhgeCXvmDz9wOKwS7Br+s5wPUjuLxY+lYhaOmSf5w+j52GtgRAa2vrNhS5FbNhemT7h7CqKWBot6qBIPCIudMBhEDkq8SX5KwtSQT/jIHFcH1/+x0k1+xohsX1O2USt3TtCg2ySla02xIATWsjkb1MJGhLaytMerseVjT6RdUsaSMIWP50oC34H0IBpUd+Cn56XTfWtVWi4L9+7RagfUmy4Q831DbsltRJizndC7ElAEiEsqvK6GJTNY0bZXLczeu3wuPYGzCqY9VyHQKWPB04EPxXyvRTIPifwX1R+rCTTKdc2W0LgLqldXsrKiqo+/tHkXgEgakIgUcaPhRVs6SNIGDyfQJ0OrDcXei+LOMNSSL4Zw3qAw4/8lPwj6B9MeO6Z2gFtgUA6VFTU7MPIXApjq/BbJjoYsH0uq2wzJYQsNAXiJIM/uv6Sa/VGvosV4Ykuv22D37S2NYAoAZEIUBHvidp2igTBGYgBB7atsuoimXL6TkBkz2ByFeJM9ETqKys7AJVQNddpN1+OvJz8EPa/zKxQNsDgEQhCOAOSp94WknTRpkgMHNDAzywVXpV12gROSvPJQRQ2y7V1dWPYuPHYhYmDn6hPJYzOgIApCruoPtxR70cx1dgFqbZG7czBIQKHTCipnrwE2APGBKMcfAnEMXiRY4BAOkchQAdpZbTtCgTBBbX7xBVsaQtmz2BaPDTI9fC4KcfANDXerjbb8ldRrhRjgIAtZQgAFVAEKDzVRD9zdvUCHe/976oiiVt2YBATPDT9RVDHSj455X1A/pen2ElixrsdMEvUxI6DgARoaqgBargaoDIRSscGKf57zTBXQyBdgJx8LeTwxFX+9u1KGbCmQCgBh6AwMM0KcoLEAIL320SVbGkLRM9gWSCn7r9fOS35K5heqOcCwCSoA0C9Au1JTQpygvffR9uf6dRVMWStnRCoKKioiueQtH1E2m3/7aT+8EVJcdaUhPRRnG3v706zgYAtZUgAHAdjtJv1XFgnO55b4eyEKDgx9updBuVHqwyFInO+Sn4x/Xh4DcUKc2GTC7O+QBoU68VBxMw09tqcGCcCAK3bt5uXMGillR6AjHBP1zUPA5+kTr2tKkCAPIOQeB6HJFCYNGWnaAKBKLBvwp1EQZ/fl4eLDylFPjIj0o5KKkEAHKbDoG7aUKUCQJzNtm1JzAATPyKkB4bfhy7/a+iDr/BbJgo+O/E4B9l4sUYhgvJkeGPO3eDyZ/0Ovpqv5H8qgGAdGjFfzdhvhOzMN1fvxNmbbDfex6S+RUhCjAUs2HSg39kkdewjlUNT+/6CCa+9Z6Z3/NbNvgzra2KANA1nYwjd2AWpiXbdsHMDduEdaxoTOKagOHm2z34f/fmu7C/lXhv2EQyKBv81HiVAUDtn4L/FmAWpoe2fQD0c2JhJQsaU4EAB78FHZqBTVIdACTpVFehex6NiDK9S2Dq+nqQHk9EC8mBrTMQ4ODPgaNytEoGAAqvNYduMQOBx7b7YdrbdoWAqQuDQMF/9+D+YMdzfrrg91sHdftx18x4YgBEJY5AwOuZE500HDzW6IcptoRAPsheKkLBf++Q/nBJ70LD9lvV8DRf8OuUaxgAMbJpgeAst889I6Yo4egTCIHJ67Y46nSgC97nX3Tq8TC8lz2Dny/4Qaf+GABxsoX8oVtdXtesuOIOkyuaAnDTWntC4NFhA2FCaU84vFvXSLuKDz8Ulp8+CH7T85jItJ3+0bP9Jrv9T5ddVWbrF3hmwi8MgASqagFtjpmewKr37QmBrvl5MGNgH2isPAt2YK79r2FwduGRCZSwdhGd8yfxkM8ldnp7b7aUZwAYKE09gQKve5qB+ftigsDEt94187DJ9/NYZYSe7T8s2guwyjaZ3Q4+5zerlLgeA0CgTzgQmu/yeeiBIUEtgDU7dsMEc0+cCZfDRnMKUPDzOb85rWS1GAAShTR/8E6Xz0WPDgtrUnf0OrwFRR8iEVZkY0oKcPCnJF+HmRkAHSTpWKD5tbtdha4bO1ralzyDt6IYAu01SeeUKsGfTs1ky2IAyBSK2rVm7R68O0A/JxY+DEgQuOaNd2Bfi7BadKk8MKsAB79ZpZKrxwBIQi8toC0q8Lnpo6TC6H7ug49hfO1mhkAS2oqqcvCL1EnNxgBIUr+wP/SgGQj82f8JQyBJbRNV5+BPpEr6BAOZ9wAAEABJREFUyhgAndAyCgF6z6CwJ8AQ6IS4MbOoGPwxzc/KKAOgkzIjBJYUFHquwdmlELgSTwf2trRgVU5mFeDgN6tUavUYACnoF24OPoy3CK/ARQgh8Bc8HRj72ibYwxBAqeSJg1+uUbpqMABSVFLza4+ZgcDfmj+DcQwBqdoc/FKJ0lqBAZAGOaMQGIeLEvbzCQLcE0CVDJLqwW8gS0aLGQBpkhch8HiB1z0aF7cfs2F6EXsCo17ZCN/uF7LCcH6nGjj4c+NZBkAadQ8HQqsKvB4pBP75URBGv7qBIRDVnoM/KkQOBgyANIseDgSfRAiMwsUKewIvfxSCUQwB4ODHPSWHiQGQAfERAk/hhcFLcdH7MBumGoTAZa9sgK/3CVlhOL/dDRz8BzyYqzEGQIaUx2sCf3AVui7BxQsh8MrHIRipIAQ4+HHPsEBiAGTQCVqzVo0QGIGr2IvZML3+iaYUBDj4DXeFrBsYABmWHCHwtMvrMgWBS2rqHH86wMGf4R0uycUzAJIUrDPVtYD2jNvrpg9w7hHN/8anYRiBEPjSodcEOPgTez+XpQyALKkfCoSe8/g8lbg6IQTeJAi8XAdf7hVeOsDF2Ctx8FvTXwyALPol6A8+bwYCaz+jnoBznhOgl6Twq7uzuKMlsSoGQBJipaNqDAS+Ey2PIPDg1p2iKrawad/tgZvWbTHz1mR6bz+/ujvLXmUAZFlwWh1BoMB75AU4LoQAPTaMdWydXsM7HCaec1A2+HPtXAZArj3A6ycFeD8kFXKQWfgciI7XAc4NBz57FlfdHbNhsuPXeuIb89Mfu+CQrl3ii+OnL6hbWre67KqybvEGns6sAgyAzOrbYekU/HgKUI0GYfAPObIAru3XE6vZO7m6HwR3De4P+Xn0HSJhWy5kCAj1yYiRAZARWRMv1OPznBsN/oMS12grpeBfXXESHNzFGe65sMfRcP/QE4C+QNzWQsP/FyIE1qjSEzBUIYsGZ+xhWRSss6tye93nmwn+oUcVwOozy8Cu3+wz0ucihMB95iBApwMMASMh01zOAEizoIkW5/K6LgwFQn9Am/DIPwzPl1dXYPDLz5lxUfZLDAHr+YwBkGGfuApdlVpAW42rEV7gouBfdcZJZi6Y4aLsmxgC1vIdAyCD/ogEf7P2FK6Cgx9F0BNDAEDXItdDBkCGPFDg84zQ2oK/q2gVFUe74Sns9pu4VSZajO1sDAFruIwBkAE/FHg9l4T9wZW4aGHwn4nBv+J051ztx/YmlRgCScmVkcoMgDTLWuB1jwwHgitwscKnXyj4lysc/KhPJDEEIjLk7B8DII3Suwvdl4UDoSdwkcLg/9nRHlD5yI/6tEuqQaBd43M8wQBIkwNcPtfYULM8+Onx3hVnDILuDnnIJ03yAUMgXUomtxwGQHJ6JaxNwa/5tUfQKNTzl4VHwmM/HQgH5Qur4WLUTAyB7Pud98QUNXd5XeOiwS982J2C/1EOfqnaDAGpRGmtwABIQc6CQs94LaAtw0UIg/8c34/5yI8imU0XOfixYbMaZKseA6CTShf43NeGm4NLcHZh8P8ag39Z+QDoxt1+lMp8YgiY1yqVmgyATqgXCX5/6H6cVRr8D2Pwd80XVsPFcEqkAEMgkSrpLWMAJKknB3+SgqVYnSGQooCS2RkAEoFiza5C1w1hf+gBLBMe0un378uGDQA+8qNSaUhOgUAapEj7IhgAJiWl4Neatbtl1Sn4Hxh6gpk34MgWxfYYBRgCMWKkcZQBYEJMvM9/Iwe/CaEyXIUhkH6BGQASTV0+zyTNr90lqQYX9zwG+MgvUyl1O0MgdQ1jl8AAiFUjbrzA656q+YML44o7TA7vVQiLTz2eu/0dlMlMQZIQsMTbhjOjROpLZQAYaOj2uaeHA6HbDczfF4/s7YVFNg3+VmyFXb9BSBAwqTu9aJQhgL5OlBgACVRxeV0zQ/7QvASmdkUU/HcN6Q/CWwLt5rDGxL6WVpi3aTsUV78EvTCX/+/rYMevENFp172of765V44/xW8b7rj/MQDiNKHg1wLa7LjiDpOjirxgx+Dfi8E/7vVNsLh+J3wR/QJx4xdfwahXN8KaHc0d2mn1guF4+mXyleMX1fHHRzq4kwEQI4nL65ltJvjHFPtg4WD7Hfkp+K/A4P9r4NOYVreNtrS2wvVrt8CqpkBbgY3+X2T+twM5OR2wspQMgKh3XIWeOVogODM6aTgY28cHC04ptV23XxT8emMJApPermcI6IIoMGQAoJMLfO5btebgLTgqTBT8t5/szODXG84Q0JVQY8gAAJgf9od+L3P3+JLjYL7Dg1/XgCGgK+H8oeoAWIAunoJZmK7uexzMLesrrGNFo5luv9F2MwSMlEmu3Oq1VQYAPeBzs8xB1/TrAXNOUiv4dU10CKzkC4O6JI4bqggAum1/L3pyEmZhug6Df/agEmEdKxqTOPK34PbXYjZMBIHJeGHQrhCgh4W6mHtOQMmHhVQDgB78Ew33+KhhYv+eMMvhwe8udI+pwD9s8hrMhokgMGndFnh0+4eGdaxqoIeFTH6VWMlbhCoBQA/+CbKdlYJ/+oA+smqWsydz5KfgDzWHVtbU1OxDBlyGjRFCgB4b/v36rbaEQK6eE0BNLZ9UAQAF/2L0hjT4bzi+F6gS/KhHJMVA4MlIgcE/hoCBMDYudj4AqoDaSC/v/K3MTzcd3xumnVgsq2Y5e2eO/PGNIAhUVlaOxnL6piEOEicdAo802O90gHsCHX1KwdGx1CklFPxV8CA2ZzxmYZp8Qm+YcmKRsI4VjekIfr1d1dXV+xECl+O0FALT67bCMoYASmXv5FwAtAX/Q+geafBT4E8+Qe3gR50iKRkIzGAIRDRL9M8uZc4EwIHgv1LmiKl41Keuv6ye1ezpPPLHty1ZCDy0bVf8Iiw/zacDbS5yHACwC9sFquAxAJAG/4yBxXAjnvdjXVulTAa/LkQMBJbrZYmGdE1g5oYGeGDrzkRmS5cxBCBygczSTkpm4yj4ccd9HOehi1k4ME6zBvWBCaW9jCtY1JKN4NebjlrSNYFxOC2EANph9sbtDAESwmbZMT2AmOCne9pCN1DwX9evp7COFY3ZDH69/QQBqIKxALAMszAxBNrksdN/RwCgoqKiK+6odJQSBn8eembOSSXAwY9CJJOqoAWq4GpgCKAE4KgnBm0PAAp+vIdNt60uJe8YZQr+eWX94Oq+PYyqWLY8F0f+DmIwBGIlcQwEbA2AaPDT02vDY70TP07BfysG/5Ulx8abLD9tieDXVUoSAovrd+hz2mZ4kWKvF7MtAOgNr3jkfwr3rIsxGyZ6Y+z8k/vBFbYM/hYweodfXIP3F3jdo+nZ/rjy9E8egMBS2cLnbWoEu0KAfkVI+46kjR16ApL6ljPbFgB1S+vuRzUrMRsmcuAdGPyX97HjkZ+CfzMkeoFnXIMx+D2jwoHQqrjyzE22QeAaXIFjIUC/IkzileOLUAtbJlsCoGhIkRfVFt7np+C/85RSGFXsw6r2Sntbkg3+IPWEstvIAxB4WLZiu/YE6JXjJiEwvqS85BiZDla02xIAeXl5fVFMOrXHQeI0ro8PRkY4kdhu1dLkgt89JhzIQfDr4hEEAKgnQI9c66UJhwSBu997P6HNyoUEgev7S28Z5+/bC7RPWrkpCbfNlgBozW+VPna2sqkZaj4KJmy0VQuTC/4sd/uNRWuFKrgOAOgXlzgwTvPfaQK7QWCz9i94dLvfuFFRS35Ly67oqK0GtgRA0xtNdCh5RqT0t/v3w6hXN9kGAskHfw6P/PHCt/UECAL0y8t4a7tpgsBdNukJ1H/+b7j45Tr415697dqQYOKZxvWN9rvlgQ2xJQBwu6H83HL62errNG6UdQi8bPGewN6WVrzab+qCX0uB1zM6p91+I7EBWtFE71ygi7M4apwWYE9g4btNxhUsYGn64iu46J/rIfydNPjXlVZWjLHAJndqE2wLgNrna/+Nwv8KW/0aZsPUBoGNYFUItAX/JjNX+1voNV4Y/PTcg2F7c2wgCEzAbViMWZgWvvs+3P5Oo7BOrowffPkNXPDS2xD8do9sEzYMPK/il/XVNV/KKlrVblsAkKAkPELgP3FcCIHv9rfg6YD1IJBs8GflPj+KmWIiCFyPy5DeGrvnvR2Wg4D/q2/gvJfWwcfffIdNEKb3Bp8/+OxNf6r5nGrZNdsaACS6XSHg0OAnl1AmCNyAI6YgcNtma/QEdn/9baTb3/zVt7jpwrRtyIghP1/33LqQsJYNjLYHAGlsNwg4PPjJJZQJAtQTuJMmRPneLTvg1s3bRVUybvsMu/uVeM6/899fy9a1fdDw8rPWrl77iayiHeyOAAAJbRcIKBL85BI9T8YRKQQWbdmZMwiEvtsTOfI34oU/3FZR2llWWf6LjWtqd4sq2cnmGACQ6FaHgILBT26hbFkIfI63+H6Dt/q24i0/2lBBDgyuHHxWXXVth9chC+axvMlRACC1rQoBhYOf3ELZNATmbsrO6cCXe/cBBf872he0faL8ca/Bfc9aV71up6iSHW2OAwA5wWoQ4OAnr0QyQWBBZEzw7776nTBrY4OgRuqmr/fthxE1G2Bj6F+yhQVdx7rO2rFuW3aoJNuaNNsdCQDSyCoQ4OAnb7TLU3FKCoElW3dlDALf4m3hka9sgLWfhXFThCl8ROFRP9c+1OqFtWxsdCwAyCe5hgAHP3khYZ5a4HPfltASUxiBwIb09gTomZDLX9sIr3+ixawp4egXHp/n7M+bP92c0BottPvA0QAg5+QKAhz8pL5xDvtD012F7nnGNdosS7btgpkbtrVNpPiffHJl7WZ4abf0R2Jfuo5x/SroD65PcZWWn93xACAPZBsCtKOZfJNP5PFemzzhR1KmNWvNoVvMQOChbR/ALXWpQaCltRWuwuB/IfCprA3feLyeX2u7tTdkFZ1gVwIA5KhsQYCDn9Q2nyMQ8HrmyOZ4uKHzEKDg/92b78Jf/NJnd75z+VznBQPBGtn2OMWuDADIYZmGAAc/qZx81gLBWS6TEKCPkiazhsjjiGu3QPWuj2Sz7Sko9Fyo+bUXZRV1uxOGSgGAHJYpCHDwk7qdz2YhsKzhQ5i6vj7y22Mza7t5XT2s2dEsq7rP7XWPCDcH/yKr6DS7cgAgByYLgZd2f0azGWYOfkNpkjJEITBbNtNj2/0wzQQEZuB1g+VN0rf5tBT4PKNCgdCzsvU60a4kAMiRyUBgzGub8MpxYghw8JOa6csIgSq3zz1DtkQZBOZt2g5L8bqBZDmt7kL32LA/uFpSz7FmZQFAHk0VAhz8pGL6c8gfutUsBKa83fF0gN44tLh+p2zDWvGc/xq8A0OflJPV7WB3SoHSACAndhYCHPykXuZyBAKF7umyNTzR6IdYCNBjxGbeOejyum7Ac37pK81l67e7XXkAkANjICB8xyA9RUanAy82fwYm7/PvL8jWF3uoIQ7LeHS+zUxPQHUEFwIAAAPSSURBVIfAw9s+gLnY9ZfJgD6ZogU06ctKZMtxgp0BEPUiQaD83HJTrxej58hNfLGnpSDyAs8sfrEn2hYnDZLpCdxi4olBl881MxwI3eEkjVJpCwMgRr3oi0alEIiZxWg08oRfOBC08gs8jbbdcuXUE8Cj9rRUNwxv9S3Q/NrcVJfjpPkZAHHepJ5A9EWjwtOBuNliJ7nbH6tGmsbDgdD8FCFwL97qo18ipmmLnLEYBkACP0YhIH3leIJZ6ch/Oe6s2ftQZ4KNcGoR6jrf5fPQOwWSbeISnOFGzJziFGAAxAmiT0YhkMzpAAX/GOyurtSXwcP0K6D5g3fiefxNSSx5OVQBfbCEngoG/muvAAOgvR7tpggCeGHwHCx8DbMo0QW/URz8IonSZ8Pz+LuxJzDJxBKfrKysHAdV0AJp+nPaYhgAEo+auDAYOfKH+YKfRMn0mrEncJer0CXq1j9TUVExprq6en961+yspTEATPiTegLRC4PxPxPdgxemRvOR34SIGaiiNWv3uLyu63HR8Uf4Z8uuKhtRU1OzD22cBAowAATixJoIAnhE+UXx0OJLsZw+gDm3pLzkxHCA7/OjHjlLWkBbVHxacRluwALMi4tOLflvHF5Ut7RO+lVPrKd8YgAksQvQEaXxzcancJbfYZ7ZUNvQgENOOVag8Y3GTbgJdItvYtNbDc/jeCvmtCcnLpAB4ESvcptYAZMKMABMCsXVWAEnKsAAcKJXuU2sgEkFGAAmheJqaivg1NYzAJzqWW4XK2BCAQaACZG4CivgVAUYAE71LLeLFTChAAPAhEhcRW0FnNx6BoCTvcttYwUkCjAAJAKxmRVwsgIMACd7l9vGCkgUYABIBGKz2go4vfUMAKd7mNvHCggUYAAIxGETK+B0BRgATvcwt48VECjAABCIwya1FVCh9QwAFbzMbWQFDBRgABgIw8WsgAoKMABU8DK3kRUwUIABYCAMF6utgCqtZwCo4mluJyuQQAEGQAJRuIgVUEUBBoAqnuZ2sgIJFGAAJBCFi9RWQKXWMwBU8ja3lRWIU4ABECcIT7ICKinAAFDJ29xWViBOAQZAnCA8qbYCqrWeAaCax7m9rECMAgyAGDF4lBVQTQEGgGoe5/ayAjEKMABixOBRtRVQsfUMABW9zm1mBaIKMACiQvCAFVBRAQaAil7nNrMCUQUYAFEheKC2Aqq2ngGgque53awAKsAAQBE4sQKqKsAAUNXz3G5WABVgAKAInNRWQOXWMwBU9j63XXkFGADK7wIsgMoKMABU9j63XXkFGADK7wJqC6B66/8fAAD//+oZd/wAAAAGSURBVAMAPNcb8efVBtIAAAAASUVORK5CYII=;" parent="IB4esPS00hX3cUYo2efJ-6" vertex="1">
          <mxGeometry x="150" y="50" width="30" height="30" as="geometry" />
        </mxCell>
      </root>
    </mxGraphModel>
  </diagram>
  <diagram name="paso_2" id="LXaTaSSkIwci17ereXnu">
    <mxGraphModel dx="1370" dy="843" grid="1" gridSize="10" guides="1" tooltips="1" connect="1" arrows="1" fold="1" page="1" pageScale="1" pageWidth="850" pageHeight="1100" math="0" shadow="0">
      <root>
        <mxCell id="1hwrONYSXB4-MrkfCRai-0" />
        <mxCell id="1hwrONYSXB4-MrkfCRai-1" parent="1hwrONYSXB4-MrkfCRai-0" />
        <mxCell id="1hwrONYSXB4-MrkfCRai-2" value="&lt;font style=&quot;font-size: 36px;&quot; face=&quot;Cascadia Code&quot; color=&quot;#4d4d4d&quot;&gt;21&lt;/font&gt;" style="rounded=0;whiteSpace=wrap;html=1;strokeWidth=1;fillColor=#DFEAF2;" parent="1hwrONYSXB4-MrkfCRai-1" vertex="1">
          <mxGeometry x="280" y="320" width="80" height="80" as="geometry" />
        </mxCell>
        <mxCell id="1hwrONYSXB4-MrkfCRai-3" value="&lt;span style=&quot;color: rgb(77, 77, 77); font-family: &amp;quot;Cascadia Code&amp;quot;; font-size: 40px;&quot;&gt;38&lt;/span&gt;" style="rounded=0;whiteSpace=wrap;html=1;strokeWidth=1;fillColor=#DFEAF2;" parent="1hwrONYSXB4-MrkfCRai-1" vertex="1">
          <mxGeometry x="360" y="320" width="80" height="80" as="geometry" />
        </mxCell>
        <mxCell id="1hwrONYSXB4-MrkfCRai-4" value="&lt;font face=&quot;Cascadia Code&quot; color=&quot;#4d4d4d&quot;&gt;&lt;span style=&quot;font-size: 40px;&quot;&gt;95&lt;/span&gt;&lt;/font&gt;" style="rounded=0;whiteSpace=wrap;html=1;strokeWidth=1;fillColor=#DFEAF2;" parent="1hwrONYSXB4-MrkfCRai-1" vertex="1">
          <mxGeometry x="440" y="320" width="80" height="80" as="geometry" />
        </mxCell>
        <mxCell id="1hwrONYSXB4-MrkfCRai-5" value="&lt;span style=&quot;color: rgb(77, 77, 77); font-family: &amp;quot;Cascadia Code&amp;quot;;&quot;&gt;&lt;font style=&quot;font-size: 36px;&quot;&gt;6&lt;/font&gt;&lt;/span&gt;" style="rounded=0;whiteSpace=wrap;html=1;strokeWidth=1;fillColor=#DFEAF2;" parent="1hwrONYSXB4-MrkfCRai-1" vertex="1">
          <mxGeometry x="200" y="320" width="80" height="80" as="geometry" />
        </mxCell>
        <mxCell id="1hwrONYSXB4-MrkfCRai-6" value="" style="group" parent="1hwrONYSXB4-MrkfCRai-1" vertex="1" connectable="0">
          <mxGeometry x="370" y="220" width="200" height="100" as="geometry" />
        </mxCell>
        <mxCell id="1hwrONYSXB4-MrkfCRai-7" value="&lt;font style=&quot;font-size: 32px;&quot;&gt;🕵🏻&lt;/font&gt;" style="text;html=1;align=center;verticalAlign=middle;whiteSpace=wrap;rounded=0;" parent="1hwrONYSXB4-MrkfCRai-6" vertex="1">
          <mxGeometry y="40" width="70" height="60" as="geometry" />
        </mxCell>
        <mxCell id="1hwrONYSXB4-MrkfCRai-8" value="&lt;font style=&quot;color: rgb(77, 77, 77);&quot;&gt;&lt;span style=&quot;font-family: &amp;quot;Cascadia Code&amp;quot;; font-size: 18px;&quot;&gt;¿&lt;/span&gt;&lt;font style=&quot;font-family: &amp;quot;Cascadia Code&amp;quot;; font-size: 18px; color: rgb(77, 77, 77);&quot;&gt;mayor a 30&lt;/font&gt;&lt;span style=&quot;font-family: &amp;quot;Cascadia Code&amp;quot;; font-size: 18px;&quot;&gt;?&lt;/span&gt;&lt;/font&gt;" style="whiteSpace=wrap;html=1;shape=mxgraph.basic.roundRectCallout;dx=30;dy=15;size=5;boundedLbl=1;" parent="1hwrONYSXB4-MrkfCRai-6" vertex="1">
          <mxGeometry x="40" width="160" height="60" as="geometry" />
        </mxCell>
        <mxCell id="wj19amkKPyl9Ha9OMNbF-0" value="" style="shape=image;verticalLabelPosition=bottom;labelBackgroundColor=default;verticalAlign=top;aspect=fixed;imageAspect=0;image=data:image/png,iVBORw0KGgoAAAANSUhEUgAAAQAAAAEACAYAAABccqhmAAAQAElEQVR4AeydC5QU1ZnHrywx6zlrdLpHNzozukcQT9xdTwzHeAbMWVFYkl2TNWYnRt3dbE6MaIzG+IyR0QHUxAeKj4jB9wPUjE/U1dWsoJxhgjgiukKYBzBM9/CYfsDwhmEm9+vpG5qhu+6t6Vfd+/371O3qrnu7qr7fV///vV3dXT1C4AYCIMCWAAyAbeoROAgIAQPAUQACjAnAABgnH6HzJkDRwwCIAgoIMCUAA2CaeIQNAkQABkAUUECAKQEYANPEI2zeBFT0MABFAnMQYEgABsAw6QgZBBQBGIAigTkIMCQAA2CYdITMm0Bm9DCATBp4DALMCMAAmCUc4YJAJgEYQCYNPAYBZgRgAMwSjnB5ExgaPQxgKBE8BwFGBGAAjJKNUEFgKAEYwFAieA4CjAjAABglG6HyJpAtehhANipYBgJMCMAAmCQaYYJANgIwgGxUsAwEmBCAATBJNMLkTSBX9DCAXGSwHAQYEIABMEgyQgSBXARgALnIYDkIMCAAA2CQZITIm4BX9DAALzqoAwHHCcAAHE8wwgMBLwIwAC86qAMBxwnAABxPMMLjTUAXPQxARwj1IOAwARiAw8lFaCCgIwAD0BFCPQg4TAAG4HByERpvAibRwwBMKKENCDhKAAbgaGIRFgiYEIABmFBCGxBwlAAMwNHEIizeBEyjhwGYkkI7EHCQAAzAwaQiJBAwJQADMCWFdiDgIAEYgINJRUi8CfiJHgbghxbagoBjBGAAjiUU4YCAHwIwAD+00BYEHCMAA3AsoQiHNwG/0cMA/BJDexBwiAAMwKFkIhQQ8EsABuCXGNpbT2D0N0YfNap21GjRINgf/+wBCNzYEDj1B+OPlcG+3b6ofVNHc0ebaBCrK6orviUcuQ0nDBjAcKjhNdYRIPEve75pgdzxybKo6fhkJDk/VBM6Xy3gNocBcMs4w3gzxD8mS/gjE12JZ7maAAwgyxGBRe4QSIt/oYwom/jl4tQ0aAJVoe+nnjG6gwEwSja3UNPip2H/iQaxj0xEE3NtHQkYxJe1CQwgKxYstJ1AbV1tVfo9v1fPPzRMNRKoG1rh6nMYgKuZZRwX9fzNjc3vSQR+xC+bpyYaCczjMhKAAaRyjjtXCJD4h9HzDw1/cCTA4NMBGMDQ1OO5tQTS4ted8BNHVIwUp3z9cF2cgyZgwYlBXSBe9TAALzqos4ZAWvzaE34k/hmzx4ibZ50oxo4/QhcfvR1w+sQgDEB3CKA+8AQyxO/5nl+J//jRh4kvHHqIuPGuUWYm4PD3BGAAgT+8sYNeBIYjfrU+mIDAjyHUwYC5fQTyEb+K1nYTUHEMd44RwHDJ4XVlJVAI8asAOJsADEAdBZhbQ6CQ4ldBczUBGIA6AjC3gkAxxK8C52gCMACVfcwDT6CY4lfB22QCap/zmcMA8qGH15aMQCnEr4LhZAIwAJV1zANLoJTiVxC4mAAMQGUc80ASKIf4FQgOJgADUNnGPHAEyil+BSOoJqD2L985DCBfgnh9UQgEQfwqMJdNAAagsox5YAgESfwKiqsmAANQGcY8EASCKH4FxkUTgAGo7GJedgJBFr+CEwQTUPtSiDkMoBAUsY68CdggfhWkSyYAA1BZxbxsBGwSv4LkignAAFRGMS8LARvFr0C5YAIwAJVNzEtOwGbxK1ilNgG13ULNYQCFIon1+CKQvm6/0QU8Zzw8RtBlvHxtoISN/ZpARVXlOSXcPc9NwQA88aCyGARI/M2NzWYX8CTxjzqsGLtR0HX6MYFkNDZn7CVjv1DQHRjmymAAwwSHlw2PgIviVySUCZxa+yW1KNf8mMTybV/JVVnK5TCAUtJmvi16z2/c888eI463oOcfmtJtvX1iU/eeoYsPen6IGLFT+LwVozkMoBhUsc6DCFDPv+z5JnrPf+JBlRkLUpfupmH/6OAP+zN2O/UwGdsrbprSKqKdu1LPPe5aVi9Z2e5RX7IqGEDJUPPdEIeef0uyT0y91Ej8PSeNP+kieTQMyFL2CQZQ9hS4vQMkftnzm53wmy2H/Rb2/CT+ein+yFptz99TUV1x9qqmVauCknUYQFAy4eB+ZIjf+B97bMPQu7lPkPg7O7Rv6WMk/mQk+dlwYizWa2AAxSLLfL1cxE/DfgPxJ46sOnpi0MRPhygMgCigFJQAB/FvlWf76y9rFZ3t2p4/ceSxR03cHN20vKCQC7QyGECBQGI1gwS4iP+Wy9vE2ja9+CuPqZy0ubtn2SCd4N3DAIKXE2v3iIP4t/XuEyT+jpU7dHlKVh5X+c+x9bGPdQ119cWshwEUky6jdfMRf6swEP+WcHX4W7F1sZagHwIwgKBnyIL94yD+Hdv2iWlXtIl2fc9P4p8cj8SXWJA6AQOwIUsB3kcu4qdhf+vn23WZ6A1Vhb5pi/gpGBgAUUAZFgGI/wBs20j8iWjijwcszfNJsV8OAyg2YUfXz0H8O7fvEw1y2G/Q82+rqDnqX6T4m21LNwzAtowFYH85iH/Xzn4x/ap2seoz7bA/Jf5kV8+iAKTG9y7AAHwj4/0CLuKfdmWbWLFsmy7ZVoufgoMBEAUUIwIQ/wGYdoarwucWs+c/YGtFegIDKBJY11bLQfy7d/WL237RbtLzk/i/HY/G/8/2PMMAbM9gCfafjfivbheffrRVR9QZ8VOgMACigJKTAAfx79kte34p/uUf8hI/JR0GQBRQshLgIv5b5bDfQPy7K6orvleqYX/WhBRhIQygCFBdWCUH8e/dMyB+fW2HMBP/UeclI8m3XMhtZgwwgEwaeJwiwEb813WIj5t7UzF73Mmen8Tf8z8ebaytggFYm7ri7DgL8e+VPb8Uf0vTFh3EvRVVlf+ejLgpfgoeBkAUUFIEOIi/r29A3HF9hzARf7gmXJeMxt5IwSnhXSk3BQMoJe0Ab4uL+O/85WqxdJG+55fi/368K/5agFNWkF1jbQD0/2yh6tDFkuSzsjw85utjviHn7KaMP+3QX73X0j/toJ6fxL9k4WZdfvemxf+qrqEL9WwN4OS6M/+mZU7Lu4lI4hGZSPqjhimtH7Z+IJN/k3zOZqKe3/W/6/Ih/r5QVehC2fOzED8d5CwNgMS/onEhndX9J4KQWWTyb5Wjgpszl7n6mMTv+p927Ns3IO6pXyMMev6+UE3oPxLRxIvlzHept83OANLip89zcw735ahgmjwY6kudjFJuLz3sXyC3qR/2W/qPPST+mVPXiKZ3kzJMz2lQ/F2JFzxbOVjJygDS4qee/wxdLhNdiemujgSo55fD/vckA6fFf2/9WhPx91dUV/5Q5pud+GX++VwTMEP8OXt+ApJZUiOB6pBTbwdI/Olhv7Pi7+8fELNuWSsWvZPITGe2x/3hqvCPkpHYvGyVHJaxGAGkxf+WTKix+GXb1JSIJJx5O5AW/0IZmPPi/+BtM/HHo/GnJY9ATOXYCecNIC1+o2F/rgTI4aH1bwfS4qf3/CfmipOWH1ExUsyw9D3/QL8Q909bK95/C+KnXJoUpw1g/HfGHy7P9mt7/hEjDtGysnkkwOGEH4n/vmlrxII3DcRfE/4x955fHfDOGgD1/E3zm96UgXqe8Dv00BGiftYo8e0LjpZNvScbRwLU87t+wo/E/9vbOk3EP1BRVXmZ/Kj3Se9M86l10gBI/LLnp2G/53t+Ev+Nd58gvjbuCHHxNTVmJkDnBCw5MUjid/2E38CAEA/9ulO8+1pMp1oS/6XJaGyOrmE56su1TecMYDjiV/BdMgEu4p8txf/OKxC/Oob9zp0ygLT4te/5M3v+ocBcMAFO4v/fl7XiF+Hq8JXo+Yce6YPPnTGADPGfMRha9nsv8atX2GwCHMRPeXrk7i5hKP4r4pH4g/QalIMJOGEAhRS/QmSjCXAR/5y7usSbL2xSqco5p57fBvHnDKAEFdYbQDHEr7jbZAJcxE89v4n4Q1Whq6X4H1C5xDw7AasNoJjiV7hsMAEu4n/snoh443l9zx+qqbwuEU3cq3KIeW4C1hqAP/GPSn3UlxuDd02QTYCL+J+4LyLmz9vonShZW1FdeX2iK3a3fIjJgICVBuBf/F8yQOHdJIgmwEX8T0rxv/qMifjDNyQjsbu8Mxms2nLvjXUGUA7xqyQFyQS4iP+p+6PiFQPxh2vC9clI/E6VK8zNCFhlAOUUv8IZBBPgIv55D3eLl5/eoNDnnJP4413xW3M2QEVOAtYYQBDEryiW0wQ4if+FR9cr5DnnoerQLRB/TjzaCisMIEjiV0TLYQIQv6I/OCfxJyKJ6YPP7LsPwh4H3gCCKH6VuFKaAMSvqA/OK2rCt0P8gyzyuQ+0AQRZ/Ap6KUyAi/h///h6YTLsJ/Enu+KsLt+ujrdCzwNrADaIXyWjmCbARfwvPrlBzH2oWyHNOQ9Xh38D8efE47sikAZgk/gV8WKYACfxP/NgVKH0mt8Zj8Rv9GpgS11Q9jNwBmCj+FUyC2kCXMT/0lMbhKH475Gcb5AFUwEJBMoAbBa/ykkhTICL+F97dqN4+gGjnn+W5HutLJgKTCAwBpC+gOfbMj7v3/N/cYT41Uz6bn/+X++V2yrK5MsEakL1mTvB4QKeFO9rczeKx2dF6KGu3CcbXC3LgCyYCkwgMAbQNL/pURnbeFlyTodK8d90zyhxam1wxa923tgEuhLTwzXhqfQ6En9zY/MC+Vh/3f6Hx4jjRx8mm9o30Y96Hr/XWPy/kBE6JX4ZT2CmQBjA35128pclkTpZck5K/F89PfjiV0GYmkC8Kz4jVB26Ky1+/XX7Sfyj7BT/689tEvSzXsXIY05X8YH4PQAVoioQBjDyr/YcK4PxvDj/GZMqhE3il/GkJlMTSEQS9B7XafHThTwendmV4qK5e0jWXykLen4JoZhTIAxADIh2GeROWXJO770RN/qSSM4VlLHC1AS8dvEv/9hjac//1os9gq7m4xVjuo4u2/0z+RjilxCKPQXCANqXtPeGq8LaX3PRr8NMvilWbGjDWX8+JpASPw37LX3P//ZLPeJ3d6wTdA1/DTsS/6WyjbPil7EFagqEARCReDR+u5zTZ71ylnviZgIp8dN/9Vna8/9hfkyKv8tE/E+IBnGZEHI8KO8wlYZAYAwgHe41ck6f+cpZ7omLCfxF/Jb2/CT+3966TvT3azt0Ev/FokH0C9xKSiBoBkDB05lf9iMB28VP52wMxf+MaBAQvyjPLYgGQCTojPh99MCruDoSsF38C96Miwemd5r0/HPr6up+JJj0/CKAt6AawIBkRSMBIxOgn5HK9tZNdGLw/J8cI0aM2P8J6DE1XxS3/u4ka7/kQ+K/f5qx+H/Y2Ni4z7rEObTDQTUAQmxsAvQz0t8/pr98FK00aOXCKceKR17/B/HLO0eJGfJk34ONfy+OO+Gvg7abRvvz/lsJYSj+ebLnh/iNqBa3UZANgCI3N4HZ3dZ+T6Dybw8VtWcdKU457XAxcuT+0QABsKWQ+GfdstZk2N8oxf9f6PmD0m03OwAACUNJREFUkdmgGwBRMjYBm88JUKC2lqY/JIWh+F8ae8nYiziKP6i5tcEAiB1MgCgEsCx+LylmTl1j0vOT+C9omdOyN4BhsN0lWwyAEgQTIAoBKiT+u3+1Ruzro9R47hjE74mnfJU2GQBRoiPN+NMBW782TIEGvfgQ/xsn1518IXr+YGbUNgMgisoEtH/9jHMChKvw5cMPNouZNxn1/CT+761oXLGn8HthzxqDvKc2GgDxJBP4uXwAE5AQSjktXbRF3HnDatG3l1LguWWI3xNPMCptNQCiR0cgTIBIlKiQ+O+4vkPs1Yv/bTnsR89forzksxmbDYDi9mUCtn5ZiAItd2lp2iIMxf/Omf995ncx7C93xsy2b7sBUJTGJjB3drew9WvDFGi5yrLmXvGb61ab9Pzv1NbVnrvwyYW7BG4pAkG/c8EAiLG5CTwEEyBgpuWTJb3i9ms6xJ492l/qpsTf3NjseWUn0+2iXWkIuGIARAsmQBQKWEj8t11tJP6Fp/znKedB/AWEX6JVuWQAhAwmQBQKUD5r2Spuv1aKf7e25yfxn/PpM59uL8BmsYoSE3DNAAgfTIAo5FFI/DOuahe7d2rF/77s+SH+HKxtWOyiARB3Xybw8lMb6DUokoAP8S+S4v9X9PwSmsWTqwZAKTE2gaceiAqYgBArPtkmDHv+xeO/Mx7ip6PM8uKyAVBqYAJEwaCsXL5NTL/SaNhP4v9m0/ymrQarRZOAE3DdAAi/MgH6qyl6nrNwHQmQ+Kdd0S527tBenatZ9vwQf84jaH+FLY84GADlgkyA/moKJkA0Msqf5Ml76vkNxP/h6RedDvFnsHPhIRcDoFzBBIhCRmn9fLuYdkWb2LFd2/N/9NVzz5y8ZO6S3oyX46EDBDgZAKULJkAUZGlfsV00/MxY/JM+eXXhZvkyTI4R4GYAlD72JkDiv/nyNrF9q1HPD/HTUeOj2NSUowFQfnyZwCtPu/M9AR/i/6S2rnYyen46XNwtXA2AMmpsAk/eHxUumMCaVTtEgzzbb9DzLx97wdhJzY3NCQKF4i4BzgZAWWVjAmvbdor6n7aJrVv6KG6vQuKf2PJcS8yrEercIMDdACiLzptASvyXtZqI/3PZ80P8dFQMs9j2MhjAYMaUCcwZfJr73ra3A+tW7xL1Uvy9m7U9/4px3x13Fnr+3Ll3sQYGsD+rZAKXyqfOmEAXif/SVmEo/gmLX1m8ScaPiREBGMCByXbGBEj8U6X4Nye0f8Sz8rS6086G+A88ELg8gwEcnGnrTSCyZnDYbyD+1lN/MH7i0sal7nzOeXA+S7bExg3BALJnzVoTiHZK8f+0VSTj2p6fxD9h2fNN3dkRYCkHAjCA3Fm2zgS61+0WNOxP9OjFX1tXexbEnzv5XGpgAN6ZtsYEUuKfskoYiL+NxN/c2Bz1Dh21HAjAAPRZDrwJpMQvT/jF9T3/mrF14ydC/Pqk+21ha3sYgFnm/JnAMxvN1lqAVhu7d4ubL28V8U17dGsj8Z/Z0ti0TtcQ9XwIwADMc21uAvdFxKslMAES/01TWkXPer34Tz1v3ASI3zzZXFrCAPxl2tgEniiyCfgV/7KXF3f6CxWtORCAAfjPctlNwIf4u8aeP24SxO8/yX5eYXNbGMDwsqdM4BHdyws9Eoht3CNuvqzNZNhP4p/Q8sLiDt0+op4vARjA8HNPJjBFvrxkJkDinyrf82+I7pab9ZyiX5Of80P8noxQKQnAACSEPKaSmYAS//qIVvzrTzj9KxM+bmxuzyMuvJQJARhA/on2ZQKvPev/I8JEbK+ol5/zm4i/8tjKCauXrGzLPyyswYSA7W1gAIXJoLEJPD4rIvyYQFKKn4b93V3ann8DiT/WHVtVmJCwFg4EYACFy7IvE5g/Tz8SSIlf9vz0Ax/Nbm4IHx8+C+LXUEL1QQRgAAchyWuBsQk8dk9EvP5c7utvbI7vTf2wJ7J2l26HekLHhSbGO+MrdQ1RDwJDCcAAhhLJ/7mxCTw6syurCWxJ9qUu4Gki/orqirMT6xKf57/bWINfAi60hwEUJ4vDNoGU+OWwf13HTt2e9ZD4k5HkZ7qGqAeBXARgALnI5L/ctwnQtfvoAp6devEnjqw6ehLEn3+SuK8BBlDcI2BANAi60OhjQnOjtwNXXbhSdLZre34S/1mbo5uWa1aJahDQEoABaBHl2aBB9Ms1/EQW7TcGDX7Sm6g8pnISxC9plnlyZfMwgNJk0ngk4LE7KfHH1sc+9miDKhDwRQAG4AtXHo1pJNAgLpFr0L4dkG2GTlsqayonQ/xDseB5vgRgAPkS9PP64ZnAlnB1eHKsK/aRn02hLQiYEIABmFAqZJv9JvCEwWp7SfzxSHyJQVs0KREBlzYDAyhHNgdN4GK5aa+3A72hqtBkiF9SwlQ0AjCAoqHVrHjQBOicQLaRQG9FzVHnJKKJP2rWgmoQyIsADCAvfHm+mExAiB/LYf7P5Zr+Xxb6hdD80aeNHpfs6lkkn2MCgaISgAEUFa/RygfkMP9+2fIfZfmyLP/WvrQd3+2XIII4ubZPMADXMop4QMAHARiAD1hoCgKuEYABuJZRxAMCPgjAAHzAQlPeBFyMHgbgYlYREwgYEoABGIJCMxBwkQAMwMWsIiYQMCQAAzAEhWa8CbgaPQzA1cwiLhAwIAADMICEJiDgKgEYgKuZRVwgYEAABmAACU14E3A5ehiAy9lFbCCgIQAD0ABCNQi4TAAG4HJ2ERsIaAjAADSAUM2bgOvRwwBczzDiAwEPAjAADzioAgHXCcAAXM8w4gMBDwIwAA84qOJNgEP0MAAOWUaMIJCDAAwgBxgsBgEOBGAAHLKMGEEgBwEYQA4wWMybAJfoYQBcMo04QSALARhAFihYBAJcCMAAuGQacYJAFgIwgCxQsIg3AU7RwwA4ZRuxgsAQAjCAIUDwFAQ4EYABcMo2YgWBIQRgAEOA4ClvAtyihwFwyzjiBYEMAjCADBh4CALcCMAAuGUc8YJABgEYQAYMPORNgGP0MACOWUfMIJAmAANIg8AMBDgSgAFwzDpiBoE0ARhAGgRmvAlwjR4GwDXziBsEJAEYgISACQS4EoABcM084gYBSQAGICFg4k2Ac/QwAM7ZR+zsCcAA2B8CAMCZAAyAc/YRO3sCMAD2hwBvANyj/zMAAAD//2CcHd8AAAAGSURBVAMAFp3Sl+u+6fQAAAAASUVORK5CYII=;" parent="1hwrONYSXB4-MrkfCRai-1" vertex="1">
          <mxGeometry x="520" y="270" width="30" height="30" as="geometry" />
        </mxCell>
      </root>
    </mxGraphModel>
  </diagram>
  <diagram name="paso_3" id="cpTawzTGBV0oB_ExKHTk">
    <mxGraphModel dx="1370" dy="843" grid="1" gridSize="10" guides="1" tooltips="1" connect="1" arrows="1" fold="1" page="1" pageScale="1" pageWidth="850" pageHeight="1100" math="0" shadow="0">
      <root>
        <mxCell id="0P-s4n62RT1S-geth16b-0" />
        <mxCell id="0P-s4n62RT1S-geth16b-1" parent="0P-s4n62RT1S-geth16b-0" />
        <mxCell id="0P-s4n62RT1S-geth16b-2" value="&lt;font style=&quot;font-size: 36px;&quot; face=&quot;Cascadia Code&quot; color=&quot;#4d4d4d&quot;&gt;21&lt;/font&gt;" style="rounded=0;whiteSpace=wrap;html=1;strokeWidth=1;fillColor=#DFEAF2;" parent="0P-s4n62RT1S-geth16b-1" vertex="1">
          <mxGeometry x="280" y="320" width="80" height="80" as="geometry" />
        </mxCell>
        <mxCell id="0P-s4n62RT1S-geth16b-3" value="&lt;span style=&quot;color: rgb(77, 77, 77); font-family: &amp;quot;Cascadia Code&amp;quot;; font-size: 40px;&quot;&gt;38&lt;/span&gt;" style="rounded=0;whiteSpace=wrap;html=1;strokeWidth=1;fillColor=#DFEAF2;" parent="0P-s4n62RT1S-geth16b-1" vertex="1">
          <mxGeometry x="360" y="320" width="80" height="80" as="geometry" />
        </mxCell>
        <mxCell id="0P-s4n62RT1S-geth16b-4" value="&lt;font face=&quot;Cascadia Code&quot; color=&quot;#4d4d4d&quot;&gt;&lt;span style=&quot;font-size: 40px;&quot;&gt;95&lt;/span&gt;&lt;/font&gt;" style="rounded=0;whiteSpace=wrap;html=1;strokeWidth=1;fillColor=#DFEAF2;" parent="0P-s4n62RT1S-geth16b-1" vertex="1">
          <mxGeometry x="440" y="320" width="80" height="80" as="geometry" />
        </mxCell>
        <mxCell id="0P-s4n62RT1S-geth16b-5" value="&lt;span style=&quot;color: rgb(77, 77, 77); font-family: &amp;quot;Cascadia Code&amp;quot;;&quot;&gt;&lt;font style=&quot;font-size: 36px;&quot;&gt;6&lt;/font&gt;&lt;/span&gt;" style="rounded=0;whiteSpace=wrap;html=1;strokeWidth=1;fillColor=#DFEAF2;" parent="0P-s4n62RT1S-geth16b-1" vertex="1">
          <mxGeometry x="200" y="320" width="80" height="80" as="geometry" />
        </mxCell>
        <mxCell id="SDENf7GAz3P2otr8NmVN-0" value="" style="endArrow=classic;html=1;rounded=0;strokeWidth=2;strokeColor=#4D4D4D;" parent="0P-s4n62RT1S-geth16b-1" edge="1">
          <mxGeometry width="50" height="50" relative="1" as="geometry">
            <mxPoint x="360" y="250" as="sourcePoint" />
            <mxPoint x="360" y="310" as="targetPoint" />
          </mxGeometry>
        </mxCell>
        <mxCell id="SDENf7GAz3P2otr8NmVN-2" value="Insertar aquí" style="text;html=1;align=center;verticalAlign=middle;whiteSpace=wrap;rounded=0;fontSize=24;fontColor=#4D4D4D;" parent="0P-s4n62RT1S-geth16b-1" vertex="1">
          <mxGeometry x="280" y="200" width="160" height="40" as="geometry" />
        </mxCell>
      </root>
    </mxGraphModel>
  </diagram>
  <diagram name="paso_4" id="XO9O-mkCTWNFuwCzLxIq">
    <mxGraphModel dx="1370" dy="843" grid="1" gridSize="10" guides="1" tooltips="1" connect="1" arrows="1" fold="1" page="1" pageScale="1" pageWidth="850" pageHeight="1100" math="0" shadow="0">
      <root>
        <mxCell id="6csktdJ5veV7fC9ITd33-0" />
        <mxCell id="6csktdJ5veV7fC9ITd33-1" parent="6csktdJ5veV7fC9ITd33-0" />
        <mxCell id="6csktdJ5veV7fC9ITd33-2" value="&lt;font style=&quot;font-size: 36px;&quot; face=&quot;Cascadia Code&quot; color=&quot;#4d4d4d&quot;&gt;21&lt;/font&gt;" style="rounded=0;whiteSpace=wrap;html=1;strokeWidth=1;fillColor=#DFEAF2;" parent="6csktdJ5veV7fC9ITd33-1" vertex="1">
          <mxGeometry x="280" y="320" width="80" height="80" as="geometry" />
        </mxCell>
        <mxCell id="6csktdJ5veV7fC9ITd33-3" value="&lt;span style=&quot;color: rgb(77, 77, 77); font-family: &amp;quot;Cascadia Code&amp;quot;; font-size: 40px;&quot;&gt;38&lt;/span&gt;" style="rounded=0;whiteSpace=wrap;html=1;strokeWidth=1;fillColor=#DFEAF2;" parent="6csktdJ5veV7fC9ITd33-1" vertex="1">
          <mxGeometry x="360" y="320" width="80" height="80" as="geometry" />
        </mxCell>
        <mxCell id="6csktdJ5veV7fC9ITd33-4" value="&lt;font face=&quot;Cascadia Code&quot; color=&quot;#4d4d4d&quot;&gt;&lt;span style=&quot;font-size: 40px;&quot;&gt;95&lt;/span&gt;&lt;/font&gt;" style="rounded=0;whiteSpace=wrap;html=1;strokeWidth=1;fillColor=#DFEAF2;" parent="6csktdJ5veV7fC9ITd33-1" vertex="1">
          <mxGeometry x="440" y="320" width="80" height="80" as="geometry" />
        </mxCell>
        <mxCell id="6csktdJ5veV7fC9ITd33-5" value="&lt;span style=&quot;color: rgb(77, 77, 77); font-family: &amp;quot;Cascadia Code&amp;quot;;&quot;&gt;&lt;font style=&quot;font-size: 36px;&quot;&gt;6&lt;/font&gt;&lt;/span&gt;" style="rounded=0;whiteSpace=wrap;html=1;strokeWidth=1;fillColor=#DFEAF2;" parent="6csktdJ5veV7fC9ITd33-1" vertex="1">
          <mxGeometry x="200" y="320" width="80" height="80" as="geometry" />
        </mxCell>
        <mxCell id="xJ5Kr90p5ZI-lQD4aYjA-0" value="" style="rounded=0;whiteSpace=wrap;html=1;strokeWidth=1;" parent="6csktdJ5veV7fC9ITd33-1" vertex="1">
          <mxGeometry x="520" y="320" width="80" height="80" as="geometry" />
        </mxCell>
        <mxCell id="xJ5Kr90p5ZI-lQD4aYjA-1" value="" style="shape=image;verticalLabelPosition=bottom;labelBackgroundColor=default;verticalAlign=top;aspect=fixed;imageAspect=0;image=data:image/png,iVBORw0KGgoAAAANSUhEUgAAAgAAAAIACAYAAAD0eNT6AAAACXBIWXMAAA7DAAAOwwHHb6hkAAAAGXRFWHRTb2Z0d2FyZQB3d3cuaW5rc2NhcGUub3Jnm+48GgAAIABJREFUeJzt3XmcXFWd9/Hv71Y13WFTxAUiChjo6oBDNAHEQSUqEjtdt5Lg9KA4ijNqxg119HEZR512m3F51JHRUTM6LrgNJSSpqk4bjNIqCGLC4hJSlSCLQABBNB1Id1J9z/NHGh7AhHT6nlu3ls/7H3klXd/ze9HS99fnnHuO6WGWL1/edccdd7zGzN4s6SRJ9rC/vt7Mvrxt27b/Hh0drQsAALSshx7wYRgeK+l/JZ2yj89cK2lpuVy+NcnCAABAckyS8vn8U83scknHTOtDZrdJek6pVLojwdoAAEBCAkkys//RNB/+kuScO8o5962kigIAAMkKwjA8S9JZM/jsC6c+CwAAWkwg6bwYn4/zWQAAkJJA0qkxPn+Gr0IAAEDjBJJmx/j8UxctWvQEX8UAAIDGCCRNxAno7u6e66kWAADQIIGZ3RInwDnX56sYAADQGIFz7oaYGcwAAADQYgIzi9sAnOilEgAA0DBBFEVxG4D5XioBAAAN42MG4MmFQiHOmwQAAKDBgp6enk2SHoiZ82wfxQAAgMYIisXipKTfxgmJoogGAACAFhJM/e81cULMjAYAAIAW8mADcG3MHBoAAABaSCBJzrm4DcAxHAkMAEDrCCRp1qxZv5ZUj5Fj3d3d8/yUBAAAkhZIUrFY3CGpGjOL8wAAAGgRwcP+OdZGQLEPAACAlvHwBiDWPgDnHA0AAAAt4qEGwMNGwFwYhgfGzAAAAA3wUAOQzWavk+RiZGWiKFoQvyQAAJC0hxqAVatW/UnSzXHCzOy0uAUBAIDkPXwPgMxsQ5wwM3tOvHIAAEAjPKIBcM79Imbec2N+HgAANMAjGoAoiuI2ALP7+/uPipkBAAAS9ogG4MADD1wvaVecwEwmwz4AAACa3CMagKkTAX8dJ5B9AAAANL9gD392VcxMZgAAAGhyf9EAeNgIuGBwcPCAmBkAACBBf9EARFEUdwZg1o4dOzgQCACAJvYXDcCaNWs2S7o3VmgQPD/O5wEAQLL2tAfASYq1DOCcowEAAKCJ7akBkJldHjP39KGhoT1mAwCA9O3xIT05ORm3ATjs2muvPTFmBgAASMgeG4Aoiq6WNB4nOIoilgEAAGhSe2wARkZGJiStjxPMPgAAAJrXXtfpnXM/ixNsZjQAAAA0qb02AGYWqwGQ9NQwDI+NmQEAABKw1wagp6fn55Im44Sb2QvifB4AACRjrw1AsVj8s6TfxAl3zr0wzucBAEAyHvNd/bj7ACSdGfPzAAAgAY/ZAPjYB7B48eLemBkAAMCzx2wAstnsqHYfDTzzAYLgRXE+DwAA/HvMBmDlypV3S/ptnAHMjH0AAAA0mX2e1++c+1HMMV7MvQAAADSXfT6YzeyymGMcvn79+r+KmQEAADzaZwPQ09MzqvjnAbAPAACAJrLPBmDqPIBrYo5DAwAAQBOZ7tp83H0AZyxfvrwrZgYAAPBkug1A3H0Ah2zdunVBzAwAAODJdBuAyyVNxBnIzF4S5/MAAMCfaTUA5XL5AUlXxRnIObcozucBAIA/034/3zkXdxngtEWLFj0hZgYAAPBg2g2AmcXdCJg54IADuBwIAIAmMO0GYGxs7CpJf44zGMsAAAA0h2k3AKOjo3XFfB3QzPolWZwMAAAQ336d0e+c+0HM8Y4sFAocCwwAQMr2qwGYnJwc8TDmSz1kAACAGParARgZGblNMa8Hds7RAAAAkLKZXNMbdxngef39/YfGzAAAADHsdwNgZmtjjtmVzWZfGDMDAADEsN8NwK5du34qaXvMcXkdEACAFO13AzAyMjIh6Scxx+2P+XkAABDDTPYASFLcZYBjBgYGnhkzAwAAzNCMGgAP5wEoCIJC3AwAADAzM2oAKpXKZkk3xhybBgAAgJTMdAlAzrm4hwKdcvbZZx8ZMwMAAMzAjBuAIAiG445dr9fDmBkAAGAGZtwA7Nq16zJJY3EGd87RAAAAkIIZNwAjIyMTHg4FekmhUDgkZgYAANhPM24AJMk5V4o5fncURWfGzAAAAPspVgOwc+fOYUn1OBlmxtsAAAA0WKwGYO3atX+UdEXMGsLBwcFMzAwAALAfYjUAkpdlgMPHx8efG7cOAAAwfbEbgGw2uzpuBssAAAA0VuwGYNWqVTdK2hgnwzm3LG4dAABg+mI3AFPiLgMcVygUcl4qAQAA++SlAfCwD0DOuZf5qAUAAOyblwbg5JNP/oWkO+NkmNmgj1oAAMC+ma+gMAy/Ium1cTLMrK9UKlU9lQQAAPbC1x4AmRnLAAAAtAhvDYBzbp2k+2PG/I2PWgAAwGPz1gCUy+UHJMW9IvjZ+Xz+eB/1AACAvfPWAEiSc64YNyMIAmYBAABImNcGwMzWKOYygHOOtwEAAEiY1wZgahlgTcwYlgEAAEiY1wZAksyMZQAAAJqc9wbAOTcslgEAAGhq3hsAX8sAhULhOB/1AACAv+S9AZD8LANIYhYAAICEJNIAsAwAAEBzS6QBKJfLD5jZSMwYlgEAAEhIIg2A5OdQIEmv8JABAAAeJbEGQFJF8ZcBXiWPNxYCAIDdEmsAPC0DHJ/P50/xUhAAAHhIkjMAXpYBzOzvfNQCAAD+v0QbgImJiWFJD8SMefny5cu7fNQDAAB2S7QBuPTSS+93zpVixjzpzjvvPMtLQQAAQFLCDYAkBUHwrbgZURSxDAAAgEeJNwDbtm1bK+muOBlmtnRwcPBxnkoCAKDjJd4AjI6O1iX9b8yYnh07dpztox4AANCABmBK7GUA3gYAAMCfhh2yE4bhDZL6YkREQRAcs3r16t/7qgkAgE7VqBkAOee+HTMicM5xNDAAAB40rAGIouhCSS5OhnPuPE/lAADQ0RrWAKxZs+YWSVfEjDkhn8/P81EPAACdrGENwBQ2AwIA0AQa2gBEUXSRpImYMecODg5mfNQDAECnamgDMDw8fJ+k4ZgxsycmJl7qox4AADpVo5cA5JyLvQzgnHudj1oAAOhUDW8AZs2aNSzp3pgx+UKhMNtHPQAAdKKGNwDFYnGnpO/HjMlK4pVAAABmqOENwBQvywBDQ0Np1Q8AQEtL5QFaLpevkLQ5ZswzNmzYsNBDOQAAdJy0foN2kv7HQw6bAQEAmIHUptDN7GuSdsWMeVkYhk/0UQ8AAJ0ktQagVCrdZWaVmDEHmNkrvRQEAEAHSXsT3VfjBjjn/tFHIQAAdJJUG4D58+ePSLo1ZszcMAxP81EPAACdItUGYGhoKJL09bg5zrnXx68GAIDOkfYSgIIg+IqkyTgZZnZOf3//oZ5KAgCg7aXeAKxevfr3ZrYuZsxBXV1dL/dSEAAAHSD1BkCSoij6StwMLggCAGD6mqIBmDVrVknS3TFjTikUCs/2UQ8AAO2uKRqAqQuCvhk3h82AAABMT1M0AJJkZl/R7iOC4zhvYGDgMB/1AADQzpqmASiVSlUzuzxmzIFBEHBNMAAA+9A0DYDkZzOgpLdwTTAAAI+tqR6Us2bNKkq6L2bMnPXr17/URz0AALSrpmoAisXiDknfjZtjZud7KAcAgLbVVA2AJDnnVniIWbR48eJeDzkAALSlpmsAKpXK9ZJ+GjPGMpnMm33UAwBAO2q6BkCSnHP/6SHm77kfAACAPWvKBmD79u2rJP0+ZswhXV1dr/ZRDwAA7aYpG4DR0dG6pC/FzXHOvZVXAgEA+EvN/HBcIWk8ZsbxGzZsONNHMQAAtJOmbQDK5fI9kv7XQxSvBAIA8ChN2wBIkpl9zkPMAK8EAgDwSE3dAJRKpWudcz+PGWPZbPYfvRQEAECbaOoGQJKCIIj9SqBz7h8GBwcP9lEPAADtoOkbgCOOOOJiSbfHjHn8jh07/s5HPQAAtIOmbwBWrFixS7vfCIjFzN4iyeJXBABA62v6BkCSstnslyRNxIw5MQxDbgkEAEAt0gCsXLnybjP7voeod3rIAACg5bVEAyBJk5OTn/UQ8+IwDOd7yAEAoKW1TAMwPDy8QdLVcXPM7B0eygEAoKW1TAMgSWbm45XAc8IwfLqPegAAaFUt1QB0d3dfJOnOmDFZSW/1UA4AAC2rpRqAYrG40zkX+5ZASa8fHBx8nIccAABaUks1AJLU1dX1eUn3x4w5dGJiguOBAQAdq+UagJUrV95rZhfGzXHOvXVwcPAAHzUBANBqWq4BkKQoij4jKYoZ89SJiQmOBwYAdKSWbAAqlcpmSaW4Oc659w0ODmY8lAQAQEtpyQZgyqc9ZMzZsWPHMg85AAC0lJZtAMrl8uWSroybEwTBv4hLggAAHaZlG4ApsWcBnHPPGhgYOMtHMQAAtIqWbgAWLFiwUtKWuDlBEPyzh3IAAGgZLb0BbnR01OVyuUlJAzGjjunt7b20Vqvd5qMuAACaXUvPAEjS2NjY/0jaGjfHzJgFAAB0jJZvAEZHR8clfc5DVL5QKJzkIQcAgKbX8g2AJNXr9S9K+lPMGHPO/YuPegAAaHYtvQfgQVu2bJno7e19nJk9P2bU3OOPP/6SzZs33+2lMAAAmlRbzABIUldX139IeiBmTBAEwft81AMAQDNrixkASdq0adP9vb29R5rZqTGjTsjlchfVarV7vBQGAEATapsZAEnKZDKflLQzbowkZgEAAG2tbWYAJKlarW7r6+s7XtK8mFHPPO644763efPme33UBQBAs2mrGQBJmpyc/LjiXxWcyWQynAsAAGhbbdcADA8P3yDp+x6iXpXP54/3kAMAQNNpuwZAkoIg+Kg8zAJIeq+HcgAAaDptew1uGIYXSzo7ZsykmZ1YKpWqPmoCAKBZtOUMgCQ55z4sycWMyTjn3u+jHgAAmknbNgCVSuV6SSUPUedyRwAAoN20bQMgSWb2IcWfBQgkfcBDOQAANI223QPwoDAMy5LyMWOcmS0olUrX+qgJAIC0tfUMgCRFUTSk+LMA5pz7kIdyAABoCm3fAAwPD2+Q9AMPUWEYhqd5yAEAIHVt3wBIUhRFH1D8WQBJ+rCHDAAAUtdWdwHszebNm7f29vbON7NczKg5uVxutFar3eKlMAAAUtIRMwCSlMlk3q/4pwNK0ifVAZsnAQDtrSNmACSpWq3encvlTpR0Ysyop/b29l5fq9U2+agLAIA0dMwMgCRNTk5+QFI9bo6Z/fvChQuzHkoCACAVHdUArFmzpibpux6icocccshrPOQAAJCKjmoAJCmTyXxQ0k4PUR8Kw/BADzkAADRcxzUAq1atutk59w0PUbMlne8hBwCAhuu4BkCSzOyjkiY8RL132bJlh3vIAQCgoTqyASiXy7dK+rKHqMdPTk6+x0MOAAAN1ZENgCRls9mPSRqLm+OcO3/JkiVP81ASAAAN07ENwMqVK+92zn3aQ1SPc+6jHnIAAGiYjm0AJGnWrFmflnRn3Bzn3KsKhcLJHkoCAKAhOroBKBaL283sYx6izDn3fz3kAADQEB3dAEjSEUcc8WVJWzxEnZHP55d5yAEAIHFcaiMpDMNXSPqOh6jf1ev1E0ZGRny8YggAQGI6fgZAksrl8vfMbIOHqGdks9k3esgBACBRNAC7Oefc+zxlfZDDgQAAzY4GYEq5XL5U0o88RB1Wr9ff7yEHAIDE0AA8jHPunZIiD1FvXrx4ca+HHAAAEkED8DCVSuV6ST4uCurKZDKf9JADAEAiaAAexczeL+l+D1FLwjDs95ADAIB3mbQLaDbVanWst7e3y8wWeog7dc6cOSu2bNky6SELAABvmAHYg1mzZn1S0u89RB3f1dX1Fg85AAB4xUFAexGG4Wskfc1D1FhXV1fukksu2eohCwAAL5gB2IsFCxZ8U9J6D1GH7Nq1y8d9AwAAeMMMwGMIw/AMSaMeolwQBM9dvXr1LzxkAQAQGzMAj6FcLv9E0moPUeac+8LQ0BD/vgEATYEH0j5MTk6+W9LOuDnOuQXr168/z0NJAADExmuA+7B58+Z7e3t7DzGz0+NmmdlpJ5xwwlc2bdo07qM2AABmihmAaQiC4KOS7vAQ9ZR6vf4RDzkAAMTCDMA0VKvVnb29vfeY2bK4WWZ28ty5c9dWq9XbfdQGAMBM8BbA9FmhUPiJc+75sYPMNnR3dz+nWCxyQiAAIBUsAUyfc869XR5uC3TOLZiYmFjuoSYAAGaEJYD9UKvVtuZyuadJmu8h7vnPfOYzv3HDDTds95AFAMB+YQZgP2Wz2X+R9CcPUYfu2rXrEx5yAADYb8wA7KdNmzbdn8vlJiS91EPcvFwu97NarXaThywAAKaNGYAZGBsb+7ykX/vIMrMv9vf3d/vIAgBgumgAZmB0dLRuZm+T5OJmOed6u7q63uGhLAAApo3XAGMoFArfcs690kPUDjM7qVQqbfGQBQDAPjEDEM87Jd3nIWeWc+6/RUMGAGgQNgHGUK1W78/lcmOSBjzEHdPX13drtVq91kMWAACPiRmAmBYsWPAlSb/wkeWc+0yhUJjtIwsAgMdCAxDT0NBQFEXRmyX5ONb3cc65z3rIAQDgMbEE4MHmzZu39vX1PVnSqR7iTszlctfVarWqhywAAPaIGQBPdu3a9T75uTJYkv5r6dKlj/eUBQDAX6AB8GRkZGSbpHd5ipsdRdFHPWUBAPAXeO3MszAM10l6sYeoyMxeUCqVrvCQBQDAIzAD4JmZvUHSDg9RgXPuK4ODg7M8ZAEA8AhsAvSsWq3+MZfL1SWd6SHuifV6vbtWq/3QQxYAAA9hBiABY2NjnzazDZ7i3jEwMPB8T1kAAEiiAUjE6OhoPYqi10ra5SEuyGQyLAUAALxiCSAhtVrtrr6+vkMkne4h7vB6vX5grVZb6yELAABmAJLU3d39r5J83fD3tkKh8AJPWQCADsdrgAnL5/MLzezH8vPv+qaenp6TisXidg9ZAIAOxgxAwiqVyqikr3uKO3bHjh0cEAQAiI0GoAF27tz5fyTd5SPLzM4Pw/AMH1kAgM5FA9AAa9eu/aOZne8pLpD01cHBwYM95QEAOhANQIOUSqWipIs8xc0ZHx/n2mAAwIzRADTWm+VpKUDS6/L5/N94ygIAdBgagAYql8v3mNlyX3lm9sXFixcf4SsPANA5aAAarFQqlSR911PcE7PZ7NfF65wAgP1EA5CCbDZ7vqQ7fWQ55xYVCoU3+MgCAHQOfnNMST6fD82s5CnuATObXyqVqp7yAABtjhmAlFQqlbKkb3mKO9A5953BwcEDPOUBANocDUCKMpnM+WZ2m6e4+RMTEx/wlAUAaHMsAaTM81LAZBAEL1i9evXPPeUBANoU1wGnrFar1XK53FGS5nuIC5xzZx177LHfuPHGG3d4yAMAtCmWAJrAxMTE282s5inuaQcccMAKT1kAgDbFDEATuPHGG3flcrmrJP29/HxPTujt7b2rVqut95AFAGhDNABNolqt3pHL5bKSvNz0Z2ZnHnfcccObN2/2ct4AAKC9sATQRMbGxj4i6Ree4noymcxFhULhEE95AIA2QgPQREZHR+uZTOaVksY8RR7vnOPWQADAX2AJoMls2rTpvlwu90dJeU+R83t7e7fUarVfe8oDALQBzgFoUmEYliSFnuK2T05OLlizZo2vNw0AAC2OJYAmVa/XXytPFwZJOjibzXJUMADgITQATWpkZOQPkl4vyfnIc84tGB8f/5SPLABA62MPQBOr1Wq13t7ew8zsNE+Rz+nr67uxWq3+ylMeAKBFMQPQ5CYnJ98j6Rpfec65Ly5ZsuQEX3kAgNZEA9DkRkZGJszsHEnbPEUeHEXRJZwPAACdjQagBZRKpS3OueUeI3NRFHFfAAB0MPYAtIharfbbXC53rKRn+cgzs2fmcrk/1Gq1X/rIAwC0FmYAWsjExMSbJd3gMfI/lixZ8tce8wAALYKDgFrMwMDAM4MguFrSLE+Rv5c0v1wu3+MpDwDQApgBaDHDw8O/MbN3e4x8mqTvDQ4OshwEAB2EH/otqFqtXt3X1zdP0lxPkc+o1+uq1WqjnvIAAE2OGYAWNTk5+VpJv/MY+YF8Pr/MYx4AoImxB6CF5fP5eWZ2pfztB9geRdFzh4eHf+MpDwDQpJgBaGGVSuV659zbPEYeHARBOQzDJ3rMBAA0IfYAtLharXZNLpc7WtKzPUU+3jk3f/bs2d+9+eabI0+ZAIAmwwxAGxgbG3uTPN4XYGZnHnroof/mKw8A0HxoANrA6Ojo+NR9AX/2lemce1cYhq/xlQcAaC5sAmwj+Xw+NLPV8vd9HZf0gnK5zHHBANBm2APQRmq1Wi2Xyx0sydfxvllJi0488cTvbNq06X5PmQCAJsASQJsZGxv7Z0k/9Rj59Hq9XhwcHDzAYyYAIGU0AG1mdHS03tXV9XJJWz3GvmB8fPzLHvMAACljCaAN3XDDDdtzudwVkl6l3dP4Pjwrl8tN1Gq1yz3lAQBSRAPQpmq12m29vb23mpnP431f3NfXV61Wq5wUCAAtjgagjdVqtev7+vqeJOlUT5EmaWDu3LnrqtXq7Z4yAQApYA9Am9u2bdvbJV3mMXJWFEWrwjB8usdMAECD0QC0udHR0Xo2mx2U35sDj5C0ZnBw8HEeMwEADUQD0AFWrlx5r3PubEk+3+U/cXx8/LuDg4MsIwFAC6IB6BCVSuV6SedJch5j+8fHxz/lMQ8A0CD89tZBarXaDb29vQea2ekeY5/b19d3d7VaXe8xEwCQMGYAOszJJ5/8z5LW+Mx0zn2+UCic7TMTAJAsLgPqQP39/Ydms9krJD3TY+wOSWeVy2UOCgKAFkAD0KHCMDxW0lWSnuwx9l5JzyuXy5s8ZgIAEsASQIcql8s3mdnZkiY8xh5uZj9csmTJ0zxmAgASQAPQwUql0hWSXi2PbwY4546KomjN0qVLH+8rEwDgH28BdLharfbbXC6XkXSGx9gnO+dOmzNnzve2bNky6TEXAOAJDQBUq9VG+/r6jpN0ksfYY8zsuHPPPXfl6Oioz7MHAAAesAQASXLbtm17naQrfYaa2cvXr1//7z4zAQB+MAMASdLNN99cP/HEE8tRFA1K8rZ+b2an53K5P9dqtat8ZQIA4uM1QDzCwMDA3CAIfi6PTYB2bzJcXi6Xv+IxEwAQA0sAeITh4eEbJJ0jaZfHWJP0pTAMX+YxEwAQA0sA+Au1Wu3GXC53o6Sz5W+WKJC0NJfLbajVals8ZQIAZogGAHtUq9V+3dfXt1PSiz3GZiQtO/7443+2efPmWz3mAgD2Ew0A9qparV6ey+WeIOk5HmO7zOzsXC53aa1W2+oxFwCwH9gDgMe0YMGCf5J0sefYx0n6wcDAwFzPuQCAaeItAOzTwoULew499NBLnXPP95lrZrcFQfD8VatW3ewzFwCwb8wAYJ9GR0fHu7u7Q0m/8pnrnDtqcnLyh4sXLz7CZy4AYN+YAcC0hWH4dEk/l/RUz9G/kvTicrl8j+dcAMBeMAOAaSuXy7dGUfRSSfd5jj5J0rply5Yd7jkXALAXNADYL8PDw78xs5dJmvAcPa9er186MDBwmOdcAMAe0ABgv5VKpcvM7G8l1T1Hzw+C4EeLFi16gudcAMCjsAcAM1YoFP7OOfcN+W8kr4mi6Mzh4WHfSw0AgCkcBIQZq1arv8rlcvdIGvAcfaSZnTFnzpzili1bfC81AABEA4CYarXaL3O5XF3SizxHHxUEwcK+vr6LqtXqTs/ZANDxaAAQW61W+1lvb++BZna65+inOefO6OvrK9IEAIBfNADwolar/SiXyx0paYHPXDN7mqS/PuaYY4o33nijzyuKAaCj8RYAfHELFix4o6TvJpB9Rnd39w/6+/sPTSAbADoSbwHAq+XLl3dt3br1Ekl539lmtiGTySxauXLlvb6zAaDT0ADAu8HBwVnj4+NrJC30nW1m1+3ateuskZGRP/jOBoBOQgOARIRheKCkYSXQBEja5Jw7s1Kp3J5ANgB0BBoAJOass846qLu7e1jSGQnE3xxF0YuHh4d/l0A2ALQ9GgAkaqoJWCPpBQnE3zo1E7A5gWwAaGu8BYBEXXrppffX6/VQ0i8SiH+6mf1syZIlf5VANgC0NRoAJG5kZGRbT0/PIklXJxD/lCiKfpLP509NIBsA2hZLAGiYgYGBwzKZzA+dc14PC5pyn3NuoFKpXJlANgC0HWYA0DDDw8P3BUFwpqT1CcQfZmbrCoWC74uJAKAt0QCgoVatWvWnTCbzEjPbkED8gc651WEYvi6BbABoK9wFgIbbtGnTeG9v7yWSXirpKZ7jA0lhb2/vA7Va7eeeswGgbbAHAKkZGBg4LAiCEUnPSWiICxYsWPBPQ0NDUUL5ANCyaACQqsHBwYPHx8dLkl6YRL6ZffuII474+xUrVnCTIAA8DA0AUjd1bPAqSS9JIt85ty4IgrNLpdJYEvkA0IpoANAU+vv7u7PZ7PckLU1oiF/W6/UBLhECgN14CwBNYWRkZKKnp+ccSRcnNMQp2Wz2J2EYPj2hfABoKTQAaBrFYnHnVBPw9YSGmCvpqkKhcHJC+QDQMlgCQDOyfD5/gZm9JaH8+yW9slwur04oHwCaHucAoCnVarUf5HK5QyU9N4H4AySd09fXZ9VqdTSBfABoejQAaFq1Wm1tLpc7QNLzE4g3SQt7e3ufOG/evEs3btzoEhgDAJoWDQCaWq1W+3FfX9+92n1qoPclKzM7tV6vnzZnzpzSli1bJnznA0CzYg8AWkKhUDjbOfdtST0JDfFrSflyuXxrQvkA0FRoANAywjB8kaSVkg5NaIitURSFw8PDSVxUBABNhdcA0TLK5fKPzezFku5OaIgjgyD4SaFQKCSUDwBNgz0AaCnVavWO4447rhQEQV7SYQkMcYCkv+3r67u/Wq1emUA+ADQFlgDQkhYvXnxENpsdcc49K6kxnHPfM7PXlsvlB5IaAwDSwhIAWtKaNWvu7O7ufr6kHyY1hpm93MyuWLx48dFJjQEAaWEGAC1t6hKhCyUNJjjMPc65wUqlMprgGADQUOyID1MSAAAcBElEQVQBQEvbsmXL5Lx58y6ZnJw8XNKpCQ1zoJmd29vbe1etVrsmoTEAoKGYAUDbKBQKy51zX5CUTXCYFT09PecXi8WdCY4BAImjAUBbKRQKL3XO/a+SOytAkq4ws5eVSqW7EhwDABJFA4C2UygUTnLOVSQ9LakxzOw259zZ5XL5l0mNAQBJ4i0AtJ1SqfSrIAhOl3R9UmM4546SNJrP51+d1BgAkCRmANC2BgcHDx4fH/+OpDDhoS6U9AbOCwDQSngLAG1r48aNO+fNm3dRvV4/TNJzEhxqnpkN5HK5H1Wr1T8mOA4AeMMMADpCoVB4m3Pu00q26R2T9LpyuXxRgmMAgBc0AOgYhUKhMHWl8MEJDuMk/ceRRx75nhUrVuxKcBwAiIUGAB1lyZIlfxVF0SpJz0h4qF9mMpm/XbVq1c0JjwMAM0IDgI6zaNGiJxxwwAHfk/SShIe6x8xeVSqVfpDwOACw39gEiI5z44037pg3b9536vV6t6TnJTjUgZJemcvlZs2bN++yjRs3ugTHAoD9wgwAOloYhq+Q9BXtflgn6UpJryyXyzclPA4ATAsNADpeoVB4tnNupaSkr/39s6Q3lsvl7yY8DgDsEw0AIKm/v/9J2Wz2IkkLGzDchT09PW8qFovbGzAWAOwRewAASVu2bHlg9uzZ3+7u7k760CBJmlev11/R29t7da1Wuy3hsQBgj5gBAB5l6lrh/5R0QMJD1c3sY/Pnz//w0NBQlPBYAPAINADAHhQKhdOnrhV+atJjOefWBUFwXqlUuiPpsQDgQdwGCOxBqVS6QtKzJCX+Dr+Znemc+20+nz8n6bEA4EHsAQD2olarPXDuued+94477nBm9gIlO2PWY2Z/09fXd8TRRx89euONN3KMMIBEsQQATEOhUHihc+47ko5owHA3mdlrS6XSZQ0YC0CHYgkAmIZSqXSZc+5kSZc3YLhjnXM/CsPwy2edddZBDRgPHaa/v7877RqQPpYAgGmq1Wpjs2fPvrCnp8dJSnpJwCQtyGazL8/lctfXarVbEhwLHWbu3Lnn9Pb2Hl6r1W5OuxakhyUAYAby+XxoZt+QdFgDhou0+7jifyqXyw80YDy0ucWLFx+dyWR+65zLVyqV0bTrQTpoAIAZCsPw6ZIuUvIHBz3oxiiK/n54ePhnDRoPbSwMwy2SjqAJ6FwsAQAzVKvV/jxnzpwLzewQM3uOkm+on2Bmr8rlcgfOmTPn8i1btkwmPB7aWC6XO0HSc81ssLe39+csB3QeNgECMYyMjExUKpW3B0FwlqRGHOSTlfTebDa7IQzDUxowHtqUmf1o6h8PMrNKoVB4YaoFoeFoAAAPVq9eva5erz9LUrlBQ54o6edhGH5ucHDw4AaNiTaSyWR+rN37SyTpIOccTUCHYQ8A4JcVCoXXO+c+K+nABo15u3Pu/EqlsrJB46FNFAqF9c65BQ/7owfM7GWlUinxEzCRPmYAAL9cqVRaEQTBKZKub9CYTzWzS8IwLPf39x/VoDHRBpxz6x71Rwc651aHYfi3qRSEhmITIJCAarX6h9mzZ3+9u7u7S9JfqzGzbb1BELy2r69vxyte8Ypfjo6OugaMiRY2d+5cOede/ag/zkg6u6+v785qtbohjbrQGCwBAAkrFAovcc59Q9KRjRrTOfdz59w/Dg8P/6ZRY6L1LFy4sOeQQw75o6RZe/hrZ2YfLpVKQw0uCw3CDACQsGq1+rsTTzzxwiiKTpDU24gxzexpZvb6XC73xGOOOeZnXC6EPbn55pvrvb29C83sGXv4a5O0MJfLPaFWq61tdG1IHg0A0ACbNm26v1arfbevr+8OSQslNeIs9oyk50wdJ7ypVqvd2IAx0WJyudxTJZ35GF/ynL6+vmOPPPLIys033xw9xtehxbAEADRYGIbHSvof7W4EGsVJ+l69Xn/3yMjIbQ0cF01uYGBgQRAE66fxpaskvZLjqNsHDQCQjgdfF/y0pEa+x/+AmX1q27ZtHx8dHR1v4LhoUkNDQ8GGDRvukvTEaXz51WZWKJVKdyVdF5JHAwCkaGo24KuSGn0Ay++dc++vVCrfbPC4aEKFQqHonPubaX75TZIWl8vlTUnWhOTRAADpS2s2QJJ+HEXR23hboLPl8/k3mNkX9+Mj90laVi6Xf5JUTUgeBwEB6XOlUmlFFEXzJDX6B+qLgiC4ZupI4cc1eGw0iSAIHn0g0L4cJunSfD7/yiTqQWMwAwA0lwdnAz4j6aAGj32vmX2ku7v788VikZsGO0wYhr+TdOx+foyzAloYrwECTaZarW7I5XKXOOfmm9nTGjj0gZJeWq/XXzp37txfV6vV2xs4NlLW29t7opkt2PdXPsKDZwUcNW/evLUbN26kcWwhzAAAzcvy+fyrzOwzkg5v8NhO0vfN7H2lUmlLg8dGCvL5/Dlm9r0YEVdMXSTEGwItggYAaHKLFy8+IpPJfFLSq1IYfpekr5nZB/nB3t6WLVt2eL1ev1sx9oaZ2W2Tk5NLh4eHuUOgBdAAAC0in88vNrMvSDomheG3S/qCmX2sVCqNpTA+GiAMw2skPTtmzP2SziuXyxd7KAkJYg8A0CJqtdrmefPmrZicnKxr9w2Djfzv9wBJz5N0Xl9f3/Yjjzzyeo6FbT99fX1zJJ0eM+YASYO5XG7Wueee+2NupWxezAAALahQKJzknPuypNNSKmHT1LJAMaXxkYCBgYFFQRD8wGNkpV6vv3JkZGSbx0x4wjkAQAsqlUq/WrBgwelm9o+S0vjh2uecuygMwysHBgaen8L4SEAQBD+TNOExMp/NZn+6dOnSYzxmwhNmAIAW19/ff1RXV9cFzrllKZXgzOziycnJDw4PD9+QUg3wJAzDH8v/0dR/lvSacrm8ynMuYmAPANDitmzZsq1arf5vb2/v5VPvcT+5wSWYpBPM7I25XO6ZuVzu17Va7Z4G1wBPcrncUZJe5Dm2R9I57AtoLswAAG1k+fLlXXfeeeebnHMfkpTW0b6RpIvN7AOlUqmaUg2YoXw+f6qZ/SLBIS7LZrMvX7ly5d0JjoFpoAEA2tDUO90flPQWpbfXh0agBQ0ODmbGx8fvlvSEBIf5fRAEg6tXr06y0cA+0AAAbWxgYGCBmV1gZn+dYhmRpIsnJyffv2bNmlqKdWCawjC8WNLZCQ8zYWbvKZVKn0t4HOwFDQDQ/h48UvgTko5IsY5I0sXOuX+pVCqbU6wD+1AoFN7onPuvBg331Z6envOLxeKOBo2HKTQAQIfo7+8/NJvNflDSWyV1pVjKLknfjKLo34aHh3+XYh3Yi8WLF/dmMplGLtvcEATBOatXr/51A8fseDQAQIfJ5/PHm9lnJQ2kXEokaY1z7iOVSuXqlGvBo4RheJMae+z0DjP7Z5YEGocGAOhQS5YsOTOKok8q/tnvPlzhnPtEpVIpp10Idsvn8181s39o9Lhm9v3u7u7XFYvFPzd67E5DAwB0NisUCn/jnPu4pGekXozZdVEUfXb79u3fGR0draddTycLw/BcSd9OY2wzq9Xr9XPWrFlzXRrjdwoaAAAaHBw8YGJi4jXOuY9KelLa9Ui6ycw+193dvYLNYelYtmzZk+v1+p1K7znx4FsCF0ji4KAE0AAAeMjAwMBhQRC8R7s3Cs5Kux5Jd5vZFycmJi5Yu3btH9MuptOEYXidpHkpl3FxFEWvHx4evi/lOtoORwEDeMjmzZvHa7Xaulwud6F2HwRzktL9ReEgSQszmcybcrnc4XPnzr2hWq1ys1yD9PX1HS/puSmXcYKZndfX1/fbarW6JeVa2gozAAD2asmSJSdEUTQkaTDtWqZEktYEQfC51atX/0hMDScqDMN+SWvSrmOKk/Sf9Xr93SMjIz5vLOxYNAAA9ikMwxdJ+rikU9Ku5WF+bWafd859q1wuP5B2Me0oDMMDJf1RUnfatTzMb8zslaVS6VdpF9LqaAAATNvUq4P/puZqBLZJ+p6kz5bL5U1pF9NuwjAclXRG2nU8yrikoQULFnxqaGgoSruYVkUDAGC/TTUC/y7p5LRreZjIOfdjSRdUKpWKWB7wolAofMA59+G069iLH5rZa0ql0h1pF9KKaAAAzNiSJUvOdM593Dm3IO1aHmWzpK9GUbSC3ePxhGF4mqQr067jMdxtZq8vlUqltAtpNTQAAOKyfD6/1MyGtPutgWayzcwulPTVUql0bdrFtKKp64HvkfT4tGvZh+LOnTvfwOui00cDAMAXy+fz+alGYH7axezBRknflPTVcrl8T9rFtJIwDFdJWpJ2HdNwp3NuOUdKTw8NAADfHmwEPqTmuGfg0SYklYIgWMGrhNMThuH5ki5Iu479cKGZvblUKo2lXUgzowEAkIihoaFg/fr1Z5vZu9Vcbw083I2Svuac+3qlUrk97WKa1cDAwNwgCDamXcd+ukXSP5TL5R+nXUizogEAkLgwDJ8n6T3afQVxM/7ciZxzPw6CYEV3d/fqYrG4M+2Cmk0YhrdKelradewnJ+m/e3p63lksFrenXUyzacb/EAG0qXw+P29qRuBvJWXTrmcv7tLuKeQLOWzm/wvD8GuSXpN2HTO02cxeVyqVfpp2Ic2EBgBAwy1evPjoTCbzDkmv1e7z/pvVRjMrRlH07UqlsjntYtJUKBT+zjl3Ydp1xOAk/Xe9Xn/XyMgI90mIBgBAisIwfKJ2NwFvk3RkyuXsy0ZJ3+zq6vrmJZdcsjXtYhqtUCg8xTm3Va3/3NjqnHtzpVJZmXYhaWv1bySANtDf39+dyWTOMbP3Szo+7Xr2IZJ0pZkVnXPf7qRXCsMw/LWkZ6ZdhyfFer3+5pGRkT+kXUhaaAAANI2FCxdmDznkkEFJb5V0Wtr1TMO4dt+W952xsbHh0dHR8bQLSlIYhp+V9Pa06/DoPjN7b6lUWpF2IWmgAQDQlAqFwsnOubdIerma6za6vdkmaaWk74+Nja1rx2agUCgMOOcqadeRgEq9Xn/jyMjIbWkX0kg0AACa2tKlSx8fRdF5zrl/knR02vVM0w5JP3LOFbPZbGnVqlV/SrsgHwqFwiHOuXsldaVdSwLul/SRnp6e/1ssFifTLqYRaAAAtISpg4UGJL3VzF6s1vn5NSnpqqm3Cb7f6gcOhWH4M0nPS7uOpJjZdVEU/WOlUrk67VqS1ir/AQHAQwqFQs459yY1/2uEe7LRzIpmdtHq1atb7XQ9FQqFIefcv6ZdR8IiSV9p91cGaQAAtKz+/v5Du7q6Xj61PNCXdj0z8DtJFUnFcrl8hVrgXoJCoXC6c+7ytOtokK3OufdWKpVvpl1IEmgAALS8qeWBl5rZP0gKJR2Qdk0zcIektc65tV1dXetWrlx5b9oF7cnUmxr3Sjo07VoaqDI5OfmWNWvW3JJ2IT7RAABoKwMDA4dlMpnBqSWCeWnXM0ORmV3rnFsXBMG6pzzlKT9ZsWLFrrSLelAYhiXtbrQ6yXZJHzryyCM/10zfizhoAAC0rYGBgQVBECyX9ApJh6RdTwzbJY2aWdk594NyuXxrmsUUCoW3Oef+I80a0mJmtcnJybcODw+vTbuWuGgAALS9wcHBWRMTE/koipa32BsEe/M7Seucc5Xt27f/sNFnDoRheKKk3zRyzCbU8ssCrf4fAQDsl6m77V8r6VWSnpx2PR48IOlyST+V9JOenp6rG3GdcRiGt0l6atLjNLkHzOxTu3bt+veRkZGJtIvZXzQAADrS8uXLu+68887QOfcaSYvUmhsH92SHpKuccz8JguCn3d3dVxWLxR2+BwnD8Jva3URh93XDby2VSj9Iu5D9QQMAoOMtXbr08fV6vWBmg5JeKimbdk0e1c3seufcOufcFdls9mc+TibM5/OvNrNv+CiwXZjZ951z70x7j8Z00QAAwMP09/cf1dXVdY5z7lxJ89OuJwF1Seudcz8NguCnQRBcMZOGoFAozHbOtfSphgnZIekCM/tYqVQaS7uYx0IDAAB7sXTp0mMmJyfPkfT3knJp15OgrZIuN7MrnHMbxsbG1k9nY2EYhhslzU2+vJZ0h5l9aP78+V8ZGhqK0i5mT2gAAGAawjA80cwGnXOvlnRs2vUkrC6pJmmDmV3unLtiwYIFNzz6QRaG4QWSzk+lwtax3szeXiqVrki7kEejAQCA/TA0NBRcc801Z0RR9AozWyrpSWnX1CB/kvRLSVeb2dXZbPaX9Xr9FOfc6rQLawFO0vcnJyff1UyvDdIAAMAMDQ4OZiYmJk6XtMQ5t0ztPzPwCM65281stniWTNf9zrmPz5o169NJvJmxv/imAYAnUwfk5LX7mNy/Fj9jsWe3m9mHu7u7v1osFifTKoL/cwJAAhYvXnx0Nptd5JwLtfucga60a0LT2SjpPeVyuZLG4DQAAJCw/v7+J3V1dYXOuaWSXiKpJ+2a0Dycc+uiKHrXmjVrrmvkuDQAANBAg4ODB4+Pjy+S1G9mi5xzR6VdE5pCJOniRm4UpAEAgBQNDAw8I5PJnOmcO1NSv6SD064JqXrAzD6za9euT42MjGxLciAaAABoEoODg7N27tx5ehRFZ5rZmc65+eLndKf6o6RP9vT0XJDUGwP8HwsAmtTDNhIukvRiSY9LuyY0lpndJukj27Zt+5/R0dG612yfYQCAZCxcuDB70EEHPTcIgkXOuRea2SnizYJOssk594FKpXKxdh8sFBsNAAC0oDAMD9Tuy4pOd86daWanS5qVcllI3i+dcx+pVCrluEE0AADQBhYuXNhz6KGHnirpjCiKXmBmz5V0UNp1ITGXSfpguVy+fKYBNAAA0IaWL1/eddddd50SRdELJL1A0vMkHZJyWfDvCkn/Ui6Xf7K/H6QBAIAOMHVvwbOnZgdOk3SqpKPTrgt+OOfWmdn7yuXyL6f7GRoAAOhQhULhKc65UySdamanTv3zE9KuCzPnnFsXBME/l0ql9fv6WhoAAMBD8vn88do9O3CKmZ0q6dnay9HFzjmZ8RhpQs7MVkn6SKlUunZvX8R3DgCwV8uXL++6/fbbT8pkMqc6506VdIqkPkmZlEvDNEwtDXygXC5f9ei/owEAAOyXhQsX9hx88MFvNbNPpF0Lpu0K59wnHv76IA0AAGC/hWF4paTT0q4D++2hRoAGAACwX/L5/EIzuyztOjBjt5rZh7JpVwEAaC1BELzXOS+n0aIx6pJ+IakcRdG64eHhayQ5ZgAAANNWKBROcs5dJ5aQm91Nkn5oZut27dq1dk9XCzMDAACYNufce8XDvxlFZnatpMrk5GR5eHh4w74+wDcRADAtYRgeK6kmfnlsFjsk/cjMytlstnzJJZds3Z8P800EAEzXP4nnRtruMLOSc640NjZ22ejo6PhMg5gBAADs07Jlyw6v1+u3iBsG03CLpNWSigsWLPj50NBQ5COUTg4AsE/1ev2t4uHfSL+TVJFULJfLV0hyklQulx/zQ/uDGQAAwGM666yzDuru7r5F0uFp19LOzOy6KIouzmQyl6xevXpj0uMxAwAAeEw9PT2vc87x8E/GTZIukvT1Uqm0qZEDMwMAANir5cuXd23dunWzpKPTrqWN3CpplXZP71+eVhHMAAAA9mrr1q0vFw//2MzsNufcJXrUmn6aaAAAAHtlZu/g2N8Z+7OkknOu2NPTs6ZYLE6mXdDD0QAAAPYon88vds49K+06Wsykc+4ySRfu3Lnz4ksvvfT+tAvaGxoAAMAemdl70q6hVZjZBkkXZjKZ765cufLutOuZDjYBAgD+wpIlS54TRdFVadfR5G6R9A0zu7BUKm1Ju5j9xQwAAOAvRFH03rRraFIT2r2uf+GsWbOabl1/fzADAAB4hEKhkHPObZQUpF1LE9ko6ZuSvloul+9JuxgfmAEAADxCFEXvNjMe/tJ9kopm9qVSqXRt2sX4xgwAAOAhhUJhtnPud5K6064lJc4596MgCFZ0d3evLhaLO9MuKCnMAAAAHu7t6syH/32SipIuqFQqv027mEZgBgAAIEnq7+8/NJvN3irpcWnX0ihTr++t6O7uvrBYLO5Iu55GYgYAACBJymazb1RnPPzvkfT1ycnJ/16zZk0t7WLSwgwAAED9/f3d2Wz2JklHpl1Lgq4xsy87575VLpcfSLuYtDEDAABQV1fXec65dnz475S0OgiCFatXr16XdjHNhBkAAOhwQ0NDwYYNGzZJOj7tWjy6U9I36vX650dGRm5Lu5hmxAwAAHS4DRs2LFP7PPwvd859fvbs2ZesWLFiV9rFNDMaAADA/0m7gJgiSWucc/9WqVSuTLuYVkEDAAAdrFAovNA5d1radczQNklfl/Tpcrl8a8q1tBwaAADobK145e9Nkr6cyWS+vGrVqj+lXUyrYhMgAHSoQqFwknPuOrXIs8DMNkRRdMH27du/Mzo6Wk+7nlbHDAAAdCjn3HvU/A9/55wrS/p4uVxmfd+jZv/GAwASsHTp0mMmJyc3q3l/EYwkrZH0r+Vy+Zq0i2lHzfqNBwAkqF6vv9PMmvEZMCHpIufcRyqVyua0i2lnzAAAQIdZtmzZ4fV6/RZJB6Vdy8OMSfqamX2iVCrdkXYxnaAZuz8AQIImJyfPV/M8/P8g6TP1ev2/RkZGtqVdTCdhBgAAOkgYhgdKukXSE1Mu5R4z+8KuXbs+w4M/HcwAAEAHMbPXO+fSfPjz4G8SzAAAQIdYvnx519atWzdLOjqF4XnwNxlmAACgQ2zduvXlavzD/w9m9l88+JsPDQAAdAgze4dzrlHDjUn6LzP7WKlUGmvUoJg+GgAA6AD5fH6xc+5ZDRjqAUlfqdfrHx0ZGflDA8bDDNEAAEAHMLOkL/3Zpd3v8X+I9/hbA5sAAaDN5fP5U83sFwnFO0nfd879Cyf3tRZmAACgzQVB8N6E1v5/4Jx7b6VSuT6JcCSLGQAAaGOFQiHnnNsoKfAYu0nSu8rlcsVjJhqMGQAAaGPOuXfJ38P/XjP7yLZt274wOjpa95SJlDADAABtavHixUdkMpmbJPXEjNop6Us9PT0fLBaLf/ZQGpoAMwAA0Kay2ew7nHNxHv5O0vclvadcLt/kqSw0CWYAAKANDQ4OPm58fPxWSYfOMOKXzrm3VCqVq33Whebhc1MIAKBJjI+Pv1Eze/jfZ2Zv7+npeS4P//bGDAAAtJn+/v7ubDZ7k6Qj9+NjTtK36vX6OznBrzOwBwAA2kxXV9d5zrn9efhf65x7c6VSuTKxotB0WAIAgDYyNDQUSHrnNL/8wen+U3j4dx5mAACgjVxzzTVLnXO90/jSCyW9o1Qq3ZN0TWhONAAA0EamDv55LHdIelO5XF7diHrQvFgCAIA2USgUXijptL38tZO0wsz6ePhDYgYAANrJ3q783eKce32lUhltZDFobrwGCABtoFAonOScu06P/Llel/Tper3+ryMjIxMplYYmxQwAALSHd+uRD/9fmdmrSqXSr9IqCM2NGQAAaHFLly49ZnJycrN2/1LnJP1nvV5/N7/147EwAwAALa5er7/TzLKSfm9m55VKpcvSrgnNjxkAAGhhy5YtO7xer98iac3OnTvfsHbt2j+mXRNaAzMAANDCdu3adZ6ZvbFcLl+Ydi1oLf8PwxSt3WpqenUAAAAASUVORK5CYII=;rotation=-45;" parent="6csktdJ5veV7fC9ITd33-1" vertex="1">
          <mxGeometry x="500.00000000000006" y="390" width="59.5" height="59.5" as="geometry" />
        </mxCell>
        <mxCell id="xJ5Kr90p5ZI-lQD4aYjA-6" value="" style="rounded=0;whiteSpace=wrap;html=1;strokeWidth=1;dashed=1;" parent="6csktdJ5veV7fC9ITd33-1" vertex="1">
          <mxGeometry x="360" y="640" width="80" height="80" as="geometry" />
        </mxCell>
        <mxCell id="dlkvdwH-Kfb3HIJOxa9c-1" value="" style="endArrow=classic;html=1;rounded=0;strokeWidth=2;strokeColor=#4D4D4D;" parent="6csktdJ5veV7fC9ITd33-1" edge="1">
          <mxGeometry width="50" height="50" relative="1" as="geometry">
            <mxPoint x="400" y="950" as="sourcePoint" />
            <mxPoint x="399.4999999999999" y="910" as="targetPoint" />
          </mxGeometry>
        </mxCell>
        <mxCell id="kblEvdHZP-VqR2xJ2xVO-0" value="&lt;font style=&quot;font-size: 36px;&quot; face=&quot;Cascadia Code&quot; color=&quot;#4d4d4d&quot;&gt;21&lt;/font&gt;" style="rounded=0;whiteSpace=wrap;html=1;strokeWidth=1;fillColor=#DFEAF2;" parent="6csktdJ5veV7fC9ITd33-1" vertex="1">
          <mxGeometry x="280" y="480" width="80" height="80" as="geometry" />
        </mxCell>
        <mxCell id="kblEvdHZP-VqR2xJ2xVO-1" value="&lt;span style=&quot;color: rgb(77, 77, 77); font-family: &amp;quot;Cascadia Code&amp;quot;; font-size: 40px;&quot;&gt;38&lt;/span&gt;" style="rounded=0;whiteSpace=wrap;html=1;strokeWidth=1;fillColor=#DFEAF2;" parent="6csktdJ5veV7fC9ITd33-1" vertex="1">
          <mxGeometry x="360" y="480" width="80" height="80" as="geometry" />
        </mxCell>
        <mxCell id="kblEvdHZP-VqR2xJ2xVO-2" value="&lt;font face=&quot;Cascadia Code&quot; color=&quot;#4d4d4d&quot;&gt;&lt;span style=&quot;font-size: 40px;&quot;&gt;95&lt;/span&gt;&lt;/font&gt;" style="rounded=0;whiteSpace=wrap;html=1;strokeWidth=1;fillColor=#DFEAF2;" parent="6csktdJ5veV7fC9ITd33-1" vertex="1">
          <mxGeometry x="520" y="480" width="80" height="80" as="geometry" />
        </mxCell>
        <mxCell id="kblEvdHZP-VqR2xJ2xVO-3" value="&lt;span style=&quot;color: rgb(77, 77, 77); font-family: &amp;quot;Cascadia Code&amp;quot;;&quot;&gt;&lt;font style=&quot;font-size: 36px;&quot;&gt;6&lt;/font&gt;&lt;/span&gt;" style="rounded=0;whiteSpace=wrap;html=1;strokeWidth=1;fillColor=#DFEAF2;" parent="6csktdJ5veV7fC9ITd33-1" vertex="1">
          <mxGeometry x="200" y="480" width="80" height="80" as="geometry" />
        </mxCell>
        <mxCell id="kblEvdHZP-VqR2xJ2xVO-4" value="" style="rounded=0;whiteSpace=wrap;html=1;strokeWidth=1;" parent="6csktdJ5veV7fC9ITd33-1" vertex="1">
          <mxGeometry x="440" y="480" width="80" height="80" as="geometry" />
        </mxCell>
        <mxCell id="kblEvdHZP-VqR2xJ2xVO-5" value="" style="shape=image;verticalLabelPosition=bottom;labelBackgroundColor=default;verticalAlign=top;aspect=fixed;imageAspect=0;image=data:image/png,iVBORw0KGgoAAAANSUhEUgAAAgAAAAIACAYAAAD0eNT6AAAACXBIWXMAAA7DAAAOwwHHb6hkAAAAGXRFWHRTb2Z0d2FyZQB3d3cuaW5rc2NhcGUub3Jnm+48GgAAIABJREFUeJzt3XmcXFWd9/Hv71Y13WFTxAUiChjo6oBDNAHEQSUqEjtdt5Lg9KA4ijNqxg119HEZR512m3F51JHRUTM6LrgNJSSpqk4bjNIqCGLC4hJSlSCLQABBNB1Id1J9z/NHGh7AhHT6nlu3ls/7H3klXd/ze9HS99fnnHuO6WGWL1/edccdd7zGzN4s6SRJ9rC/vt7Mvrxt27b/Hh0drQsAALSshx7wYRgeK+l/JZ2yj89cK2lpuVy+NcnCAABAckyS8vn8U83scknHTOtDZrdJek6pVLojwdoAAEBCAkkys//RNB/+kuScO8o5962kigIAAMkKwjA8S9JZM/jsC6c+CwAAWkwg6bwYn4/zWQAAkJJA0qkxPn+Gr0IAAEDjBJJmx/j8UxctWvQEX8UAAIDGCCRNxAno7u6e66kWAADQIIGZ3RInwDnX56sYAADQGIFz7oaYGcwAAADQYgIzi9sAnOilEgAA0DBBFEVxG4D5XioBAAAN42MG4MmFQiHOmwQAAKDBgp6enk2SHoiZ82wfxQAAgMYIisXipKTfxgmJoogGAACAFhJM/e81cULMjAYAAIAW8mADcG3MHBoAAABaSCBJzrm4DcAxHAkMAEDrCCRp1qxZv5ZUj5Fj3d3d8/yUBAAAkhZIUrFY3CGpGjOL8wAAAGgRwcP+OdZGQLEPAACAlvHwBiDWPgDnHA0AAAAt4qEGwMNGwFwYhgfGzAAAAA3wUAOQzWavk+RiZGWiKFoQvyQAAJC0hxqAVatW/UnSzXHCzOy0uAUBAIDkPXwPgMxsQ5wwM3tOvHIAAEAjPKIBcM79Imbec2N+HgAANMAjGoAoiuI2ALP7+/uPipkBAAAS9ogG4MADD1wvaVecwEwmwz4AAACa3CMagKkTAX8dJ5B9AAAANL9gD392VcxMZgAAAGhyf9EAeNgIuGBwcPCAmBkAACBBf9EARFEUdwZg1o4dOzgQCACAJvYXDcCaNWs2S7o3VmgQPD/O5wEAQLL2tAfASYq1DOCcowEAAKCJ7akBkJldHjP39KGhoT1mAwCA9O3xIT05ORm3ATjs2muvPTFmBgAASMgeG4Aoiq6WNB4nOIoilgEAAGhSe2wARkZGJiStjxPMPgAAAJrXXtfpnXM/ixNsZjQAAAA0qb02AGYWqwGQ9NQwDI+NmQEAABKw1wagp6fn55Im44Sb2QvifB4AACRjrw1AsVj8s6TfxAl3zr0wzucBAEAyHvNd/bj7ACSdGfPzAAAgAY/ZAPjYB7B48eLemBkAAMCzx2wAstnsqHYfDTzzAYLgRXE+DwAA/HvMBmDlypV3S/ptnAHMjH0AAAA0mX2e1++c+1HMMV7MvQAAADSXfT6YzeyymGMcvn79+r+KmQEAADzaZwPQ09MzqvjnAbAPAACAJrLPBmDqPIBrYo5DAwAAQBOZ7tp83H0AZyxfvrwrZgYAAPBkug1A3H0Ah2zdunVBzAwAAODJdBuAyyVNxBnIzF4S5/MAAMCfaTUA5XL5AUlXxRnIObcozucBAIA/034/3zkXdxngtEWLFj0hZgYAAPBg2g2AmcXdCJg54IADuBwIAIAmMO0GYGxs7CpJf44zGMsAAAA0h2k3AKOjo3XFfB3QzPolWZwMAAAQ336d0e+c+0HM8Y4sFAocCwwAQMr2qwGYnJwc8TDmSz1kAACAGParARgZGblNMa8Hds7RAAAAkLKZXNMbdxngef39/YfGzAAAADHsdwNgZmtjjtmVzWZfGDMDAADEsN8NwK5du34qaXvMcXkdEACAFO13AzAyMjIh6Scxx+2P+XkAABDDTPYASFLcZYBjBgYGnhkzAwAAzNCMGgAP5wEoCIJC3AwAADAzM2oAKpXKZkk3xhybBgAAgJTMdAlAzrm4hwKdcvbZZx8ZMwMAAMzAjBuAIAiG445dr9fDmBkAAGAGZtwA7Nq16zJJY3EGd87RAAAAkIIZNwAjIyMTHg4FekmhUDgkZgYAANhPM24AJMk5V4o5fncURWfGzAAAAPspVgOwc+fOYUn1OBlmxtsAAAA0WKwGYO3atX+UdEXMGsLBwcFMzAwAALAfYjUAkpdlgMPHx8efG7cOAAAwfbEbgGw2uzpuBssAAAA0VuwGYNWqVTdK2hgnwzm3LG4dAABg+mI3AFPiLgMcVygUcl4qAQAA++SlAfCwD0DOuZf5qAUAAOyblwbg5JNP/oWkO+NkmNmgj1oAAMC+ma+gMAy/Ium1cTLMrK9UKlU9lQQAAPbC1x4AmRnLAAAAtAhvDYBzbp2k+2PG/I2PWgAAwGPz1gCUy+UHJMW9IvjZ+Xz+eB/1AACAvfPWAEiSc64YNyMIAmYBAABImNcGwMzWKOYygHOOtwEAAEiY1wZgahlgTcwYlgEAAEiY1wZAksyMZQAAAJqc9wbAOTcslgEAAGhq3hsAX8sAhULhOB/1AACAv+S9AZD8LANIYhYAAICEJNIAsAwAAEBzS6QBKJfLD5jZSMwYlgEAAEhIIg2A5OdQIEmv8JABAAAeJbEGQFJF8ZcBXiWPNxYCAIDdEmsAPC0DHJ/P50/xUhAAAHhIkjMAXpYBzOzvfNQCAAD+v0QbgImJiWFJD8SMefny5cu7fNQDAAB2S7QBuPTSS+93zpVixjzpzjvvPMtLQQAAQFLCDYAkBUHwrbgZURSxDAAAgEeJNwDbtm1bK+muOBlmtnRwcPBxnkoCAKDjJd4AjI6O1iX9b8yYnh07dpztox4AANCABmBK7GUA3gYAAMCfhh2yE4bhDZL6YkREQRAcs3r16t/7qgkAgE7VqBkAOee+HTMicM5xNDAAAB40rAGIouhCSS5OhnPuPE/lAADQ0RrWAKxZs+YWSVfEjDkhn8/P81EPAACdrGENwBQ2AwIA0AQa2gBEUXSRpImYMecODg5mfNQDAECnamgDMDw8fJ+k4ZgxsycmJl7qox4AADpVo5cA5JyLvQzgnHudj1oAAOhUDW8AZs2aNSzp3pgx+UKhMNtHPQAAdKKGNwDFYnGnpO/HjMlK4pVAAABmqOENwBQvywBDQ0Np1Q8AQEtL5QFaLpevkLQ5ZswzNmzYsNBDOQAAdJy0foN2kv7HQw6bAQEAmIHUptDN7GuSdsWMeVkYhk/0UQ8AAJ0ktQagVCrdZWaVmDEHmNkrvRQEAEAHSXsT3VfjBjjn/tFHIQAAdJJUG4D58+ePSLo1ZszcMAxP81EPAACdItUGYGhoKJL09bg5zrnXx68GAIDOkfYSgIIg+IqkyTgZZnZOf3//oZ5KAgCg7aXeAKxevfr3ZrYuZsxBXV1dL/dSEAAAHSD1BkCSoij6StwMLggCAGD6mqIBmDVrVknS3TFjTikUCs/2UQ8AAO2uKRqAqQuCvhk3h82AAABMT1M0AJJkZl/R7iOC4zhvYGDgMB/1AADQzpqmASiVSlUzuzxmzIFBEHBNMAAA+9A0DYDkZzOgpLdwTTAAAI+tqR6Us2bNKkq6L2bMnPXr17/URz0AALSrpmoAisXiDknfjZtjZud7KAcAgLbVVA2AJDnnVniIWbR48eJeDzkAALSlpmsAKpXK9ZJ+GjPGMpnMm33UAwBAO2q6BkCSnHP/6SHm77kfAACAPWvKBmD79u2rJP0+ZswhXV1dr/ZRDwAA7aYpG4DR0dG6pC/FzXHOvZVXAgEA+EvN/HBcIWk8ZsbxGzZsONNHMQAAtJOmbQDK5fI9kv7XQxSvBAIA8ChN2wBIkpl9zkPMAK8EAgDwSE3dAJRKpWudcz+PGWPZbPYfvRQEAECbaOoGQJKCIIj9SqBz7h8GBwcP9lEPAADtoOkbgCOOOOJiSbfHjHn8jh07/s5HPQAAtIOmbwBWrFixS7vfCIjFzN4iyeJXBABA62v6BkCSstnslyRNxIw5MQxDbgkEAEAt0gCsXLnybjP7voeod3rIAACg5bVEAyBJk5OTn/UQ8+IwDOd7yAEAoKW1TAMwPDy8QdLVcXPM7B0eygEAoKW1TAMgSWbm45XAc8IwfLqPegAAaFUt1QB0d3dfJOnOmDFZSW/1UA4AAC2rpRqAYrG40zkX+5ZASa8fHBx8nIccAABaUks1AJLU1dX1eUn3x4w5dGJiguOBAQAdq+UagJUrV95rZhfGzXHOvXVwcPAAHzUBANBqWq4BkKQoij4jKYoZ89SJiQmOBwYAdKSWbAAqlcpmSaW4Oc659w0ODmY8lAQAQEtpyQZgyqc9ZMzZsWPHMg85AAC0lJZtAMrl8uWSroybEwTBv4hLggAAHaZlG4ApsWcBnHPPGhgYOMtHMQAAtIqWbgAWLFiwUtKWuDlBEPyzh3IAAGgZLb0BbnR01OVyuUlJAzGjjunt7b20Vqvd5qMuAACaXUvPAEjS2NjY/0jaGjfHzJgFAAB0jJZvAEZHR8clfc5DVL5QKJzkIQcAgKbX8g2AJNXr9S9K+lPMGHPO/YuPegAAaHYtvQfgQVu2bJno7e19nJk9P2bU3OOPP/6SzZs33+2lMAAAmlRbzABIUldX139IeiBmTBAEwft81AMAQDNrixkASdq0adP9vb29R5rZqTGjTsjlchfVarV7vBQGAEATapsZAEnKZDKflLQzbowkZgEAAG2tbWYAJKlarW7r6+s7XtK8mFHPPO644763efPme33UBQBAs2mrGQBJmpyc/LjiXxWcyWQynAsAAGhbbdcADA8P3yDp+x6iXpXP54/3kAMAQNNpuwZAkoIg+Kg8zAJIeq+HcgAAaDptew1uGIYXSzo7ZsykmZ1YKpWqPmoCAKBZtOUMgCQ55z4sycWMyTjn3u+jHgAAmknbNgCVSuV6SSUPUedyRwAAoN20bQMgSWb2IcWfBQgkfcBDOQAANI223QPwoDAMy5LyMWOcmS0olUrX+qgJAIC0tfUMgCRFUTSk+LMA5pz7kIdyAABoCm3fAAwPD2+Q9AMPUWEYhqd5yAEAIHVt3wBIUhRFH1D8WQBJ+rCHDAAAUtdWdwHszebNm7f29vbON7NczKg5uVxutFar3eKlMAAAUtIRMwCSlMlk3q/4pwNK0ifVAZsnAQDtrSNmACSpWq3encvlTpR0Ysyop/b29l5fq9U2+agLAIA0dMwMgCRNTk5+QFI9bo6Z/fvChQuzHkoCACAVHdUArFmzpibpux6icocccshrPOQAAJCKjmoAJCmTyXxQ0k4PUR8Kw/BADzkAADRcxzUAq1atutk59w0PUbMlne8hBwCAhuu4BkCSzOyjkiY8RL132bJlh3vIAQCgoTqyASiXy7dK+rKHqMdPTk6+x0MOAAAN1ZENgCRls9mPSRqLm+OcO3/JkiVP81ASAAAN07ENwMqVK+92zn3aQ1SPc+6jHnIAAGiYjm0AJGnWrFmflnRn3Bzn3KsKhcLJHkoCAKAhOroBKBaL283sYx6izDn3fz3kAADQEB3dAEjSEUcc8WVJWzxEnZHP55d5yAEAIHFcaiMpDMNXSPqOh6jf1ev1E0ZGRny8YggAQGI6fgZAksrl8vfMbIOHqGdks9k3esgBACBRNAC7Oefc+zxlfZDDgQAAzY4GYEq5XL5U0o88RB1Wr9ff7yEHAIDE0AA8jHPunZIiD1FvXrx4ca+HHAAAEkED8DCVSuV6ST4uCurKZDKf9JADAEAiaAAexczeL+l+D1FLwjDs95ADAIB3mbQLaDbVanWst7e3y8wWeog7dc6cOSu2bNky6SELAABvmAHYg1mzZn1S0u89RB3f1dX1Fg85AAB4xUFAexGG4Wskfc1D1FhXV1fukksu2eohCwAAL5gB2IsFCxZ8U9J6D1GH7Nq1y8d9AwAAeMMMwGMIw/AMSaMeolwQBM9dvXr1LzxkAQAQGzMAj6FcLv9E0moPUeac+8LQ0BD/vgEATYEH0j5MTk6+W9LOuDnOuQXr168/z0NJAADExmuA+7B58+Z7e3t7DzGz0+NmmdlpJ5xwwlc2bdo07qM2AABmihmAaQiC4KOS7vAQ9ZR6vf4RDzkAAMTCDMA0VKvVnb29vfeY2bK4WWZ28ty5c9dWq9XbfdQGAMBM8BbA9FmhUPiJc+75sYPMNnR3dz+nWCxyQiAAIBUsAUyfc869XR5uC3TOLZiYmFjuoSYAAGaEJYD9UKvVtuZyuadJmu8h7vnPfOYzv3HDDTds95AFAMB+YQZgP2Wz2X+R9CcPUYfu2rXrEx5yAADYb8wA7KdNmzbdn8vlJiS91EPcvFwu97NarXaThywAAKaNGYAZGBsb+7ykX/vIMrMv9vf3d/vIAgBgumgAZmB0dLRuZm+T5OJmOed6u7q63uGhLAAApo3XAGMoFArfcs690kPUDjM7qVQqbfGQBQDAPjEDEM87Jd3nIWeWc+6/RUMGAGgQNgHGUK1W78/lcmOSBjzEHdPX13drtVq91kMWAACPiRmAmBYsWPAlSb/wkeWc+0yhUJjtIwsAgMdCAxDT0NBQFEXRmyX5ONb3cc65z3rIAQDgMbEE4MHmzZu39vX1PVnSqR7iTszlctfVarWqhywAAPaIGQBPdu3a9T75uTJYkv5r6dKlj/eUBQDAX6AB8GRkZGSbpHd5ipsdRdFHPWUBAPAXeO3MszAM10l6sYeoyMxeUCqVrvCQBQDAIzAD4JmZvUHSDg9RgXPuK4ODg7M8ZAEA8AhsAvSsWq3+MZfL1SWd6SHuifV6vbtWq/3QQxYAAA9hBiABY2NjnzazDZ7i3jEwMPB8T1kAAEiiAUjE6OhoPYqi10ra5SEuyGQyLAUAALxiCSAhtVrtrr6+vkMkne4h7vB6vX5grVZb6yELAABmAJLU3d39r5J83fD3tkKh8AJPWQCADsdrgAnL5/MLzezH8vPv+qaenp6TisXidg9ZAIAOxgxAwiqVyqikr3uKO3bHjh0cEAQAiI0GoAF27tz5fyTd5SPLzM4Pw/AMH1kAgM5FA9AAa9eu/aOZne8pLpD01cHBwYM95QEAOhANQIOUSqWipIs8xc0ZHx/n2mAAwIzRADTWm+VpKUDS6/L5/N94ygIAdBgagAYql8v3mNlyX3lm9sXFixcf4SsPANA5aAAarFQqlSR911PcE7PZ7NfF65wAgP1EA5CCbDZ7vqQ7fWQ55xYVCoU3+MgCAHQOfnNMST6fD82s5CnuATObXyqVqp7yAABtjhmAlFQqlbKkb3mKO9A5953BwcEDPOUBANocDUCKMpnM+WZ2m6e4+RMTEx/wlAUAaHMsAaTM81LAZBAEL1i9evXPPeUBANoU1wGnrFar1XK53FGS5nuIC5xzZx177LHfuPHGG3d4yAMAtCmWAJrAxMTE282s5inuaQcccMAKT1kAgDbFDEATuPHGG3flcrmrJP29/HxPTujt7b2rVqut95AFAGhDNABNolqt3pHL5bKSvNz0Z2ZnHnfcccObN2/2ct4AAKC9sATQRMbGxj4i6Ree4noymcxFhULhEE95AIA2QgPQREZHR+uZTOaVksY8RR7vnOPWQADAX2AJoMls2rTpvlwu90dJeU+R83t7e7fUarVfe8oDALQBzgFoUmEYliSFnuK2T05OLlizZo2vNw0AAC2OJYAmVa/XXytPFwZJOjibzXJUMADgITQATWpkZOQPkl4vyfnIc84tGB8f/5SPLABA62MPQBOr1Wq13t7ew8zsNE+Rz+nr67uxWq3+ylMeAKBFMQPQ5CYnJ98j6Rpfec65Ly5ZsuQEX3kAgNZEA9DkRkZGJszsHEnbPEUeHEXRJZwPAACdjQagBZRKpS3OueUeI3NRFHFfAAB0MPYAtIharfbbXC53rKRn+cgzs2fmcrk/1Gq1X/rIAwC0FmYAWsjExMSbJd3gMfI/lixZ8tce8wAALYKDgFrMwMDAM4MguFrSLE+Rv5c0v1wu3+MpDwDQApgBaDHDw8O/MbN3e4x8mqTvDQ4OshwEAB2EH/otqFqtXt3X1zdP0lxPkc+o1+uq1WqjnvIAAE2OGYAWNTk5+VpJv/MY+YF8Pr/MYx4AoImxB6CF5fP5eWZ2pfztB9geRdFzh4eHf+MpDwDQpJgBaGGVSuV659zbPEYeHARBOQzDJ3rMBAA0IfYAtLharXZNLpc7WtKzPUU+3jk3f/bs2d+9+eabI0+ZAIAmwwxAGxgbG3uTPN4XYGZnHnroof/mKw8A0HxoANrA6Ojo+NR9AX/2lemce1cYhq/xlQcAaC5sAmwj+Xw+NLPV8vd9HZf0gnK5zHHBANBm2APQRmq1Wi2Xyx0sydfxvllJi0488cTvbNq06X5PmQCAJsASQJsZGxv7Z0k/9Rj59Hq9XhwcHDzAYyYAIGU0AG1mdHS03tXV9XJJWz3GvmB8fPzLHvMAACljCaAN3XDDDdtzudwVkl6l3dP4Pjwrl8tN1Gq1yz3lAQBSRAPQpmq12m29vb23mpnP431f3NfXV61Wq5wUCAAtjgagjdVqtev7+vqeJOlUT5EmaWDu3LnrqtXq7Z4yAQApYA9Am9u2bdvbJV3mMXJWFEWrwjB8usdMAECD0QC0udHR0Xo2mx2U35sDj5C0ZnBw8HEeMwEADUQD0AFWrlx5r3PubEk+3+U/cXx8/LuDg4MsIwFAC6IB6BCVSuV6SedJch5j+8fHxz/lMQ8A0CD89tZBarXaDb29vQea2ekeY5/b19d3d7VaXe8xEwCQMGYAOszJJ5/8z5LW+Mx0zn2+UCic7TMTAJAsLgPqQP39/Ydms9krJD3TY+wOSWeVy2UOCgKAFkAD0KHCMDxW0lWSnuwx9l5JzyuXy5s8ZgIAEsASQIcql8s3mdnZkiY8xh5uZj9csmTJ0zxmAgASQAPQwUql0hWSXi2PbwY4546KomjN0qVLH+8rEwDgH28BdLharfbbXC6XkXSGx9gnO+dOmzNnzve2bNky6TEXAOAJDQBUq9VG+/r6jpN0ksfYY8zsuHPPPXfl6Oioz7MHAAAesAQASXLbtm17naQrfYaa2cvXr1//7z4zAQB+MAMASdLNN99cP/HEE8tRFA1K8rZ+b2an53K5P9dqtat8ZQIA4uM1QDzCwMDA3CAIfi6PTYB2bzJcXi6Xv+IxEwAQA0sAeITh4eEbJJ0jaZfHWJP0pTAMX+YxEwAQA0sA+Au1Wu3GXC53o6Sz5W+WKJC0NJfLbajVals8ZQIAZogGAHtUq9V+3dfXt1PSiz3GZiQtO/7443+2efPmWz3mAgD2Ew0A9qparV6ey+WeIOk5HmO7zOzsXC53aa1W2+oxFwCwH9gDgMe0YMGCf5J0sefYx0n6wcDAwFzPuQCAaeItAOzTwoULew499NBLnXPP95lrZrcFQfD8VatW3ewzFwCwb8wAYJ9GR0fHu7u7Q0m/8pnrnDtqcnLyh4sXLz7CZy4AYN+YAcC0hWH4dEk/l/RUz9G/kvTicrl8j+dcAMBeMAOAaSuXy7dGUfRSSfd5jj5J0rply5Yd7jkXALAXNADYL8PDw78xs5dJmvAcPa9er186MDBwmOdcAMAe0ABgv5VKpcvM7G8l1T1Hzw+C4EeLFi16gudcAMCjsAcAM1YoFP7OOfcN+W8kr4mi6Mzh4WHfSw0AgCkcBIQZq1arv8rlcvdIGvAcfaSZnTFnzpzili1bfC81AABEA4CYarXaL3O5XF3SizxHHxUEwcK+vr6LqtXqTs/ZANDxaAAQW61W+1lvb++BZna65+inOefO6OvrK9IEAIBfNADwolar/SiXyx0paYHPXDN7mqS/PuaYY4o33nijzyuKAaCj8RYAfHELFix4o6TvJpB9Rnd39w/6+/sPTSAbADoSbwHAq+XLl3dt3br1Ekl539lmtiGTySxauXLlvb6zAaDT0ADAu8HBwVnj4+NrJC30nW1m1+3ateuskZGRP/jOBoBOQgOARIRheKCkYSXQBEja5Jw7s1Kp3J5ANgB0BBoAJOass846qLu7e1jSGQnE3xxF0YuHh4d/l0A2ALQ9GgAkaqoJWCPpBQnE3zo1E7A5gWwAaGu8BYBEXXrppffX6/VQ0i8SiH+6mf1syZIlf5VANgC0NRoAJG5kZGRbT0/PIklXJxD/lCiKfpLP509NIBsA2hZLAGiYgYGBwzKZzA+dc14PC5pyn3NuoFKpXJlANgC0HWYA0DDDw8P3BUFwpqT1CcQfZmbrCoWC74uJAKAt0QCgoVatWvWnTCbzEjPbkED8gc651WEYvi6BbABoK9wFgIbbtGnTeG9v7yWSXirpKZ7jA0lhb2/vA7Va7eeeswGgbbAHAKkZGBg4LAiCEUnPSWiICxYsWPBPQ0NDUUL5ANCyaACQqsHBwYPHx8dLkl6YRL6ZffuII474+xUrVnCTIAA8DA0AUjd1bPAqSS9JIt85ty4IgrNLpdJYEvkA0IpoANAU+vv7u7PZ7PckLU1oiF/W6/UBLhECgN14CwBNYWRkZKKnp+ccSRcnNMQp2Wz2J2EYPj2hfABoKTQAaBrFYnHnVBPw9YSGmCvpqkKhcHJC+QDQMlgCQDOyfD5/gZm9JaH8+yW9slwur04oHwCaHucAoCnVarUf5HK5QyU9N4H4AySd09fXZ9VqdTSBfABoejQAaFq1Wm1tLpc7QNLzE4g3SQt7e3ufOG/evEs3btzoEhgDAJoWDQCaWq1W+3FfX9+92n1qoPclKzM7tV6vnzZnzpzSli1bJnznA0CzYg8AWkKhUDjbOfdtST0JDfFrSflyuXxrQvkA0FRoANAywjB8kaSVkg5NaIitURSFw8PDSVxUBABNhdcA0TLK5fKPzezFku5OaIgjgyD4SaFQKCSUDwBNgz0AaCnVavWO4447rhQEQV7SYQkMcYCkv+3r67u/Wq1emUA+ADQFlgDQkhYvXnxENpsdcc49K6kxnHPfM7PXlsvlB5IaAwDSwhIAWtKaNWvu7O7ufr6kHyY1hpm93MyuWLx48dFJjQEAaWEGAC1t6hKhCyUNJjjMPc65wUqlMprgGADQUOyID1MSAAAcBElEQVQBQEvbsmXL5Lx58y6ZnJw8XNKpCQ1zoJmd29vbe1etVrsmoTEAoKGYAUDbKBQKy51zX5CUTXCYFT09PecXi8WdCY4BAImjAUBbKRQKL3XO/a+SOytAkq4ws5eVSqW7EhwDABJFA4C2UygUTnLOVSQ9LakxzOw259zZ5XL5l0mNAQBJ4i0AtJ1SqfSrIAhOl3R9UmM4546SNJrP51+d1BgAkCRmANC2BgcHDx4fH/+OpDDhoS6U9AbOCwDQSngLAG1r48aNO+fNm3dRvV4/TNJzEhxqnpkN5HK5H1Wr1T8mOA4AeMMMADpCoVB4m3Pu00q26R2T9LpyuXxRgmMAgBc0AOgYhUKhMHWl8MEJDuMk/ceRRx75nhUrVuxKcBwAiIUGAB1lyZIlfxVF0SpJz0h4qF9mMpm/XbVq1c0JjwMAM0IDgI6zaNGiJxxwwAHfk/SShIe6x8xeVSqVfpDwOACw39gEiI5z44037pg3b9536vV6t6TnJTjUgZJemcvlZs2bN++yjRs3ugTHAoD9wgwAOloYhq+Q9BXtflgn6UpJryyXyzclPA4ATAsNADpeoVB4tnNupaSkr/39s6Q3lsvl7yY8DgDsEw0AIKm/v/9J2Wz2IkkLGzDchT09PW8qFovbGzAWAOwRewAASVu2bHlg9uzZ3+7u7k760CBJmlev11/R29t7da1Wuy3hsQBgj5gBAB5l6lrh/5R0QMJD1c3sY/Pnz//w0NBQlPBYAPAINADAHhQKhdOnrhV+atJjOefWBUFwXqlUuiPpsQDgQdwGCOxBqVS6QtKzJCX+Dr+Znemc+20+nz8n6bEA4EHsAQD2olarPXDuued+94477nBm9gIlO2PWY2Z/09fXd8TRRx89euONN3KMMIBEsQQATEOhUHihc+47ko5owHA3mdlrS6XSZQ0YC0CHYgkAmIZSqXSZc+5kSZc3YLhjnXM/CsPwy2edddZBDRgPHaa/v7877RqQPpYAgGmq1Wpjs2fPvrCnp8dJSnpJwCQtyGazL8/lctfXarVbEhwLHWbu3Lnn9Pb2Hl6r1W5OuxakhyUAYAby+XxoZt+QdFgDhou0+7jifyqXyw80YDy0ucWLFx+dyWR+65zLVyqV0bTrQTpoAIAZCsPw6ZIuUvIHBz3oxiiK/n54ePhnDRoPbSwMwy2SjqAJ6FwsAQAzVKvV/jxnzpwLzewQM3uOkm+on2Bmr8rlcgfOmTPn8i1btkwmPB7aWC6XO0HSc81ssLe39+csB3QeNgECMYyMjExUKpW3B0FwlqRGHOSTlfTebDa7IQzDUxowHtqUmf1o6h8PMrNKoVB4YaoFoeFoAAAPVq9eva5erz9LUrlBQ54o6edhGH5ucHDw4AaNiTaSyWR+rN37SyTpIOccTUCHYQ8A4JcVCoXXO+c+K+nABo15u3Pu/EqlsrJB46FNFAqF9c65BQ/7owfM7GWlUinxEzCRPmYAAL9cqVRaEQTBKZKub9CYTzWzS8IwLPf39x/VoDHRBpxz6x71Rwc651aHYfi3qRSEhmITIJCAarX6h9mzZ3+9u7u7S9JfqzGzbb1BELy2r69vxyte8Ypfjo6OugaMiRY2d+5cOede/ag/zkg6u6+v785qtbohjbrQGCwBAAkrFAovcc59Q9KRjRrTOfdz59w/Dg8P/6ZRY6L1LFy4sOeQQw75o6RZe/hrZ2YfLpVKQw0uCw3CDACQsGq1+rsTTzzxwiiKTpDU24gxzexpZvb6XC73xGOOOeZnXC6EPbn55pvrvb29C83sGXv4a5O0MJfLPaFWq61tdG1IHg0A0ACbNm26v1arfbevr+8OSQslNeIs9oyk50wdJ7ypVqvd2IAx0WJyudxTJZ35GF/ynL6+vmOPPPLIys033xw9xtehxbAEADRYGIbHSvof7W4EGsVJ+l69Xn/3yMjIbQ0cF01uYGBgQRAE66fxpaskvZLjqNsHDQCQjgdfF/y0pEa+x/+AmX1q27ZtHx8dHR1v4LhoUkNDQ8GGDRvukvTEaXz51WZWKJVKdyVdF5JHAwCkaGo24KuSGn0Ay++dc++vVCrfbPC4aEKFQqHonPubaX75TZIWl8vlTUnWhOTRAADpS2s2QJJ+HEXR23hboLPl8/k3mNkX9+Mj90laVi6Xf5JUTUgeBwEB6XOlUmlFFEXzJDX6B+qLgiC4ZupI4cc1eGw0iSAIHn0g0L4cJunSfD7/yiTqQWMwAwA0lwdnAz4j6aAGj32vmX2ku7v788VikZsGO0wYhr+TdOx+foyzAloYrwECTaZarW7I5XKXOOfmm9nTGjj0gZJeWq/XXzp37txfV6vV2xs4NlLW29t7opkt2PdXPsKDZwUcNW/evLUbN26kcWwhzAAAzcvy+fyrzOwzkg5v8NhO0vfN7H2lUmlLg8dGCvL5/Dlm9r0YEVdMXSTEGwItggYAaHKLFy8+IpPJfFLSq1IYfpekr5nZB/nB3t6WLVt2eL1ev1sx9oaZ2W2Tk5NLh4eHuUOgBdAAAC0in88vNrMvSDomheG3S/qCmX2sVCqNpTA+GiAMw2skPTtmzP2SziuXyxd7KAkJYg8A0CJqtdrmefPmrZicnKxr9w2Djfzv9wBJz5N0Xl9f3/Yjjzzyeo6FbT99fX1zJJ0eM+YASYO5XG7Wueee+2NupWxezAAALahQKJzknPuypNNSKmHT1LJAMaXxkYCBgYFFQRD8wGNkpV6vv3JkZGSbx0x4wjkAQAsqlUq/WrBgwelm9o+S0vjh2uecuygMwysHBgaen8L4SEAQBD+TNOExMp/NZn+6dOnSYzxmwhNmAIAW19/ff1RXV9cFzrllKZXgzOziycnJDw4PD9+QUg3wJAzDH8v/0dR/lvSacrm8ynMuYmAPANDitmzZsq1arf5vb2/v5VPvcT+5wSWYpBPM7I25XO6ZuVzu17Va7Z4G1wBPcrncUZJe5Dm2R9I57AtoLswAAG1k+fLlXXfeeeebnHMfkpTW0b6RpIvN7AOlUqmaUg2YoXw+f6qZ/SLBIS7LZrMvX7ly5d0JjoFpoAEA2tDUO90flPQWpbfXh0agBQ0ODmbGx8fvlvSEBIf5fRAEg6tXr06y0cA+0AAAbWxgYGCBmV1gZn+dYhmRpIsnJyffv2bNmlqKdWCawjC8WNLZCQ8zYWbvKZVKn0t4HOwFDQDQ/h48UvgTko5IsY5I0sXOuX+pVCqbU6wD+1AoFN7onPuvBg331Z6envOLxeKOBo2HKTQAQIfo7+8/NJvNflDSWyV1pVjKLknfjKLo34aHh3+XYh3Yi8WLF/dmMplGLtvcEATBOatXr/51A8fseDQAQIfJ5/PHm9lnJQ2kXEokaY1z7iOVSuXqlGvBo4RheJMae+z0DjP7Z5YEGocGAOhQS5YsOTOKok8q/tnvPlzhnPtEpVIpp10Idsvn8181s39o9Lhm9v3u7u7XFYvFPzd67E5DAwB0NisUCn/jnPu4pGekXozZdVEUfXb79u3fGR0draddTycLw/BcSd9OY2wzq9Xr9XPWrFlzXRrjdwoaAAAaHBw8YGJi4jXOuY9KelLa9Ui6ycw+193dvYLNYelYtmzZk+v1+p1K7znx4FsCF0ji4KAE0AAAeMjAwMBhQRC8R7s3Cs5Kux5Jd5vZFycmJi5Yu3btH9MuptOEYXidpHkpl3FxFEWvHx4evi/lOtoORwEDeMjmzZvHa7Xaulwud6F2HwRzktL9ReEgSQszmcybcrnc4XPnzr2hWq1ys1yD9PX1HS/puSmXcYKZndfX1/fbarW6JeVa2gozAAD2asmSJSdEUTQkaTDtWqZEktYEQfC51atX/0hMDScqDMN+SWvSrmOKk/Sf9Xr93SMjIz5vLOxYNAAA9ikMwxdJ+rikU9Ku5WF+bWafd859q1wuP5B2Me0oDMMDJf1RUnfatTzMb8zslaVS6VdpF9LqaAAATNvUq4P/puZqBLZJ+p6kz5bL5U1pF9NuwjAclXRG2nU8yrikoQULFnxqaGgoSruYVkUDAGC/TTUC/y7p5LRreZjIOfdjSRdUKpWKWB7wolAofMA59+G069iLH5rZa0ql0h1pF9KKaAAAzNiSJUvOdM593Dm3IO1aHmWzpK9GUbSC3ePxhGF4mqQr067jMdxtZq8vlUqltAtpNTQAAOKyfD6/1MyGtPutgWayzcwulPTVUql0bdrFtKKp64HvkfT4tGvZh+LOnTvfwOui00cDAMAXy+fz+alGYH7axezBRknflPTVcrl8T9rFtJIwDFdJWpJ2HdNwp3NuOUdKTw8NAADfHmwEPqTmuGfg0SYklYIgWMGrhNMThuH5ki5Iu479cKGZvblUKo2lXUgzowEAkIihoaFg/fr1Z5vZu9Vcbw083I2Svuac+3qlUrk97WKa1cDAwNwgCDamXcd+ukXSP5TL5R+nXUizogEAkLgwDJ8n6T3afQVxM/7ciZxzPw6CYEV3d/fqYrG4M+2Cmk0YhrdKelradewnJ+m/e3p63lksFrenXUyzacb/EAG0qXw+P29qRuBvJWXTrmcv7tLuKeQLOWzm/wvD8GuSXpN2HTO02cxeVyqVfpp2Ic2EBgBAwy1evPjoTCbzDkmv1e7z/pvVRjMrRlH07UqlsjntYtJUKBT+zjl3Ydp1xOAk/Xe9Xn/XyMgI90mIBgBAisIwfKJ2NwFvk3RkyuXsy0ZJ3+zq6vrmJZdcsjXtYhqtUCg8xTm3Va3/3NjqnHtzpVJZmXYhaWv1bySANtDf39+dyWTOMbP3Szo+7Xr2IZJ0pZkVnXPf7qRXCsMw/LWkZ6ZdhyfFer3+5pGRkT+kXUhaaAAANI2FCxdmDznkkEFJb5V0Wtr1TMO4dt+W952xsbHh0dHR8bQLSlIYhp+V9Pa06/DoPjN7b6lUWpF2IWmgAQDQlAqFwsnOubdIerma6za6vdkmaaWk74+Nja1rx2agUCgMOOcqadeRgEq9Xn/jyMjIbWkX0kg0AACa2tKlSx8fRdF5zrl/knR02vVM0w5JP3LOFbPZbGnVqlV/SrsgHwqFwiHOuXsldaVdSwLul/SRnp6e/1ssFifTLqYRaAAAtISpg4UGJL3VzF6s1vn5NSnpqqm3Cb7f6gcOhWH4M0nPS7uOpJjZdVEU/WOlUrk67VqS1ir/AQHAQwqFQs459yY1/2uEe7LRzIpmdtHq1atb7XQ9FQqFIefcv6ZdR8IiSV9p91cGaQAAtKz+/v5Du7q6Xj61PNCXdj0z8DtJFUnFcrl8hVrgXoJCoXC6c+7ytOtokK3OufdWKpVvpl1IEmgAALS8qeWBl5rZP0gKJR2Qdk0zcIektc65tV1dXetWrlx5b9oF7cnUmxr3Sjo07VoaqDI5OfmWNWvW3JJ2IT7RAABoKwMDA4dlMpnBqSWCeWnXM0ORmV3rnFsXBMG6pzzlKT9ZsWLFrrSLelAYhiXtbrQ6yXZJHzryyCM/10zfizhoAAC0rYGBgQVBECyX9ApJh6RdTwzbJY2aWdk594NyuXxrmsUUCoW3Oef+I80a0mJmtcnJybcODw+vTbuWuGgAALS9wcHBWRMTE/koipa32BsEe/M7Seucc5Xt27f/sNFnDoRheKKk3zRyzCbU8ssCrf4fAQDsl6m77V8r6VWSnpx2PR48IOlyST+V9JOenp6rG3GdcRiGt0l6atLjNLkHzOxTu3bt+veRkZGJtIvZXzQAADrS8uXLu+68887QOfcaSYvUmhsH92SHpKuccz8JguCn3d3dVxWLxR2+BwnD8Jva3URh93XDby2VSj9Iu5D9QQMAoOMtXbr08fV6vWBmg5JeKimbdk0e1c3seufcOufcFdls9mc+TibM5/OvNrNv+CiwXZjZ951z70x7j8Z00QAAwMP09/cf1dXVdY5z7lxJ89OuJwF1Seudcz8NguCnQRBcMZOGoFAozHbOtfSphgnZIekCM/tYqVQaS7uYx0IDAAB7sXTp0mMmJyfPkfT3knJp15OgrZIuN7MrnHMbxsbG1k9nY2EYhhslzU2+vJZ0h5l9aP78+V8ZGhqK0i5mT2gAAGAawjA80cwGnXOvlnRs2vUkrC6pJmmDmV3unLtiwYIFNzz6QRaG4QWSzk+lwtax3szeXiqVrki7kEejAQCA/TA0NBRcc801Z0RR9AozWyrpSWnX1CB/kvRLSVeb2dXZbPaX9Xr9FOfc6rQLawFO0vcnJyff1UyvDdIAAMAMDQ4OZiYmJk6XtMQ5t0ztPzPwCM65281stniWTNf9zrmPz5o169NJvJmxv/imAYAnUwfk5LX7mNy/Fj9jsWe3m9mHu7u7v1osFifTKoL/cwJAAhYvXnx0Nptd5JwLtfucga60a0LT2SjpPeVyuZLG4DQAAJCw/v7+J3V1dYXOuaWSXiKpJ+2a0Dycc+uiKHrXmjVrrmvkuDQAANBAg4ODB4+Pjy+S1G9mi5xzR6VdE5pCJOniRm4UpAEAgBQNDAw8I5PJnOmcO1NSv6SD064JqXrAzD6za9euT42MjGxLciAaAABoEoODg7N27tx5ehRFZ5rZmc65+eLndKf6o6RP9vT0XJDUGwP8HwsAmtTDNhIukvRiSY9LuyY0lpndJukj27Zt+5/R0dG612yfYQCAZCxcuDB70EEHPTcIgkXOuRea2SnizYJOssk594FKpXKxdh8sFBsNAAC0oDAMD9Tuy4pOd86daWanS5qVcllI3i+dcx+pVCrluEE0AADQBhYuXNhz6KGHnirpjCiKXmBmz5V0UNp1ITGXSfpguVy+fKYBNAAA0IaWL1/eddddd50SRdELJL1A0vMkHZJyWfDvCkn/Ui6Xf7K/H6QBAIAOMHVvwbOnZgdOk3SqpKPTrgt+OOfWmdn7yuXyL6f7GRoAAOhQhULhKc65UySdamanTv3zE9KuCzPnnFsXBME/l0ql9fv6WhoAAMBD8vn88do9O3CKmZ0q6dnay9HFzjmZ8RhpQs7MVkn6SKlUunZvX8R3DgCwV8uXL++6/fbbT8pkMqc6506VdIqkPkmZlEvDNEwtDXygXC5f9ei/owEAAOyXhQsX9hx88MFvNbNPpF0Lpu0K59wnHv76IA0AAGC/hWF4paTT0q4D++2hRoAGAACwX/L5/EIzuyztOjBjt5rZh7JpVwEAaC1BELzXOS+n0aIx6pJ+IakcRdG64eHhayQ5ZgAAANNWKBROcs5dJ5aQm91Nkn5oZut27dq1dk9XCzMDAACYNufce8XDvxlFZnatpMrk5GR5eHh4w74+wDcRADAtYRgeK6kmfnlsFjsk/cjMytlstnzJJZds3Z8P800EAEzXP4nnRtruMLOSc640NjZ22ejo6PhMg5gBAADs07Jlyw6v1+u3iBsG03CLpNWSigsWLPj50NBQ5COUTg4AsE/1ev2t4uHfSL+TVJFULJfLV0hyklQulx/zQ/uDGQAAwGM666yzDuru7r5F0uFp19LOzOy6KIouzmQyl6xevXpj0uMxAwAAeEw9PT2vc87x8E/GTZIukvT1Uqm0qZEDMwMAANir5cuXd23dunWzpKPTrqWN3CpplXZP71+eVhHMAAAA9mrr1q0vFw//2MzsNufcJXrUmn6aaAAAAHtlZu/g2N8Z+7OkknOu2NPTs6ZYLE6mXdDD0QAAAPYon88vds49K+06Wsykc+4ySRfu3Lnz4ksvvfT+tAvaGxoAAMAemdl70q6hVZjZBkkXZjKZ765cufLutOuZDjYBAgD+wpIlS54TRdFVadfR5G6R9A0zu7BUKm1Ju5j9xQwAAOAvRFH03rRraFIT2r2uf+GsWbOabl1/fzADAAB4hEKhkHPObZQUpF1LE9ko6ZuSvloul+9JuxgfmAEAADxCFEXvNjMe/tJ9kopm9qVSqXRt2sX4xgwAAOAhhUJhtnPud5K6064lJc4596MgCFZ0d3evLhaLO9MuKCnMAAAAHu7t6syH/32SipIuqFQqv027mEZgBgAAIEnq7+8/NJvN3irpcWnX0ihTr++t6O7uvrBYLO5Iu55GYgYAACBJymazb1RnPPzvkfT1ycnJ/16zZk0t7WLSwgwAAED9/f3d2Wz2JklHpl1Lgq4xsy87575VLpcfSLuYtDEDAABQV1fXec65dnz475S0OgiCFatXr16XdjHNhBkAAOhwQ0NDwYYNGzZJOj7tWjy6U9I36vX650dGRm5Lu5hmxAwAAHS4DRs2LFP7PPwvd859fvbs2ZesWLFiV9rFNDMaAADA/0m7gJgiSWucc/9WqVSuTLuYVkEDAAAdrFAovNA5d1radczQNklfl/Tpcrl8a8q1tBwaAADobK145e9Nkr6cyWS+vGrVqj+lXUyrYhMgAHSoQqFwknPuOrXIs8DMNkRRdMH27du/Mzo6Wk+7nlbHDAAAdCjn3HvU/A9/55wrS/p4uVxmfd+jZv/GAwASsHTp0mMmJyc3q3l/EYwkrZH0r+Vy+Zq0i2lHzfqNBwAkqF6vv9PMmvEZMCHpIufcRyqVyua0i2lnzAAAQIdZtmzZ4fV6/RZJB6Vdy8OMSfqamX2iVCrdkXYxnaAZuz8AQIImJyfPV/M8/P8g6TP1ev2/RkZGtqVdTCdhBgAAOkgYhgdKukXSE1Mu5R4z+8KuXbs+w4M/HcwAAEAHMbPXO+fSfPjz4G8SzAAAQIdYvnx519atWzdLOjqF4XnwNxlmAACgQ2zduvXlavzD/w9m9l88+JsPDQAAdAgze4dzrlHDjUn6LzP7WKlUGmvUoJg+GgAA6AD5fH6xc+5ZDRjqAUlfqdfrHx0ZGflDA8bDDNEAAEAHMLOkL/3Zpd3v8X+I9/hbA5sAAaDN5fP5U83sFwnFO0nfd879Cyf3tRZmAACgzQVB8N6E1v5/4Jx7b6VSuT6JcCSLGQAAaGOFQiHnnNsoKfAYu0nSu8rlcsVjJhqMGQAAaGPOuXfJ38P/XjP7yLZt274wOjpa95SJlDADAABtavHixUdkMpmbJPXEjNop6Us9PT0fLBaLf/ZQGpoAMwAA0Kay2ew7nHNxHv5O0vclvadcLt/kqSw0CWYAAKANDQ4OPm58fPxWSYfOMOKXzrm3VCqVq33Whebhc1MIAKBJjI+Pv1Eze/jfZ2Zv7+npeS4P//bGDAAAtJn+/v7ubDZ7k6Qj9+NjTtK36vX6OznBrzOwBwAA2kxXV9d5zrn9efhf65x7c6VSuTKxotB0WAIAgDYyNDQUSHrnNL/8wen+U3j4dx5mAACgjVxzzTVLnXO90/jSCyW9o1Qq3ZN0TWhONAAA0EamDv55LHdIelO5XF7diHrQvFgCAIA2USgUXijptL38tZO0wsz6ePhDYgYAANrJ3q783eKce32lUhltZDFobrwGCABtoFAonOScu06P/Llel/Tper3+ryMjIxMplYYmxQwAALSHd+uRD/9fmdmrSqXSr9IqCM2NGQAAaHFLly49ZnJycrN2/1LnJP1nvV5/N7/147EwAwAALa5er7/TzLKSfm9m55VKpcvSrgnNjxkAAGhhy5YtO7xer98iac3OnTvfsHbt2j+mXRNaAzMAANDCdu3adZ6ZvbFcLl+Ydi1oLf8PwxSt3WpqenUAAAAASUVORK5CYII=;rotation=-45;" parent="6csktdJ5veV7fC9ITd33-1" vertex="1">
          <mxGeometry x="410" y="550" width="59.5" height="59.5" as="geometry" />
        </mxCell>
        <mxCell id="kblEvdHZP-VqR2xJ2xVO-11" value="&lt;font style=&quot;font-size: 36px;&quot; face=&quot;Cascadia Code&quot; color=&quot;#4d4d4d&quot;&gt;21&lt;/font&gt;" style="rounded=0;whiteSpace=wrap;html=1;strokeWidth=1;fillColor=#DFEAF2;" parent="6csktdJ5veV7fC9ITd33-1" vertex="1">
          <mxGeometry x="280" y="640" width="80" height="80" as="geometry" />
        </mxCell>
        <mxCell id="kblEvdHZP-VqR2xJ2xVO-12" value="&lt;span style=&quot;color: rgb(77, 77, 77); font-family: &amp;quot;Cascadia Code&amp;quot;; font-size: 40px;&quot;&gt;38&lt;/span&gt;" style="rounded=0;whiteSpace=wrap;html=1;strokeWidth=1;fillColor=#DFEAF2;" parent="6csktdJ5veV7fC9ITd33-1" vertex="1">
          <mxGeometry x="440" y="640" width="80" height="80" as="geometry" />
        </mxCell>
        <mxCell id="kblEvdHZP-VqR2xJ2xVO-13" value="&lt;font face=&quot;Cascadia Code&quot; color=&quot;#4d4d4d&quot;&gt;&lt;span style=&quot;font-size: 40px;&quot;&gt;95&lt;/span&gt;&lt;/font&gt;" style="rounded=0;whiteSpace=wrap;html=1;strokeWidth=1;fillColor=#DFEAF2;" parent="6csktdJ5veV7fC9ITd33-1" vertex="1">
          <mxGeometry x="520" y="640" width="80" height="80" as="geometry" />
        </mxCell>
        <mxCell id="kblEvdHZP-VqR2xJ2xVO-14" value="&lt;span style=&quot;color: rgb(77, 77, 77); font-family: &amp;quot;Cascadia Code&amp;quot;;&quot;&gt;&lt;font style=&quot;font-size: 36px;&quot;&gt;6&lt;/font&gt;&lt;/span&gt;" style="rounded=0;whiteSpace=wrap;html=1;strokeWidth=1;fillColor=#DFEAF2;" parent="6csktdJ5veV7fC9ITd33-1" vertex="1">
          <mxGeometry x="200" y="640" width="80" height="80" as="geometry" />
        </mxCell>
        <mxCell id="kblEvdHZP-VqR2xJ2xVO-17" value="&lt;font style=&quot;font-size: 36px;&quot; face=&quot;Cascadia Code&quot; color=&quot;#4d4d4d&quot;&gt;21&lt;/font&gt;" style="rounded=0;whiteSpace=wrap;html=1;strokeWidth=1;fillColor=#DFEAF2;" parent="6csktdJ5veV7fC9ITd33-1" vertex="1">
          <mxGeometry x="280" y="800" width="80" height="80" as="geometry" />
        </mxCell>
        <mxCell id="kblEvdHZP-VqR2xJ2xVO-18" value="&lt;span style=&quot;color: rgb(77, 77, 77); font-family: &amp;quot;Cascadia Code&amp;quot;; font-size: 40px;&quot;&gt;38&lt;/span&gt;" style="rounded=0;whiteSpace=wrap;html=1;strokeWidth=1;fillColor=#DFEAF2;" parent="6csktdJ5veV7fC9ITd33-1" vertex="1">
          <mxGeometry x="440" y="800" width="80" height="80" as="geometry" />
        </mxCell>
        <mxCell id="kblEvdHZP-VqR2xJ2xVO-19" value="&lt;font face=&quot;Cascadia Code&quot; color=&quot;#4d4d4d&quot;&gt;&lt;span style=&quot;font-size: 40px;&quot;&gt;95&lt;/span&gt;&lt;/font&gt;" style="rounded=0;whiteSpace=wrap;html=1;strokeWidth=1;fillColor=#DFEAF2;" parent="6csktdJ5veV7fC9ITd33-1" vertex="1">
          <mxGeometry x="520" y="800" width="80" height="80" as="geometry" />
        </mxCell>
        <mxCell id="kblEvdHZP-VqR2xJ2xVO-20" value="&lt;span style=&quot;color: rgb(77, 77, 77); font-family: &amp;quot;Cascadia Code&amp;quot;;&quot;&gt;&lt;font style=&quot;font-size: 36px;&quot;&gt;6&lt;/font&gt;&lt;/span&gt;" style="rounded=0;whiteSpace=wrap;html=1;strokeWidth=1;fillColor=#DFEAF2;" parent="6csktdJ5veV7fC9ITd33-1" vertex="1">
          <mxGeometry x="200" y="800" width="80" height="80" as="geometry" />
        </mxCell>
        <mxCell id="kblEvdHZP-VqR2xJ2xVO-21" value="&lt;span style=&quot;color: rgb(77, 77, 77); font-family: &amp;quot;Cascadia Code&amp;quot;; font-size: 40px;&quot;&gt;30&lt;/span&gt;" style="rounded=0;whiteSpace=wrap;html=1;strokeWidth=1;fillColor=#DFEAF2;" parent="6csktdJ5veV7fC9ITd33-1" vertex="1">
          <mxGeometry x="360" y="820" width="80" height="80" as="geometry" />
        </mxCell>
      </root>
    </mxGraphModel>
  </diagram>
</mxfile>
